<svg version="1.1" id="Layer_1" xmlns="http://www.w3.org/2000/svg" xmlns:xlink="http://www.w3.org/1999/xlink" x="0px" y="0px"
	 width="100%" viewBox="0 0 512 512" enable-background="new 0 0 512 512" xml:space="preserve">
<path fill="#000000" opacity="1.000000" stroke="none" 
	d="
M1.000000,177.000000 
	C1.000000,118.000000 1.000000,59.500000 1.000000,1.000000 
	C171.666672,1.000000 342.333344,1.000000 513.000000,1.000000 
	C513.000000,171.666672 513.000000,342.333344 513.000000,513.000000 
	C342.333344,513.000000 171.666672,513.000000 1.000000,513.000000 
	C1.000000,401.166656 1.000000,289.333344 1.000000,177.000000 
M206.016418,198.894806 
	C206.066422,219.266617 206.116425,239.638412 205.868454,260.656097 
	C196.705536,267.505096 192.899490,276.641693 194.021378,288.878326 
	C194.350449,293.916962 194.679504,298.955597 194.079575,304.000031 
	C191.747345,304.000671 189.411469,304.086823 187.083466,303.988007 
	C172.820816,303.382690 159.112381,294.956360 153.691193,280.909515 
	C149.385223,269.752319 144.012039,258.880249 137.943573,248.569672 
	C132.987793,240.149612 127.401306,231.577820 118.623741,226.520462 
	C113.501396,223.569153 107.471458,222.193039 102.197548,219.489151 
	C104.324234,218.231842 106.441994,216.959152 108.578957,215.719543 
	C135.808456,199.924240 162.708862,183.517151 190.414124,168.605515 
	C203.995575,161.295654 210.514954,151.860550 209.067764,136.550781 
	C208.289642,128.319305 208.082321,120.012077 208.040436,111.736893 
	C207.914093,86.776810 208.069244,61.815079 207.871002,36.855923 
	C207.852753,34.558849 206.095673,32.275585 204.826935,29.340511 
	C203.349136,28.606323 201.672516,28.114538 200.429123,27.094591 
	C195.854019,23.341623 191.488297,24.350105 186.861969,27.041649 
	C159.679199,42.856281 132.455307,58.600281 105.236008,74.352051 
	C83.563896,86.893669 62.016281,99.660019 40.137203,111.830070 
	C30.158409,117.380692 25.510279,124.462379 25.759571,136.405304 
	C26.450735,169.517014 26.369875,202.659592 25.746082,235.773987 
	C25.583925,244.382233 28.581953,249.071381 36.595371,252.284348 
	C38.914436,252.415558 41.495716,253.259369 43.495701,252.523438 
	C47.185806,251.165604 50.577702,248.955078 54.018280,246.968933 
	C66.761307,239.612808 79.473511,232.203293 93.069893,224.930130 
	C103.601265,224.411865 113.145737,227.246277 120.355240,235.012253 
	C132.301407,247.880478 141.040207,262.868713 146.938522,279.404327 
	C151.566315,292.378082 159.210571,302.636627 172.938919,306.168823 
	C180.966156,308.234222 189.535217,308.193695 198.180130,309.712921 
	C203.178406,314.092010 208.176666,318.471069 213.002335,323.671082 
	C212.349884,328.548553 210.693985,333.542816 211.245514,338.280121 
	C212.555115,349.528870 215.232773,360.613586 216.708771,371.849762 
	C217.460129,377.569519 217.565979,383.597839 216.631256,389.266998 
	C214.886139,399.851257 206.049103,402.891205 197.189560,404.891937 
	C187.912704,406.986877 178.462784,408.315552 169.009872,409.047333 
	C169.005829,395.842407 169.032135,382.637299 168.956161,369.432800 
	C168.947479,367.923737 168.366211,366.417938 167.715195,364.285400 
	C167.129745,364.004303 166.522156,363.761353 165.962021,363.436584 
	C146.076920,351.906311 126.101128,340.527832 106.361359,328.753693 
	C98.366974,323.985321 90.874260,318.585754 82.112022,326.986694 
	C81.772614,327.312134 81.259369,327.452209 80.836922,327.695648 
	C64.419106,337.155273 47.958813,346.542358 31.606173,356.113403 
	C24.682737,360.165619 17.985828,364.604858 11.036726,369.815491 
	C11.024650,393.802979 11.043923,417.790588 10.954224,441.777771 
	C10.944778,444.303772 11.503772,445.700989 13.956788,447.101624 
	C31.706446,457.236511 49.275921,467.686310 66.949036,477.956207 
	C73.568161,481.802582 80.311356,485.435425 87.355591,489.675629 
	C95.260742,485.255981 103.215637,480.922638 111.061020,476.399323 
	C129.155655,465.966766 147.146698,455.353210 165.311905,445.045929 
	C168.192047,443.411743 169.163177,441.727417 169.078445,438.514252 
	C168.872482,430.705200 169.080048,422.885254 169.947327,415.001984 
	C171.553284,414.669067 173.157852,414.329346 174.765427,414.004364 
	C184.716766,411.992889 194.839172,410.584320 204.575836,407.817871 
	C215.780655,404.634277 221.603012,397.362976 222.016083,388.619049 
	C222.613281,375.977753 220.774918,363.629974 218.305756,351.275757 
	C216.580505,342.643585 214.622925,333.848938 218.729080,325.228668 
	C220.036850,325.820648 221.290146,326.646759 222.661423,326.965698 
	C230.181412,328.714844 237.659012,331.052429 245.288452,331.815796 
	C253.680618,332.655457 262.333252,332.862946 270.667328,331.774902 
	C279.545349,330.615875 288.183350,327.618103 296.955811,326.370819 
	C296.883423,332.726715 297.522247,339.188538 296.594696,345.417084 
	C294.481659,359.606201 291.390839,373.622711 291.893951,388.135498 
	C292.122864,394.739258 294.598755,400.084991 300.118164,402.846375 
	C307.549072,406.564087 315.453766,409.604706 323.464996,411.810455 
	C330.376709,413.713531 337.721863,414.042511 344.985199,415.990448 
	C344.990814,423.819885 344.892670,431.651978 345.091827,439.476471 
	C345.130493,440.995453 345.908356,443.174377 347.059692,443.875214 
	C354.122375,448.174042 361.426514,452.073334 368.582642,456.222229 
	C382.339691,464.198029 396.004730,472.333496 409.805115,480.233032 
	C415.406403,483.439209 421.261505,486.201904 427.715698,489.009064 
	C431.386780,486.900909 435.066467,484.807648 438.727448,482.682098 
	C459.473389,470.637115 480.227966,458.606720 500.917480,446.465576 
	C501.911133,445.882507 502.908600,444.300415 502.910980,443.181427 
	C502.963287,418.410400 502.875336,393.639099 502.634949,368.212341 
	C494.815887,363.683411 486.988861,359.168121 479.179291,354.622864 
	C460.734924,343.887848 442.324280,333.094177 423.801758,322.495850 
	C422.574219,321.793518 420.231415,321.990448 418.900604,322.697479 
	C412.625092,326.031647 406.507385,329.665070 400.359406,333.236542 
	C382.208466,343.780762 364.069794,354.346161 345.197144,365.384705 
	C345.101624,380.250641 345.006073,395.116547 344.078430,409.983612 
	C342.639526,409.661499 341.203339,409.326752 339.761322,409.019318 
	C330.310303,407.004150 320.710693,405.508179 311.444763,402.849091 
	C300.760193,399.782898 296.540314,393.858887 297.133820,382.784180 
	C297.670197,372.775452 299.215118,362.808929 300.576416,352.859528 
	C301.931824,342.952911 304.033997,333.098450 301.707489,322.842224 
	C302.463470,322.229950 303.176788,321.553833 303.982086,321.015350 
	C311.612274,315.913605 318.201111,310.067627 319.773651,300.351074 
	C326.065735,303.888153 332.015137,308.410461 338.725616,310.744751 
	C350.492126,314.837769 362.611084,313.333435 373.859528,308.416382 
	C386.420227,302.925690 395.042267,293.699432 390.911987,277.636597 
	C389.080658,270.514496 386.408478,263.591980 383.849640,256.678192 
	C381.255219,249.668365 378.319061,242.556488 380.585144,235.095200 
	C384.176514,223.270233 394.557129,219.441849 405.692108,216.056732 
	C406.457306,216.374146 407.269226,216.610535 407.980927,217.020798 
	C428.105621,228.621674 448.236053,240.212830 468.319061,251.885605 
	C471.266113,253.598511 474.031006,254.346115 477.702728,251.997406 
	C486.433990,248.829407 488.282867,242.363876 488.174042,233.594604 
	C487.752411,199.614990 488.022949,165.626999 487.987823,131.642166 
	C487.979980,124.061577 484.563446,118.315872 478.020935,114.524887 
	C466.326874,107.748863 454.574341,101.073814 442.873718,94.309021 
	C426.612915,84.907715 410.390533,75.439934 394.127441,66.042587 
	C378.003784,56.725807 361.841949,47.475037 345.713165,38.167068 
	C338.726807,34.135204 331.768158,30.054955 324.821198,25.955492 
	C318.167816,22.029276 313.830536,27.026655 308.322144,30.337336 
	C307.215363,33.507858 305.166534,36.672333 305.146149,39.849827 
	C304.918579,75.314117 304.945984,110.780602 305.054596,146.246033 
	C305.076202,153.301086 308.024933,159.338089 314.160278,162.989456 
	C327.694336,171.044113 341.465424,178.699722 355.111237,186.567764 
	C369.763153,195.015930 384.382324,203.520889 398.645050,212.619263 
	C393.747986,215.261902 388.558014,217.483063 384.017426,220.638626 
	C375.650818,226.453094 372.540314,234.848404 375.056183,244.675385 
	C377.700165,255.002655 381.005096,265.165833 384.186127,275.349213 
	C388.377563,288.767517 383.529510,297.371643 372.003540,303.466522 
	C357.836548,310.957947 344.074463,309.177094 330.745056,300.958344 
	C327.270996,298.816223 323.612549,296.973175 319.970154,294.131287 
	C319.910156,292.407684 319.850159,290.684082 319.917877,288.317871 
	C319.874939,287.885345 319.832001,287.452820 319.956085,286.509644 
	C319.909088,286.336853 319.862091,286.164032 319.969177,285.111969 
	C319.783997,282.695923 319.670197,280.271881 319.400452,277.865295 
	C318.520569,270.014709 312.731812,265.329254 307.982971,259.134521 
	C307.935028,238.757217 307.887085,218.379913 307.973755,197.092377 
	C307.919678,193.694534 307.865601,190.296677 307.606903,186.152161 
	C306.794952,174.204529 298.764526,167.589996 289.134186,163.155838 
	C273.915955,156.148865 257.553802,154.922211 241.318726,158.182205 
	C225.227905,161.413208 209.573837,166.306503 206.024933,186.940445 
	C206.070374,190.612534 206.115799,194.284622 206.016418,198.894806 
z"/>
<path fill="#7BB1FF" opacity="1.000000" stroke="none" 
	d="
M11.185961,368.868195 
	C17.985828,364.604858 24.682737,360.165619 31.606173,356.113403 
	C47.958813,346.542358 64.419106,337.155273 80.836922,327.695648 
	C81.259369,327.452209 81.772614,327.312134 82.112022,326.986694 
	C90.874260,318.585754 98.366974,323.985321 106.361359,328.753693 
	C126.101128,340.527832 146.076920,351.906311 165.962021,363.436584 
	C166.522156,363.761353 167.129745,364.004303 167.680023,364.873840 
	C166.702820,366.140045 165.810913,366.904480 164.811203,367.482483 
	C149.178146,376.521118 133.546906,385.563110 117.881927,394.546265 
	C107.547516,400.472626 97.160042,406.306427 86.458549,412.093018 
	C78.512154,407.622040 70.904549,403.238007 63.294697,398.857819 
	C45.925686,388.860321 28.555611,378.864624 11.185961,368.868195 
z"/>
<path fill="#7BB1FF" opacity="1.000000" stroke="none" 
	d="
M345.926331,364.903259 
	C364.069794,354.346161 382.208466,343.780762 400.359406,333.236542 
	C406.507385,329.665070 412.625092,326.031647 418.900604,322.697479 
	C420.231415,321.990448 422.574219,321.793518 423.801758,322.495850 
	C442.324280,333.094177 460.734924,343.887848 479.179291,354.622864 
	C486.988861,359.168121 494.815887,363.683411 502.390076,368.628845 
	C490.971252,375.548859 479.823151,382.097382 468.616638,388.544403 
	C454.831604,396.474792 440.997864,404.320496 426.859100,412.026703 
	C409.297363,401.980438 392.022888,392.177246 374.841187,382.214081 
	C365.124207,376.579498 355.559570,370.682220 345.926331,364.903259 
z"/>
<path fill="#3A53D0" opacity="1.000000" stroke="none" 
	d="
M11.111343,369.341858 
	C28.555611,378.864624 45.925686,388.860321 63.294697,398.857819 
	C70.904549,403.238007 78.512154,407.622040 86.519409,412.541199 
	C86.944695,438.440552 86.971344,463.803101 86.997986,489.165619 
	C80.311356,485.435425 73.568161,481.802582 66.949036,477.956207 
	C49.275921,467.686310 31.706446,457.236511 13.956788,447.101624 
	C11.503772,445.700989 10.944778,444.303772 10.954224,441.777771 
	C11.043923,417.790588 11.024650,393.802979 11.111343,369.341858 
z"/>
<path fill="#3A53D0" opacity="1.000000" stroke="none" 
	d="
M427.185181,412.202820 
	C440.997864,404.320496 454.831604,396.474792 468.616638,388.544403 
	C479.823151,382.097382 490.971252,375.548859 502.479675,368.956573 
	C502.875336,393.639099 502.963287,418.410400 502.910980,443.181427 
	C502.908600,444.300415 501.911133,445.882507 500.917480,446.465576 
	C480.227966,458.606720 459.473389,470.637115 438.727448,482.682098 
	C435.066467,484.807648 431.386780,486.900909 427.346008,488.604187 
	C427.045959,462.867126 427.115570,437.534973 427.185181,412.202820 
z"/>
<path fill="#282F3C" opacity="1.000000" stroke="none" 
	d="
M205.145996,29.985907 
	C206.095673,32.275585 207.852753,34.558849 207.871002,36.855923 
	C208.069244,61.815079 207.914093,86.776810 208.040436,111.736893 
	C208.082321,120.012077 208.289642,128.319305 209.067764,136.550781 
	C210.514954,151.860550 203.995575,161.295654 190.414124,168.605515 
	C162.708862,183.517151 135.808456,199.924240 108.578957,215.719543 
	C106.441994,216.959152 104.324234,218.231842 101.664345,219.780640 
	C98.153191,221.652695 95.175240,223.233261 92.197296,224.813843 
	C79.473511,232.203293 66.761307,239.612808 54.018280,246.968933 
	C50.577702,248.955078 47.185806,251.165604 43.495701,252.523438 
	C41.495716,253.259369 38.914436,252.415558 36.312790,251.699554 
	C35.709663,248.486450 35.116154,245.858795 35.109833,243.229752 
	C35.025455,208.111771 35.027142,172.993622 34.997494,137.875504 
	C34.990856,130.010971 38.607025,124.026237 45.126019,120.093407 
	C56.224255,113.397957 67.575615,107.122871 78.801788,100.638557 
	C116.941422,78.608841 155.045364,56.516983 193.251648,34.603561 
	C196.899307,32.511429 201.166443,31.499376 205.145996,29.985907 
M41.893063,146.164948 
	C41.963413,154.820572 42.033764,163.476181 41.982056,172.832031 
	C42.005806,173.538483 42.029556,174.244919 42.009575,175.893173 
	C42.025269,181.939911 42.040962,187.986664 41.954769,194.713715 
	C41.963009,195.172363 41.971252,195.630997 41.954872,197.010956 
	C41.992847,201.687744 42.030823,206.364532 41.976219,211.731140 
	C41.981968,212.195526 41.987717,212.659927 41.956131,214.045532 
	C41.956131,224.214600 41.956131,234.383667 41.956131,245.424881 
	C46.239178,243.084488 49.318401,241.485306 52.318798,239.749863 
	C98.357788,213.120300 144.213760,186.165710 190.571793,160.104004 
	C199.245712,155.227661 202.766296,150.010086 201.083771,139.984344 
	C201.088776,139.249207 201.093781,138.514069 201.094559,136.869385 
	C201.059433,128.241241 201.024307,119.613106 201.151184,110.508804 
	C201.081039,109.713913 201.010895,108.919014 201.004181,107.173409 
	C200.928802,101.334351 200.853409,95.495293 201.000168,88.983597 
	C201.012802,88.285248 201.025436,87.586899 201.064835,85.966980 
	C200.936295,81.524475 200.807755,77.081970 200.891052,71.982849 
	C200.937393,71.295212 200.983734,70.607582 201.057419,68.992874 
	C201.057419,58.941753 201.057419,48.890633 201.057419,38.107239 
	C198.640564,39.266975 197.122330,39.882214 195.713959,40.689175 
	C184.168488,47.304493 172.635239,53.941250 161.113754,60.598305 
	C125.397995,81.234711 89.723923,101.943611 53.957886,122.492485 
	C42.034008,129.343170 41.929466,129.161209 41.835030,143.717377 
	C41.853001,144.231598 41.870972,144.745819 41.893063,146.164948 
z"/>
<path fill="#282F3B" opacity="1.000000" stroke="none" 
	d="
M399.015778,212.001038 
	C384.382324,203.520889 369.763153,195.015930 355.111237,186.567764 
	C341.465424,178.699722 327.694336,171.044113 314.160278,162.989456 
	C308.024933,159.338089 305.076202,153.301086 305.054596,146.246033 
	C304.945984,110.780602 304.918579,75.314117 305.146149,39.849827 
	C305.166534,36.672333 307.215363,33.507858 309.034729,30.178009 
	C316.100494,33.146713 322.650543,35.932556 328.775513,39.457191 
	C375.452911,66.317978 422.045227,93.326660 468.670349,120.278328 
	C474.230988,123.492668 477.715027,128.119858 478.037720,134.631516 
	C478.281952,139.560425 478.086517,144.511230 478.083740,149.452286 
	C478.066254,180.743088 478.075134,212.033966 477.985474,243.324570 
	C477.976990,246.277603 477.347473,249.228867 477.006256,252.180954 
	C474.031006,254.346115 471.266113,253.598511 468.319061,251.885605 
	C448.236053,240.212830 428.105621,228.621674 407.980927,217.020798 
	C407.269226,216.610535 406.457306,216.374146 405.295898,215.673676 
	C402.938416,214.194092 400.977112,213.097565 399.015778,212.001038 
M470.888184,129.076355 
	C418.555420,98.787331 366.222656,68.498306 313.889893,38.209290 
	C313.293518,38.450275 312.697113,38.691265 312.100739,38.932251 
	C312.100739,51.843651 312.105286,64.755043 312.099762,77.666443 
	C312.089569,101.480568 312.120422,125.294937 312.000824,149.108536 
	C311.985748,152.116898 312.829071,153.900406 315.555481,155.450043 
	C331.894775,164.737045 348.105072,174.250687 364.378387,183.654068 
	C395.773346,201.795349 427.177582,219.920563 458.588898,238.033478 
	C462.680267,240.392715 466.836182,242.640091 471.525970,245.253433 
	C471.713226,243.020050 471.913666,241.736008 471.915009,240.451767 
	C471.952637,204.813858 471.975433,169.175934 471.969116,133.538010 
	C471.968903,132.235123 471.650146,130.932297 470.888184,129.076355 
z"/>
<path fill="#5994FB" opacity="1.000000" stroke="none" 
	d="
M426.859100,412.026703 
	C427.115570,437.534973 427.045959,462.867126 426.988739,488.682831 
	C421.261505,486.201904 415.406403,483.439209 409.805115,480.233032 
	C396.004730,472.333496 382.339691,464.198029 368.582642,456.222229 
	C361.426514,452.073334 354.122375,448.174042 347.059692,443.875214 
	C345.908356,443.174377 345.130493,440.995453 345.091827,439.476471 
	C344.892670,431.651978 344.990814,423.819885 345.058441,415.206421 
	C345.057983,412.942413 344.984253,411.462463 344.910522,409.982483 
	C345.006073,395.116547 345.101624,380.250641 345.561737,365.143982 
	C355.559570,370.682220 365.124207,376.579498 374.841187,382.214081 
	C392.022888,392.177246 409.297363,401.980438 426.859100,412.026703 
M412.380310,438.184204 
	C414.340393,439.219788 416.300507,440.255371 419.003845,441.683655 
	C419.003845,436.531219 418.770508,432.381195 419.077057,428.271423 
	C419.326263,424.930420 417.977753,423.228851 415.152008,421.654510 
	C404.113068,415.504333 393.225037,409.083496 382.273804,402.775665 
	C373.102753,397.493164 363.921753,392.227905 353.860687,386.446838 
	C353.860687,391.657745 354.081696,395.923340 353.789612,400.153473 
	C353.562561,403.441437 354.786774,405.196991 357.627716,406.804443 
	C375.719635,417.041412 393.699768,427.475983 412.380310,438.184204 
M367.242126,438.237732 
	C384.256226,448.063110 401.270325,457.888489 418.953979,468.100525 
	C418.953979,463.119171 418.667572,459.275665 419.031830,455.494812 
	C419.422028,451.444397 417.817413,449.265228 414.340057,447.301422 
	C396.397552,437.168671 378.602325,426.775238 360.751678,416.479706 
	C358.678925,415.284210 356.581207,414.131927 354.336914,412.870697 
	C354.068146,413.946136 353.933533,414.264191 353.915466,414.588684 
	C353.049316,430.148529 353.050446,430.148590 367.242126,438.237732 
z"/>
<path fill="#5994FB" opacity="1.000000" stroke="none" 
	d="
M87.176788,489.420624 
	C86.971344,463.803101 86.944695,438.440552 86.857185,412.629852 
	C97.160042,406.306427 107.547516,400.472626 117.881927,394.546265 
	C133.546906,385.563110 149.178146,376.521118 164.811203,367.482483 
	C165.810913,366.904480 166.702820,366.140045 167.847656,365.186462 
	C168.366211,366.417938 168.947479,367.923737 168.956161,369.432800 
	C169.032135,382.637299 169.005829,395.842407 168.818176,409.758575 
	C168.791321,412.003113 168.956177,413.536407 169.121033,415.069702 
	C169.080048,422.885254 168.872482,430.705200 169.078445,438.514252 
	C169.163177,441.727417 168.192047,443.411743 165.311905,445.045929 
	C147.146698,455.353210 129.155655,465.966766 111.061020,476.399323 
	C103.215637,480.922638 95.260742,485.255981 87.176788,489.420624 
M160.154373,416.944244 
	C160.002899,415.748535 159.851410,414.552826 159.633728,412.834564 
	C138.473236,425.037872 117.852814,436.896454 97.303093,448.876343 
	C96.246277,449.492462 95.221352,451.119629 95.162529,452.324005 
	C94.921829,457.251007 95.062096,462.196655 95.062096,467.919525 
	C97.610382,466.562469 99.500549,465.624878 101.325104,464.573486 
	C117.336288,455.346832 133.032135,445.506378 149.462402,437.100739 
	C158.126205,432.668365 162.132675,427.353912 160.154373,416.944244 
M159.668503,404.473846 
	C159.668503,398.787109 159.668503,393.100342 159.668503,387.380402 
	C159.107178,387.437225 158.735992,387.370972 158.485596,387.514923 
	C138.035934,399.271301 117.588585,411.031799 97.178795,422.857147 
	C96.285583,423.374695 95.164520,424.476501 95.132515,425.342499 
	C94.940872,430.527802 95.037537,435.723755 95.037537,442.090973 
	C117.155449,429.267639 138.092606,417.128876 159.668503,404.473846 
z"/>
<path fill="#4B5570" opacity="1.000000" stroke="none" 
	d="
M477.354492,252.089172 
	C477.347473,249.228867 477.976990,246.277603 477.985474,243.324570 
	C478.075134,212.033966 478.066254,180.743088 478.083740,149.452286 
	C478.086517,144.511230 478.281952,139.560425 478.037720,134.631516 
	C477.715027,128.119858 474.230988,123.492668 468.670349,120.278328 
	C422.045227,93.326660 375.452911,66.317978 328.775513,39.457191 
	C322.650543,35.932556 316.100494,33.146713 309.352570,30.008387 
	C313.830536,27.026655 318.167816,22.029276 324.821198,25.955492 
	C331.768158,30.054955 338.726807,34.135204 345.713165,38.167068 
	C361.841949,47.475037 378.003784,56.725807 394.127441,66.042587 
	C410.390533,75.439934 426.612915,84.907715 442.873718,94.309021 
	C454.574341,101.073814 466.326874,107.748863 478.020935,114.524887 
	C484.563446,118.315872 487.979980,124.061577 487.987823,131.642166 
	C488.022949,165.626999 487.752411,199.614990 488.174042,233.594604 
	C488.282867,242.363876 486.433990,248.829407 477.354492,252.089172 
z"/>
<path fill="#4C5671" opacity="1.000000" stroke="none" 
	d="
M204.986465,29.663208 
	C201.166443,31.499376 196.899307,32.511429 193.251648,34.603561 
	C155.045364,56.516983 116.941422,78.608841 78.801788,100.638557 
	C67.575615,107.122871 56.224255,113.397957 45.126019,120.093407 
	C38.607025,124.026237 34.990856,130.010971 34.997494,137.875504 
	C35.027142,172.993622 35.025455,208.111771 35.109833,243.229752 
	C35.116154,245.858795 35.709663,248.486450 35.999641,251.538589 
	C28.581953,249.071381 25.583925,244.382233 25.746082,235.773987 
	C26.369875,202.659592 26.450735,169.517014 25.759571,136.405304 
	C25.510279,124.462379 30.158409,117.380692 40.137203,111.830070 
	C62.016281,99.660019 83.563896,86.893669 105.236008,74.352051 
	C132.455307,58.600281 159.679199,42.856281 186.861969,27.041649 
	C191.488297,24.350105 195.854019,23.341623 200.429123,27.094591 
	C201.672516,28.114538 203.349136,28.606323 204.986465,29.663208 
z"/>
<path fill="#D3DBEA" opacity="1.000000" stroke="none" 
	d="
M319.789032,287.020294 
	C319.832001,287.452820 319.874939,287.885345 319.528778,288.717041 
	C314.055969,297.652527 307.841370,305.134735 298.506866,309.186371 
	C276.475372,318.749084 253.923096,320.787872 230.505569,314.420685 
	C215.135040,310.241547 202.155182,303.502686 195.100296,288.345428 
	C194.998428,288.126587 194.513672,288.086029 194.207611,287.962250 
	C192.899490,276.641693 196.705536,267.505096 206.216858,260.358154 
	C206.565262,260.060211 206.961395,260.128387 206.974396,260.584381 
	C206.992020,265.705048 207.337143,270.399475 206.932068,275.028320 
	C206.019394,285.457581 211.107330,292.768463 219.204300,297.978638 
	C233.669662,307.286621 249.895035,309.255554 266.654938,307.549774 
	C276.667725,306.530731 286.330261,303.984833 294.724274,298.116608 
	C302.625641,292.592743 307.941284,285.619904 307.072845,275.171204 
	C306.660431,270.209442 307.036255,265.182129 307.248840,260.152496 
	C307.442719,260.120483 307.833191,260.076111 307.833191,260.076111 
	C312.731812,265.329254 318.520569,270.014709 319.400452,277.865295 
	C319.670197,280.271881 319.783997,282.695923 319.757324,285.651428 
	C319.501953,286.293365 319.395172,286.425903 319.426880,286.492493 
	C319.517456,286.682770 319.664307,286.846252 319.789032,287.020294 
z"/>
<path fill="#B4BED7" opacity="1.000000" stroke="none" 
	d="
M194.114502,288.420288 
	C194.513672,288.086029 194.998428,288.126587 195.100296,288.345428 
	C202.155182,303.502686 215.135040,310.241547 230.505569,314.420685 
	C253.923096,320.787872 276.475372,318.749084 298.506866,309.186371 
	C307.841370,305.134735 314.055969,297.652527 319.464905,289.038330 
	C319.850159,290.684082 319.910156,292.407684 319.763550,294.849915 
	C319.419586,297.085144 319.282257,298.601746 319.144897,300.118378 
	C318.201111,310.067627 311.612274,315.913605 303.982086,321.015350 
	C303.176788,321.553833 302.463470,322.229950 301.055908,322.931335 
	C299.244934,323.821320 298.085541,324.622223 296.926147,325.423096 
	C288.183350,327.618103 279.545349,330.615875 270.667328,331.774902 
	C262.333252,332.862946 253.680618,332.655457 245.288452,331.815796 
	C237.659012,331.052429 230.181412,328.714844 222.661423,326.965698 
	C221.290146,326.646759 220.036850,325.820648 218.151947,324.892487 
	C216.108185,323.987610 214.641556,323.418884 213.174942,322.850159 
	C208.176666,318.471069 203.178406,314.092010 198.018158,309.063507 
	C196.906982,306.940796 195.957779,305.467529 195.008560,303.994232 
	C194.679504,298.955597 194.350449,293.916962 194.114502,288.420288 
z"/>
<path fill="#FFDC92" opacity="1.000000" stroke="none" 
	d="
M206.151718,186.036942 
	C209.573837,166.306503 225.227905,161.413208 241.318726,158.182205 
	C257.553802,154.922211 273.915955,156.148865 289.134186,163.155838 
	C298.764526,167.589996 306.794952,174.204529 307.473755,186.802521 
	C304.855225,199.616043 296.054108,205.732773 285.485657,209.981735 
	C271.213074,215.719971 256.295197,216.762802 241.446045,213.667068 
	C225.436752,210.329483 210.593964,204.576965 206.151718,186.036942 
M291.597717,197.056732 
	C293.040344,194.863480 295.009216,192.849045 295.826660,190.443375 
	C298.261444,183.277832 294.224854,175.314484 286.220276,170.625381 
	C275.362366,164.264816 263.472290,162.117859 251.178970,163.266876 
	C240.695801,164.246704 230.484329,166.750748 222.653137,174.739746 
	C215.760223,181.771576 215.722961,190.135788 222.552994,197.171173 
	C229.941177,204.781509 239.541428,207.540131 249.546555,208.550583 
	C264.633850,210.074265 279.129761,208.365524 291.597717,197.056732 
z"/>
<path fill="#EFA145" opacity="1.000000" stroke="none" 
	d="
M206.088318,186.488693 
	C210.593964,204.576965 225.436752,210.329483 241.446045,213.667068 
	C256.295197,216.762802 271.213074,215.719971 285.485657,209.981735 
	C296.054108,205.732773 304.855225,199.616043 307.576080,187.175858 
	C307.865601,190.296677 307.919678,193.694534 307.636322,197.795074 
	C306.892426,200.670425 306.485931,202.843094 305.801331,205.207489 
	C300.784180,209.902496 296.727966,215.664551 291.178925,218.674332 
	C274.159668,227.905533 255.876114,229.016556 237.179733,224.265839 
	C224.363403,221.009262 213.179718,215.511581 207.145584,202.406281 
	C206.801605,200.679932 206.481415,199.318329 206.161224,197.956711 
	C206.115799,194.284622 206.070374,190.612534 206.088318,186.488693 
z"/>
<path fill="#4D5771" opacity="1.000000" stroke="none" 
	d="
M319.459290,300.234741 
	C319.282257,298.601746 319.419586,297.085144 319.797852,295.280640 
	C323.612549,296.973175 327.270996,298.816223 330.745056,300.958344 
	C344.074463,309.177094 357.836548,310.957947 372.003540,303.466522 
	C383.529510,297.371643 388.377563,288.767517 384.186127,275.349213 
	C381.005096,265.165833 377.700165,255.002655 375.056183,244.675385 
	C372.540314,234.848404 375.650818,226.453094 384.017426,220.638626 
	C388.558014,217.483063 393.747986,215.261902 398.830414,212.310150 
	C400.977112,213.097565 402.938416,214.194092 404.937988,215.628113 
	C394.557129,219.441849 384.176514,223.270233 380.585144,235.095200 
	C378.319061,242.556488 381.255219,249.668365 383.849640,256.678192 
	C386.408478,263.591980 389.080658,270.514496 390.911987,277.636597 
	C395.042267,293.699432 386.420227,302.925690 373.859528,308.416382 
	C362.611084,313.333435 350.492126,314.837769 338.725616,310.744751 
	C332.015137,308.410461 326.065735,303.888153 319.459290,300.234741 
z"/>
<path fill="#4D5771" opacity="1.000000" stroke="none" 
	d="
M194.544067,303.997131 
	C195.957779,305.467529 196.906982,306.940796 197.858368,308.757324 
	C189.535217,308.193695 180.966156,308.234222 172.938919,306.168823 
	C159.210571,302.636627 151.566315,292.378082 146.938522,279.404327 
	C141.040207,262.868713 132.301407,247.880478 120.355240,235.012253 
	C113.145737,227.246277 103.601265,224.411865 92.633591,224.871979 
	C95.175240,223.233261 98.153191,221.652695 101.490494,220.090179 
	C107.471458,222.193039 113.501396,223.569153 118.623741,226.520462 
	C127.401306,231.577820 132.987793,240.149612 137.943573,248.569672 
	C144.012039,258.880249 149.385223,269.752319 153.691193,280.909515 
	C159.112381,294.956360 172.820816,303.382690 187.083466,303.988007 
	C189.411469,304.086823 191.747345,304.000671 194.544067,303.997131 
z"/>
<path fill="#4C5671" opacity="1.000000" stroke="none" 
	d="
M213.088638,323.260620 
	C214.641556,323.418884 216.108185,323.987610 217.790588,324.820801 
	C214.622925,333.848938 216.580505,342.643585 218.305756,351.275757 
	C220.774918,363.629974 222.613281,375.977753 222.016083,388.619049 
	C221.603012,397.362976 215.780655,404.634277 204.575836,407.817871 
	C194.839172,410.584320 184.716766,411.992889 174.765427,414.004364 
	C173.157852,414.329346 171.553284,414.669067 169.534180,415.035828 
	C168.956177,413.536407 168.791321,412.003113 168.857483,410.224487 
	C178.462784,408.315552 187.912704,406.986877 197.189560,404.891937 
	C206.049103,402.891205 214.886139,399.851257 216.631256,389.266998 
	C217.565979,383.597839 217.460129,377.569519 216.708771,371.849762 
	C215.232773,360.613586 212.555115,349.528870 211.245514,338.280121 
	C210.693985,333.542816 212.349884,328.548553 213.088638,323.260620 
z"/>
<path fill="#4D5771" opacity="1.000000" stroke="none" 
	d="
M296.940979,325.896973 
	C298.085541,324.622223 299.244934,323.821320 300.740417,323.077759 
	C304.033997,333.098450 301.931824,342.952911 300.576416,352.859528 
	C299.215118,362.808929 297.670197,372.775452 297.133820,382.784180 
	C296.540314,393.858887 300.760193,399.782898 311.444763,402.849091 
	C320.710693,405.508179 330.310303,407.004150 339.761322,409.019318 
	C341.203339,409.326752 342.639526,409.661499 344.494476,409.983032 
	C344.984253,411.462463 345.057983,412.942413 345.003540,414.744873 
	C337.721863,414.042511 330.376709,413.713531 323.464996,411.810455 
	C315.453766,409.604706 307.549072,406.564087 300.118164,402.846375 
	C294.598755,400.084991 292.122864,394.739258 291.893951,388.135498 
	C291.390839,373.622711 294.481659,359.606201 296.594696,345.417084 
	C297.522247,339.188538 296.883423,332.726715 296.940979,325.896973 
z"/>
<path fill="#FF99CC" opacity="1.000000" stroke="none" 
	d="
M306.079468,205.015762 
	C306.485931,202.843094 306.892426,200.670425 307.569031,198.250183 
	C307.887085,218.379913 307.935028,238.757217 307.908081,259.605316 
	C307.833191,260.076111 307.442719,260.120483 307.232666,260.078491 
	C307.022644,260.036530 306.982635,259.890411 306.988464,259.432922 
	C306.996185,242.898682 307.028748,226.821793 306.959412,210.745346 
	C306.951141,208.834259 306.386322,206.925568 306.079468,205.015762 
z"/>
<path fill="#FF99CC" opacity="1.000000" stroke="none" 
	d="
M206.088821,198.425751 
	C206.481415,199.318329 206.801605,200.679932 207.093262,202.894180 
	C207.050278,222.449265 207.035843,241.151733 207.003387,259.922058 
	C206.985382,259.989960 206.961395,260.128387 206.961395,260.128387 
	C206.961395,260.128387 206.565262,260.060211 206.365845,260.035217 
	C206.116425,239.638412 206.066422,219.266617 206.088821,198.425751 
z"/>
<path fill="#B4BED7" opacity="1.000000" stroke="none" 
	d="
M319.872559,286.764954 
	C319.664307,286.846252 319.517456,286.682770 319.426880,286.492493 
	C319.395172,286.425903 319.501953,286.293365 319.680298,286.091064 
	C319.862091,286.164032 319.909088,286.336853 319.872559,286.764954 
z"/>
<path fill="#4D5771" opacity="1.000000" stroke="none" 
	d="
M41.975121,142.958313 
	C41.929466,129.161209 42.034008,129.343170 53.957886,122.492485 
	C89.723923,101.943611 125.397995,81.234711 161.113754,60.598305 
	C172.635239,53.941250 184.168488,47.304493 195.713959,40.689175 
	C197.122330,39.882214 198.640564,39.266975 201.057419,38.107239 
	C201.057419,48.890633 201.057419,58.941753 200.681015,69.485748 
	C191.626907,74.916222 182.964432,79.880836 174.265335,84.780441 
	C169.694153,87.355072 161.970840,84.851753 161.100693,80.733253 
	C160.796448,79.293190 159.854431,76.961334 159.024857,76.880905 
	C157.484909,76.731606 155.233994,77.494225 154.326126,78.679268 
	C152.778656,80.699181 151.739273,83.262054 151.101852,85.754204 
	C150.824173,86.839813 151.752121,88.729874 152.727859,89.474358 
	C153.437851,90.016075 155.655533,89.745773 156.284149,89.031075 
	C159.192108,85.724892 162.335968,86.893135 165.377869,88.295738 
	C168.745880,89.848701 171.427856,89.328232 174.618988,87.392441 
	C183.149704,82.217575 191.972488,77.524185 200.679199,72.639465 
	C200.807755,77.081970 200.936295,81.524475 200.692841,86.471680 
	C191.150528,92.480911 180.596603,96.153152 174.989777,106.382965 
	C174.498032,107.280167 172.827209,107.576210 171.663345,108.051872 
	C167.343628,109.817276 165.122635,113.119308 164.996277,117.669022 
	C164.899689,121.146004 167.784622,122.934044 170.181046,120.622223 
	C172.509201,118.376289 173.761795,114.969139 175.310226,111.980476 
	C176.102051,110.452179 176.290909,108.603378 177.123047,107.105392 
	C182.341446,97.711266 192.272217,94.638275 200.778030,89.656235 
	C200.853409,95.495293 200.928802,101.334351 200.669113,107.796150 
	C180.276428,119.979416 160.225616,131.551804 140.144241,143.070953 
	C138.941330,143.760971 136.850128,144.822083 136.270065,144.352997 
	C133.439194,142.063766 131.096252,142.938873 129.369537,145.274414 
	C127.854134,147.324127 126.773476,149.843414 126.129524,152.318848 
	C125.858803,153.359543 126.906227,155.434494 127.900993,155.920456 
	C128.915695,156.416138 130.939285,155.955124 131.914734,155.164612 
	C133.405411,153.956558 134.338425,152.076187 135.577255,150.536819 
	C136.680984,149.165344 137.629913,147.440842 139.071930,146.604462 
	C159.668686,134.658310 180.337616,122.836639 200.989166,110.984970 
	C201.024307,119.613106 201.059433,128.241241 200.739899,137.418808 
	C192.589035,142.431091 185.020126,147.389923 176.887024,151.117752 
	C173.536453,152.653488 168.922104,151.934082 164.987595,151.426498 
	C163.574677,151.244202 162.676407,148.389755 161.159531,147.278732 
	C159.948196,146.391479 157.131683,145.523743 156.786575,145.979431 
	C154.596512,148.871231 152.226868,151.941132 151.250458,155.335999 
	C150.504852,157.928375 153.477219,160.303040 155.617172,158.235535 
	C160.573669,153.446838 165.863220,155.071457 171.397217,155.761368 
	C173.010300,155.962463 174.937439,155.130753 176.462967,154.299545 
	C184.637497,149.845627 192.730591,145.242218 200.851822,140.690460 
	C202.766296,150.010086 199.245712,155.227661 190.571793,160.104004 
	C144.213760,186.165710 98.357788,213.120300 52.318798,239.749863 
	C49.318401,241.485306 46.239178,243.084488 41.956131,245.424881 
	C41.956131,234.383667 41.956131,224.214600 42.344208,213.628693 
	C50.241264,208.957367 58.038307,205.129532 65.169113,200.314957 
	C70.994537,196.381729 76.102699,196.680801 80.439774,199.458405 
	C82.050735,202.556885 83.101280,204.577484 84.151833,206.598083 
	C86.434128,204.941299 88.869896,203.450150 90.923874,201.546982 
	C91.756584,200.775421 92.150925,199.068741 92.036186,197.854538 
	C91.895332,196.364014 91.379021,194.469070 90.325180,193.655731 
	C89.593681,193.091202 87.094872,193.578384 86.403175,194.425995 
	C84.054573,197.304001 81.589005,196.691208 78.992378,195.289398 
	C74.894440,193.077042 71.392639,193.840393 67.487602,196.282303 
	C59.184872,201.474167 50.561024,206.152496 42.068802,211.041321 
	C42.030823,206.364532 41.992847,201.687744 42.337387,196.560669 
	C43.628120,195.715118 44.512699,195.249527 45.448128,194.935287 
	C57.627663,190.843628 64.449219,179.638687 74.559196,172.743713 
	C76.709206,171.277420 76.801529,166.702499 77.574226,163.495300 
	C77.631271,163.258560 74.809891,161.797470 74.517181,162.091354 
	C72.185326,164.432526 68.852936,166.792938 68.259422,169.652267 
	C66.708878,177.122177 62.460392,182.071869 56.335518,185.818665 
	C51.653080,188.683090 46.821754,191.304108 42.056656,194.033401 
	C42.040962,187.986664 42.025269,181.939911 42.372307,175.365341 
	C62.604851,163.367569 82.466484,151.883377 102.358002,140.451202 
	C104.208740,139.387527 105.746475,137.919235 108.581581,139.467560 
	C109.826454,140.147415 113.716797,138.143311 114.823494,136.370178 
	C116.211594,134.146194 115.974464,130.907837 116.438774,128.107269 
	C114.937042,127.913116 113.019501,127.052681 112.025894,127.672737 
	C110.309013,128.744186 109.143005,130.715881 107.789207,132.345871 
	C106.762177,133.582428 106.064362,135.326401 104.773682,136.074997 
	C83.926109,148.166840 63.007004,160.135345 42.104111,172.131805 
	C42.033764,163.476181 41.963413,154.820572 42.268517,145.677231 
	C48.287365,142.020355 54.201206,139.243286 59.506554,135.584015 
	C66.326683,130.879929 73.280334,129.385925 80.156181,132.128448 
	C81.774246,134.387863 83.496445,137.727707 84.145744,137.530762 
	C86.446922,136.832672 88.463417,135.026154 90.411491,133.425156 
	C91.104584,132.855545 91.700630,131.641235 91.631966,130.777603 
	C91.474274,128.794434 90.880783,126.845909 90.464195,124.883324 
	C88.683662,125.383247 86.276405,125.333885 85.255081,126.499207 
	C83.225372,128.815109 81.187927,128.868393 78.615128,128.209671 
	C72.319962,126.597878 66.798485,127.981079 61.349598,131.676987 
	C55.179478,135.862076 48.457279,139.233246 41.975121,142.958313 
z"/>
<path fill="#76A7F0" opacity="1.000000" stroke="none" 
	d="
M201.070175,110.746887 
	C180.337616,122.836639 159.668686,134.658310 139.071930,146.604462 
	C137.629913,147.440842 136.680984,149.165344 135.577255,150.536819 
	C134.338425,152.076187 133.405411,153.956558 131.914734,155.164612 
	C130.939285,155.955124 128.915695,156.416138 127.900993,155.920456 
	C126.906227,155.434494 125.858803,153.359543 126.129524,152.318848 
	C126.773476,149.843414 127.854134,147.324127 129.369537,145.274414 
	C131.096252,142.938873 133.439194,142.063766 136.270065,144.352997 
	C136.850128,144.822083 138.941330,143.760971 140.144241,143.070953 
	C160.225616,131.551804 180.276428,119.979416 200.637390,108.271507 
	C201.010895,108.919014 201.081039,109.713913 201.070175,110.746887 
M132.456284,151.876602 
	C132.803711,151.325409 133.387436,150.799362 133.449356,150.217773 
	C133.578110,149.008316 133.430389,147.769409 133.396301,146.542603 
	C132.384521,146.736557 130.859512,146.592575 130.464447,147.192581 
	C129.553696,148.575836 129.191696,150.320404 128.607056,151.918365 
	C129.708618,152.079041 130.810165,152.239700 132.456284,151.876602 
z"/>
<path fill="#DC5C71" opacity="1.000000" stroke="none" 
	d="
M42.043083,172.481903 
	C63.007004,160.135345 83.926109,148.166840 104.773682,136.074997 
	C106.064362,135.326401 106.762177,133.582428 107.789207,132.345871 
	C109.143005,130.715881 110.309013,128.744186 112.025894,127.672737 
	C113.019501,127.052681 114.937042,127.913116 116.438774,128.107269 
	C115.974464,130.907837 116.211594,134.146194 114.823494,136.370178 
	C113.716797,138.143311 109.826454,140.147415 108.581581,139.467560 
	C105.746475,137.919235 104.208740,139.387527 102.358002,140.451202 
	C82.466484,151.883377 62.604851,163.367569 42.394173,174.894440 
	C42.029556,174.244919 42.005806,173.538483 42.043083,172.481903 
M109.097115,134.604385 
	C109.859222,135.341385 110.621323,136.078369 111.383430,136.815369 
	C112.449310,135.462921 113.686455,134.202087 114.485962,132.707169 
	C114.757065,132.200272 113.922890,131.102234 113.593803,130.274338 
	C112.414757,130.884995 111.170097,131.400940 110.087471,132.150803 
	C109.624893,132.471191 109.500214,133.279449 109.097115,134.604385 
z"/>
<path fill="#ECCF90" opacity="1.000000" stroke="none" 
	d="
M42.022511,211.386230 
	C50.561024,206.152496 59.184872,201.474167 67.487602,196.282303 
	C71.392639,193.840393 74.894440,193.077042 78.992378,195.289398 
	C81.589005,196.691208 84.054573,197.304001 86.403175,194.425995 
	C87.094872,193.578384 89.593681,193.091202 90.325180,193.655731 
	C91.379021,194.469070 91.895332,196.364014 92.036186,197.854538 
	C92.150925,199.068741 91.756584,200.775421 90.923874,201.546982 
	C88.869896,203.450150 86.434128,204.941299 84.151833,206.598083 
	C83.101280,204.577484 82.050735,202.556885 80.439774,199.458405 
	C76.102699,196.680801 70.994537,196.381729 65.169113,200.314957 
	C58.038307,205.129532 50.241264,208.957367 42.362877,213.168091 
	C41.987717,212.659927 41.981968,212.195526 42.022511,211.386230 
M87.106781,203.039368 
	C88.018242,201.739059 89.253090,200.539108 89.701225,199.095032 
	C89.916939,198.399933 88.649002,197.244431 88.052902,196.297394 
	C86.848083,197.523407 85.276314,198.580826 84.601242,200.050232 
	C84.287865,200.732346 85.718277,202.215576 87.106781,203.039368 
z"/>
<path fill="#DC5C71" opacity="1.000000" stroke="none" 
	d="
M200.967804,140.337402 
	C192.730591,145.242218 184.637497,149.845627 176.462967,154.299545 
	C174.937439,155.130753 173.010300,155.962463 171.397217,155.761368 
	C165.863220,155.071457 160.573669,153.446838 155.617172,158.235535 
	C153.477219,160.303040 150.504852,157.928375 151.250458,155.335999 
	C152.226868,151.941132 154.596512,148.871231 156.786575,145.979431 
	C157.131683,145.523743 159.948196,146.391479 161.159531,147.278732 
	C162.676407,148.389755 163.574677,151.244202 164.987595,151.426498 
	C168.922104,151.934082 173.536453,152.653488 176.887024,151.117752 
	C185.020126,147.389923 192.589035,142.431091 200.742020,137.873581 
	C201.093781,138.514069 201.088776,139.249207 200.967804,140.337402 
M157.341980,154.587784 
	C157.714417,154.051117 158.332916,153.546646 158.408203,152.971100 
	C158.565948,151.765335 158.437683,150.522171 158.426865,149.294357 
	C157.381821,149.391953 155.757889,149.114761 155.404694,149.660294 
	C154.493088,151.068268 154.143036,152.839828 153.568695,154.466156 
	C154.636826,154.657120 155.704956,154.848083 157.341980,154.587784 
z"/>
<path fill="#77A9F2" opacity="1.000000" stroke="none" 
	d="
M41.905075,143.337845 
	C48.457279,139.233246 55.179478,135.862076 61.349598,131.676987 
	C66.798485,127.981079 72.319962,126.597878 78.615128,128.209671 
	C81.187927,128.868393 83.225372,128.815109 85.255081,126.499207 
	C86.276405,125.333885 88.683662,125.383247 90.464195,124.883324 
	C90.880783,126.845909 91.474274,128.794434 91.631966,130.777603 
	C91.700630,131.641235 91.104584,132.855545 90.411491,133.425156 
	C88.463417,135.026154 86.446922,136.832672 84.145744,137.530762 
	C83.496445,137.727707 81.774246,134.387863 80.156181,132.128448 
	C73.280334,129.385925 66.326683,130.879929 59.506554,135.584015 
	C54.201206,139.243286 48.287365,142.020355 42.266457,145.224777 
	C41.870972,144.745819 41.853001,144.231598 41.905075,143.337845 
M88.416298,132.906418 
	C88.632378,131.255859 88.848450,129.605316 89.064522,127.954765 
	C87.931053,128.242661 86.234352,128.176666 85.783829,128.893692 
	C84.902687,130.296036 84.717201,132.135498 84.243744,133.793991 
	C85.476608,133.684616 86.709480,133.575241 88.416298,132.906418 
z"/>
<path fill="#8FCA92" opacity="1.000000" stroke="none" 
	d="
M200.785126,72.311157 
	C191.972488,77.524185 183.149704,82.217575 174.618988,87.392441 
	C171.427856,89.328232 168.745880,89.848701 165.377869,88.295738 
	C162.335968,86.893135 159.192108,85.724892 156.284149,89.031075 
	C155.655533,89.745773 153.437851,90.016075 152.727859,89.474358 
	C151.752121,88.729874 150.824173,86.839813 151.101852,85.754204 
	C151.739273,83.262054 152.778656,80.699181 154.326126,78.679268 
	C155.233994,77.494225 157.484909,76.731606 159.024857,76.880905 
	C159.854431,76.961334 160.796448,79.293190 161.100693,80.733253 
	C161.970840,84.851753 169.694153,87.355072 174.265335,84.780441 
	C182.964432,79.880836 191.626907,74.916222 200.667343,69.949280 
	C200.983734,70.607582 200.937393,71.295212 200.785126,72.311157 
M155.330872,80.554817 
	C154.915848,81.058517 154.156006,81.558266 154.150162,82.066666 
	C154.132339,83.619301 154.404709,85.175270 154.564163,86.729942 
	C155.963333,85.524376 157.894897,84.575195 158.629578,83.049622 
	C159.590866,81.053535 158.698334,79.461220 155.330872,80.554817 
z"/>
<path fill="#ECCF90" opacity="1.000000" stroke="none" 
	d="
M200.889099,89.319916 
	C192.272217,94.638275 182.341446,97.711266 177.123047,107.105392 
	C176.290909,108.603378 176.102051,110.452179 175.310226,111.980476 
	C173.761795,114.969139 172.509201,118.376289 170.181046,120.622223 
	C167.784622,122.934044 164.899689,121.146004 164.996277,117.669022 
	C165.122635,113.119308 167.343628,109.817276 171.663345,108.051872 
	C172.827209,107.576210 174.498032,107.280167 174.989777,106.382965 
	C180.596603,96.153152 191.150528,92.480911 200.679443,86.932465 
	C201.025436,87.586899 201.012802,88.285248 200.889099,89.319916 
M172.241745,111.442886 
	C168.579239,110.988884 167.839844,113.653687 167.346924,116.294403 
	C167.255478,116.784348 168.490265,117.521858 169.112961,118.145111 
	C170.385193,116.429932 171.675568,114.727501 172.902939,112.980804 
	C173.032379,112.796570 172.791107,112.351852 172.241745,111.442886 
z"/>
<path fill="#8FCA92" opacity="1.000000" stroke="none" 
	d="
M42.005714,194.373566 
	C46.821754,191.304108 51.653080,188.683090 56.335518,185.818665 
	C62.460392,182.071869 66.708878,177.122177 68.259422,169.652267 
	C68.852936,166.792938 72.185326,164.432526 74.517181,162.091354 
	C74.809891,161.797470 77.631271,163.258560 77.574226,163.495300 
	C76.801529,166.702499 76.709206,171.277420 74.559196,172.743713 
	C64.449219,179.638687 57.627663,190.843628 45.448128,194.935287 
	C44.512699,195.249527 43.628120,195.715118 42.349701,196.100006 
	C41.971252,195.630997 41.963009,195.172363 42.005714,194.373566 
M75.739571,168.061157 
	C76.054779,164.599777 74.412720,164.016647 72.056839,166.003418 
	C70.973869,166.916718 70.681435,168.852356 70.248329,170.385925 
	C70.151451,170.728943 71.266136,171.781845 71.320305,171.746109 
	C72.736916,170.811295 74.087181,169.775940 75.739571,168.061157 
z"/>
<path fill="#4D5771" opacity="1.000000" stroke="none" 
	d="
M471.184021,129.352905 
	C471.650146,130.932297 471.968903,132.235123 471.969116,133.538010 
	C471.975433,169.175934 471.952637,204.813858 471.915009,240.451767 
	C471.913666,241.736008 471.713226,243.020050 471.525970,245.253433 
	C466.836182,242.640091 462.680267,240.392715 458.588898,238.033478 
	C427.177582,219.920563 395.773346,201.795349 364.378387,183.654068 
	C348.105072,174.250687 331.894775,164.737045 315.555481,155.450043 
	C312.829071,153.900406 311.985748,152.116898 312.000824,149.108536 
	C312.120422,125.294937 312.089569,101.480568 312.099762,77.666443 
	C312.105286,64.755043 312.100739,51.843651 312.100739,38.932251 
	C312.697113,38.691265 313.293518,38.450275 313.889893,38.209290 
	C366.222656,68.498306 418.555420,98.787331 471.184021,129.352905 
M372.988525,134.188324 
	C375.488281,147.598114 381.724884,158.584549 394.154022,165.032364 
	C403.645447,169.956192 411.744232,165.025482 411.977203,154.326279 
	C412.268127,140.964844 406.435791,130.259964 396.477325,121.771187 
	C391.572845,117.590492 385.915314,114.043373 379.230377,117.259659 
	C372.539612,120.478737 372.642456,126.988312 372.988525,134.188324 
M354.876892,144.623108 
	C356.677216,148.536972 358.477509,152.450851 360.277802,156.364716 
	C360.833130,156.106949 361.388458,155.849167 361.943756,155.591400 
	C361.337250,154.222519 360.614777,152.892303 360.143616,151.478333 
	C357.633118,143.944305 354.373108,136.543991 352.900055,128.806580 
	C350.485382,116.122871 350.482758,103.534424 361.086609,93.601921 
	C361.654358,93.070114 361.159851,91.404243 361.159851,89.471474 
	C354.071838,94.474228 351.329102,100.755638 350.007751,107.777588 
	C347.653351,120.289307 350.313416,132.205307 354.876892,144.623108 
M399.847748,191.922913 
	C384.305328,185.953186 374.043213,173.880325 364.090759,161.219894 
	C366.328674,165.818085 369.050842,170.017700 372.247314,173.818436 
	C381.190125,184.451721 391.501617,193.221832 405.521637,196.381134 
	C410.792084,197.568787 416.021790,197.556870 422.350739,194.055374 
	C414.179626,193.333801 407.396271,192.734772 399.847748,191.922913 
M434.810883,155.824417 
	C432.763580,145.634537 429.771484,135.812943 423.822418,127.094444 
	C423.373230,127.968666 423.337006,128.727539 423.578003,129.384796 
	C426.203064,136.544388 429.711609,143.501785 431.346741,150.876297 
	C434.398560,164.640137 435.219696,178.396088 423.813416,189.587357 
	C423.235687,190.154190 423.528625,191.608475 423.315125,193.585663 
	C429.684570,189.681839 432.915802,184.664597 433.784302,178.926971 
	C434.889771,171.624100 434.612091,164.111862 434.810883,155.824417 
M417.072479,118.494514 
	C418.080658,119.762154 419.088837,121.029793 420.096985,122.297432 
	C420.614502,121.871239 421.131989,121.445053 421.649475,121.018867 
	C417.473419,115.789490 413.586273,110.293457 409.059021,105.388199 
	C400.563873,96.183701 390.740326,88.850258 378.040466,86.478523 
	C373.162750,85.567581 368.302216,85.564980 363.972931,89.150856 
	C365.111786,89.894569 366.386444,90.453201 367.417603,90.158852 
	C375.685944,87.798630 383.246399,89.901649 390.516632,93.681465 
	C401.432678,99.356728 409.608276,108.041313 417.072479,118.494514 
M403.888519,109.600891 
	C401.010712,107.295013 398.132935,104.989136 395.255127,102.683258 
	C394.783875,103.175102 394.312622,103.666939 393.841339,104.158783 
	C412.480255,117.875191 422.883331,136.445938 426.762268,158.907486 
	C425.779419,139.585953 417.487457,123.730408 403.888519,109.600891 
M357.937561,130.660599 
	C361.775146,151.152496 379.693970,178.258163 390.843567,179.510696 
	C389.796661,178.355606 389.179504,177.449280 388.358246,176.801819 
	C372.235443,164.091110 362.507629,147.725204 359.826324,127.263794 
	C359.679932,126.146782 358.826508,125.122421 358.302216,124.054939 
	C357.893738,124.217377 357.485260,124.379814 357.076782,124.542252 
	C357.328949,126.307541 357.581116,128.072830 357.937561,130.660599 
M374.380737,99.653282 
	C379.736450,100.164139 385.092133,100.674995 390.448212,101.178947 
	C383.448792,93.781380 369.768433,95.354935 364.451660,100.711746 
	C358.940460,106.264450 355.777374,116.212326 359.448853,119.962563 
	C360.778229,110.663727 363.399994,102.441849 374.380737,99.653282 
M417.637543,180.267197 
	C410.247711,186.300644 402.261200,183.447144 394.177795,181.926559 
	C399.270874,186.073410 405.013702,187.846436 411.352783,186.729843 
	C420.097870,185.189468 424.687256,179.129288 426.631683,170.988815 
	C427.196960,168.622177 429.366791,165.460388 426.790955,163.865280 
	C423.852722,169.313599 421.027802,174.551834 417.637543,180.267197 
M412.914520,136.756668 
	C414.357635,143.031952 416.904663,149.303604 416.925354,155.583588 
	C416.945068,161.557083 414.325165,167.539307 412.763336,173.937531 
	C423.406982,167.818619 420.997681,143.926270 412.291199,132.910797 
	C412.445099,134.408936 412.531311,135.248352 412.914520,136.756668 
M391.094269,172.498367 
	C396.932129,175.700531 402.800049,178.716187 409.791931,175.161209 
	C408.677307,174.202942 407.422119,173.742172 406.131958,173.600861 
	C403.856140,173.351562 401.492584,173.597214 399.282440,173.108231 
	C390.469238,171.158340 384.680634,164.953201 379.172058,158.407532 
	C378.146790,157.189224 377.028839,156.048874 375.953644,154.872543 
	C375.629486,155.207428 375.305298,155.542313 374.981140,155.877197 
	C379.001923,162.327850 384.062836,167.833145 391.094269,172.498367 
M382.289734,109.264435 
	C394.640320,110.969482 401.984222,119.746429 409.615723,129.812958 
	C407.683838,118.457962 384.054535,100.114861 375.219269,109.193687 
	C377.310120,109.193687 379.401001,109.193687 382.289734,109.264435 
M372.575409,110.337608 
	C368.597900,108.720924 368.167664,112.498375 367.389099,114.367905 
	C362.225708,126.766472 365.464661,138.334915 371.540771,149.488007 
	C371.593170,149.584152 372.107086,149.428833 373.030426,149.311554 
	C372.269714,147.393997 371.526062,145.638229 370.871887,143.849762 
	C368.172791,136.470596 365.879517,128.939880 368.105865,121.074966 
	C369.106750,117.539215 371.236237,114.322937 372.575409,110.337608 
z"/>
<path fill="#F9FAFD" opacity="1.000000" stroke="none" 
	d="
M412.048523,438.014832 
	C393.699768,427.475983 375.719635,417.041412 357.627716,406.804443 
	C354.786774,405.196991 353.562561,403.441437 353.789612,400.153473 
	C354.081696,395.923340 353.860687,391.657745 353.860687,386.446838 
	C363.921753,392.227905 373.102753,397.493164 382.273804,402.775665 
	C393.225037,409.083496 404.113068,415.504333 415.152008,421.654510 
	C417.977753,423.228851 419.326263,424.930420 419.077057,428.271423 
	C418.770508,432.381195 419.003845,436.531219 419.003845,441.683655 
	C416.300507,440.255371 414.340393,439.219788 412.048523,438.014832 
M388.428436,411.544922 
	C378.915039,405.968323 369.401611,400.391724 359.717438,394.714996 
	C358.001617,400.227509 359.490997,403.165588 363.970215,405.485413 
	C372.152374,409.722961 380.023590,414.560944 388.781860,419.582733 
	C388.781860,416.436005 388.781860,414.341278 388.428436,411.544922 
M412.494904,426.695465 
	C411.256104,425.941559 410.017303,425.187653 408.778503,424.433746 
	C408.294464,424.851379 407.810425,425.269043 407.326385,425.686676 
	C408.411346,427.631836 409.405762,429.638855 410.656616,431.470795 
	C410.911041,431.843445 412.130981,431.556824 412.905823,431.574127 
	C412.905396,430.164703 412.904938,428.755310 412.494904,426.695465 
M402.561554,425.859619 
	C403.650848,421.029602 402.737549,419.628265 397.998383,419.232269 
	C397.372192,422.563629 398.209717,424.984497 402.561554,425.859619 
z"/>
<path fill="#F9FAFD" opacity="1.000000" stroke="none" 
	d="
M366.915955,438.072388 
	C353.050446,430.148590 353.049316,430.148529 353.915466,414.588684 
	C353.933533,414.264191 354.068146,413.946136 354.336914,412.870697 
	C356.581207,414.131927 358.678925,415.284210 360.751678,416.479706 
	C378.602325,426.775238 396.397552,437.168671 414.340057,447.301422 
	C417.817413,449.265228 419.422028,451.444397 419.031830,455.494812 
	C418.667572,459.275665 418.953979,463.119171 418.953979,468.100525 
	C401.270325,457.888489 384.256226,448.063110 366.915955,438.072388 
M385.020050,443.590424 
	C386.139557,444.002441 387.259064,444.414429 388.403259,444.835510 
	C389.880035,439.758850 388.306213,436.988037 384.004028,434.781494 
	C376.778320,431.075562 369.900238,426.693909 362.849152,422.643158 
	C361.814880,422.048920 360.633331,421.711029 359.381165,421.197662 
	C358.666351,428.496277 358.682404,428.468079 364.090424,431.549103 
	C370.867096,435.409882 377.614105,439.322784 385.020050,443.590424 
M400.354187,445.104919 
	C399.425110,445.824677 397.648651,446.632385 397.712708,447.249023 
	C398.000702,450.022858 399.289093,452.184845 403.924255,451.806854 
	C402.777039,449.333954 401.893524,447.429382 400.354187,445.104919 
M408.177094,454.840240 
	C409.446655,456.050140 410.716187,457.260071 411.985718,458.470001 
	C412.512665,458.142303 413.039612,457.814606 413.566528,457.486877 
	C413.073486,455.777039 412.815460,453.940765 411.991394,452.408966 
	C411.558289,451.603851 410.134796,451.331482 409.158478,450.818512 
	C408.762054,451.900696 408.365662,452.982849 408.177094,454.840240 
z"/>
<path fill="#FAFBFE" opacity="1.000000" stroke="none" 
	d="
M160.156616,417.391785 
	C162.132675,427.353912 158.126205,432.668365 149.462402,437.100739 
	C133.032135,445.506378 117.336288,455.346832 101.325104,464.573486 
	C99.500549,465.624878 97.610382,466.562469 95.062096,467.919525 
	C95.062096,462.196655 94.921829,457.251007 95.162529,452.324005 
	C95.221352,451.119629 96.246277,449.492462 97.303093,448.876343 
	C117.852814,436.896454 138.473236,425.037872 159.633728,412.834564 
	C159.851410,414.552826 160.002899,415.748535 160.156616,417.391785 
M109.403778,454.891022 
	C114.590157,451.918915 119.623650,448.624451 125.008530,446.070984 
	C129.811035,443.793671 131.165436,440.611633 129.429977,435.199768 
	C121.101952,440.007599 113.108635,445.023407 104.737541,449.299713 
	C99.953362,451.743652 99.594696,454.963654 100.779602,459.927338 
	C103.688423,458.216705 106.223579,456.725830 109.403778,454.891022 
M139.009506,434.234985 
	C141.137207,437.699493 142.765366,435.076050 143.647980,433.468201 
	C144.342316,432.203369 143.839142,430.281219 143.867920,428.651031 
	C142.453064,429.478210 140.937180,430.179382 139.672211,431.193542 
	C139.153107,431.609741 139.175201,432.700989 139.009506,434.234985 
M150.942200,423.675720 
	C150.481247,424.353302 149.738297,424.986572 149.623154,425.718536 
	C149.434387,426.918579 149.653458,428.182831 149.700531,429.419983 
	C150.720520,429.261780 152.293182,429.451599 152.654175,428.878387 
	C153.633652,427.322998 154.099411,425.444153 154.768860,423.693542 
	C153.667374,423.525696 152.565903,423.357849 150.942200,423.675720 
z"/>
<path fill="#FAFBFE" opacity="1.000000" stroke="none" 
	d="
M159.349121,404.731995 
	C138.092606,417.128876 117.155449,429.267639 95.037537,442.090973 
	C95.037537,435.723755 94.940872,430.527802 95.132515,425.342499 
	C95.164520,424.476501 96.285583,423.374695 97.178795,422.857147 
	C117.588585,411.031799 138.035934,399.271301 158.485596,387.514923 
	C158.735992,387.370972 159.107178,387.437225 159.668503,387.380402 
	C159.668503,393.100342 159.668503,398.787109 159.349121,404.731995 
M114.918503,417.435699 
	C111.308586,419.511108 107.804604,421.807068 104.061432,423.605042 
	C99.561920,425.766357 99.456261,428.928650 101.127937,433.506805 
	C109.418549,428.779449 117.232063,424.063629 125.297661,419.827789 
	C129.771103,417.478485 131.074951,414.373962 129.400894,409.198578 
	C124.710457,411.851105 120.122124,414.445892 114.918503,417.435699 
M152.487167,403.077026 
	C153.016861,402.453644 153.963165,401.849670 153.993301,401.203003 
	C154.065689,399.648682 153.708496,398.074280 153.524597,396.507996 
	C152.112183,397.691986 150.192596,398.617218 149.421570,400.128448 
	C148.547333,401.841980 148.347809,404.346161 152.487167,403.077026 
M139.678802,409.431488 
	C143.563187,409.814362 144.261032,407.015625 144.645233,404.186737 
	C144.717789,403.652527 143.483383,402.940765 142.852066,402.310944 
	C141.549438,404.180450 140.229782,406.038696 138.971283,407.937439 
	C138.849060,408.121887 139.104782,408.556824 139.678802,409.431488 
z"/>
<path fill="#E7B5CA" opacity="1.000000" stroke="none" 
	d="
M307.038818,260.110535 
	C307.036255,265.182129 306.660431,270.209442 307.072845,275.171204 
	C307.941284,285.619904 302.625641,292.592743 294.724274,298.116608 
	C286.330261,303.984833 276.667725,306.530731 266.654938,307.549774 
	C249.895035,309.255554 233.669662,307.286621 219.204300,297.978638 
	C211.107330,292.768463 206.019394,285.457581 206.932068,275.028320 
	C207.337143,270.399475 206.992020,265.705048 206.974396,260.584381 
	C206.961395,260.128387 206.985382,259.989960 207.312988,259.808105 
	C228.578186,245.544174 251.747070,243.982880 275.823547,247.446976 
	C287.219177,249.086533 297.224426,254.170135 306.982635,259.890411 
	C306.982635,259.890411 307.022644,260.036530 307.038818,260.110535 
M288.047119,268.292908 
	C289.840912,267.169556 291.634705,266.046204 293.484467,264.887817 
	C290.545013,261.602844 287.736206,261.627045 284.558563,263.968994 
	C282.346313,265.599487 279.876953,267.402435 277.194458,263.885193 
	C279.481140,262.376740 281.609467,260.972748 283.930573,259.441620 
	C281.541748,257.019531 279.386780,255.193161 276.448364,257.749115 
	C272.196930,261.447144 268.170898,260.805176 264.125854,257.435760 
	C260.867645,254.721741 257.901794,254.874313 255.330399,258.449738 
	C256.668427,259.725739 257.939514,260.937897 259.967438,262.871796 
	C250.946945,268.036926 242.524521,272.944031 233.978485,277.625427 
	C233.102493,278.105286 231.224182,277.605499 230.260681,276.924255 
	C226.607025,274.341003 223.961288,276.145081 220.836151,278.505707 
	C224.043549,280.586456 226.881439,282.427521 230.080811,284.503082 
	C227.190765,286.297424 224.822678,287.767731 222.394318,289.275421 
	C225.603348,293.467987 228.817093,292.030975 232.077682,289.884247 
	C234.323502,288.405609 236.600952,286.793854 238.780518,290.357239 
	C236.529495,291.887177 234.392899,293.339325 232.055969,294.927643 
	C234.458282,297.371613 236.684952,298.937469 239.539261,296.492615 
	C243.390076,293.194214 247.187408,293.654419 251.506119,295.731171 
	C258.287811,298.992340 265.347656,299.080872 272.308411,296.038788 
	C277.753662,293.658997 278.937256,291.251587 277.524170,285.448853 
	C279.344299,285.317413 281.382324,285.702301 282.840027,284.955109 
	C285.947968,283.361969 289.458496,281.679749 291.351685,279.005737 
	C292.150238,277.877808 289.222839,274.176300 288.107330,271.593597 
	C287.721771,270.700897 287.693756,269.653778 288.047119,268.292908 
z"/>
<path fill="#EFA245" opacity="1.000000" stroke="none" 
	d="
M291.341370,197.313660 
	C279.129761,208.365524 264.633850,210.074265 249.546555,208.550583 
	C239.541428,207.540131 229.941177,204.781509 222.552994,197.171173 
	C215.722961,190.135788 215.760223,181.771576 222.653137,174.739746 
	C230.484329,166.750748 240.695801,164.246704 251.178970,163.266876 
	C263.472290,162.117859 275.362366,164.264816 286.220276,170.625381 
	C294.224854,175.314484 298.261444,183.277832 295.826660,190.443375 
	C295.009216,192.849045 293.040344,194.863480 291.341370,197.313660 
M238.930527,182.825485 
	C237.185547,182.825485 235.440552,182.825485 233.695572,182.825485 
	C233.635590,183.186783 233.575623,183.548080 233.515656,183.909378 
	C234.870834,185.024109 236.225998,186.138855 238.644897,188.128571 
	C236.869873,188.897568 235.390778,189.538345 233.911682,190.179138 
	C234.255127,190.758408 234.598572,191.337662 234.942001,191.916916 
	C237.733124,191.340027 240.524261,190.763138 243.315384,190.186234 
	C243.403610,190.538986 243.491821,190.891724 243.580048,191.244476 
	C242.488190,192.118820 241.396347,192.993179 239.365234,194.619690 
	C241.497040,194.995865 243.155548,195.780533 243.692368,195.303329 
	C247.160370,192.220535 250.442322,194.069702 253.927841,195.094788 
	C256.107880,195.735947 258.516327,196.050293 260.775299,195.881683 
	C265.851685,195.502838 268.521149,192.839203 268.823608,188.443939 
	C277.340576,186.791626 278.387177,184.921021 274.360413,177.564056 
	C275.465179,176.908539 276.708862,176.170593 277.952545,175.432648 
	C277.692139,174.927277 277.431732,174.421921 277.171356,173.916550 
	C274.410675,174.458389 271.650024,175.000214 267.745697,175.766510 
	C269.601135,173.744217 270.617004,172.637009 271.632874,171.529785 
	C271.463165,171.082977 271.293427,170.636154 271.123688,170.189346 
	C269.472260,170.638962 267.842407,171.217102 266.162842,171.499542 
	C264.686493,171.747818 263.030090,172.065598 261.673096,171.644363 
	C258.921600,170.790268 254.755981,165.457306 255.848572,174.001297 
	C255.894531,174.360809 255.426331,174.974548 255.043915,175.171906 
	C249.938965,177.806076 244.806564,180.387070 238.930527,182.825485 
z"/>
<path fill="#FD91AB" opacity="1.000000" stroke="none" 
	d="
M306.988464,259.432922 
	C297.224426,254.170135 287.219177,249.086533 275.823547,247.446976 
	C251.747070,243.982880 228.578186,245.544174 207.330994,259.740234 
	C207.035843,241.151733 207.050278,222.449265 207.117065,203.258911 
	C213.179718,215.511581 224.363403,221.009262 237.179733,224.265839 
	C255.876114,229.016556 274.159668,227.905533 291.178925,218.674332 
	C296.727966,215.664551 300.784180,209.902496 305.801331,205.207489 
	C306.386322,206.925568 306.951141,208.834259 306.959412,210.745346 
	C307.028748,226.821793 306.996185,242.898682 306.988464,259.432922 
z"/>
<path fill="#555E78" opacity="1.000000" stroke="none" 
	d="
M132.184006,152.138489 
	C130.810165,152.239700 129.708618,152.079041 128.607056,151.918365 
	C129.191696,150.320404 129.553696,148.575836 130.464447,147.192581 
	C130.859512,146.592575 132.384521,146.736557 133.396301,146.542603 
	C133.430389,147.769409 133.578110,149.008316 133.449356,150.217773 
	C133.387436,150.799362 132.803711,151.325409 132.184006,152.138489 
z"/>
<path fill="#505873" opacity="1.000000" stroke="none" 
	d="
M109.159554,134.235199 
	C109.500214,133.279449 109.624893,132.471191 110.087471,132.150803 
	C111.170097,131.400940 112.414757,130.884995 113.593803,130.274338 
	C113.922890,131.102234 114.757065,132.200272 114.485962,132.707169 
	C113.686455,134.202087 112.449310,135.462921 111.383430,136.815369 
	C110.621323,136.078369 109.859222,135.341385 109.159554,134.235199 
z"/>
<path fill="#5A6074" opacity="1.000000" stroke="none" 
	d="
M86.732483,203.187500 
	C85.718277,202.215576 84.287865,200.732346 84.601242,200.050232 
	C85.276314,198.580826 86.848083,197.523407 88.052902,196.297394 
	C88.649002,197.244431 89.916939,198.399933 89.701225,199.095032 
	C89.253090,200.539108 88.018242,201.739059 86.732483,203.187500 
z"/>
<path fill="#5A6074" opacity="1.000000" stroke="none" 
	d="
M157.057526,154.813416 
	C155.704956,154.848083 154.636826,154.657120 153.568695,154.466156 
	C154.143036,152.839828 154.493088,151.068268 155.404694,149.660294 
	C155.757889,149.114761 157.381821,149.391953 158.426880,149.294357 
	C158.437683,150.522171 158.565948,151.765335 158.408203,152.971100 
	C158.332916,153.546646 157.714417,154.051117 157.057526,154.813416 
z"/>
<path fill="#555E78" opacity="1.000000" stroke="none" 
	d="
M88.179321,133.186142 
	C86.709480,133.575241 85.476608,133.684616 84.243744,133.794006 
	C84.717201,132.135498 84.902687,130.296036 85.783829,128.893692 
	C86.234352,128.176666 87.931053,128.242661 89.064522,127.954758 
	C88.848450,129.605316 88.632378,131.255859 88.179321,133.186142 
z"/>
<path fill="#555E78" opacity="1.000000" stroke="none" 
	d="
M155.656403,80.365494 
	C158.698334,79.461220 159.590866,81.053535 158.629578,83.049622 
	C157.894897,84.575195 155.963333,85.524376 154.564163,86.729942 
	C154.404709,85.175270 154.132339,83.619301 154.150162,82.066666 
	C154.156006,81.558266 154.915848,81.058517 155.656403,80.365494 
z"/>
<path fill="#5A6074" opacity="1.000000" stroke="none" 
	d="
M172.481781,111.735435 
	C172.791107,112.351852 173.032379,112.796570 172.902939,112.980804 
	C171.675568,114.727501 170.385193,116.429932 169.112961,118.145111 
	C168.490265,117.521858 167.255478,116.784348 167.346924,116.294403 
	C167.839844,113.653687 168.579239,110.988884 172.481781,111.735435 
z"/>
<path fill="#555E78" opacity="1.000000" stroke="none" 
	d="
M75.594208,168.409515 
	C74.087181,169.775940 72.736916,170.811295 71.320305,171.746109 
	C71.266136,171.781845 70.151451,170.728943 70.248329,170.385925 
	C70.681435,168.852356 70.973869,166.916718 72.056839,166.003418 
	C74.412720,164.016647 76.054779,164.599777 75.594208,168.409515 
z"/>
<path fill="#DC5C71" opacity="1.000000" stroke="none" 
	d="
M372.966522,133.736420 
	C372.642456,126.988312 372.539612,120.478737 379.230377,117.259659 
	C385.915314,114.043373 391.572845,117.590492 396.477325,121.771187 
	C406.435791,130.259964 412.268127,140.964844 411.977203,154.326279 
	C411.744232,165.025482 403.645447,169.956192 394.154022,165.032364 
	C381.724884,158.584549 375.488281,147.598114 372.966522,133.736420 
M377.014587,123.774597 
	C371.279968,137.790375 383.053131,160.257294 397.861511,163.557159 
	C403.176788,164.741608 407.502472,161.916977 409.035767,156.260498 
	C412.487213,143.527740 400.790985,123.365486 388.048889,119.878677 
	C383.709534,118.691246 380.195831,119.524757 377.014587,123.774597 
z"/>
<path fill="#E8CB8F" opacity="1.000000" stroke="none" 
	d="
M354.744171,144.257492 
	C350.313416,132.205307 347.653351,120.289307 350.007751,107.777588 
	C351.329102,100.755638 354.071838,94.474228 361.159851,89.471474 
	C361.159851,91.404243 361.654358,93.070114 361.086609,93.601921 
	C350.482758,103.534424 350.485382,116.122871 352.900055,128.806580 
	C354.373108,136.543991 357.633118,143.944305 360.143616,151.478333 
	C360.614777,152.892303 361.337250,154.222519 361.943756,155.591400 
	C361.388458,155.849167 360.833130,156.106949 360.277802,156.364716 
	C358.477509,152.450851 356.677216,148.536972 354.744171,144.257492 
z"/>
<path fill="#ECCF90" opacity="1.000000" stroke="none" 
	d="
M400.230347,192.029327 
	C407.396271,192.734772 414.179626,193.333801 422.350739,194.055374 
	C416.021790,197.556870 410.792084,197.568787 405.521637,196.381134 
	C391.501617,193.221832 381.190125,184.451721 372.247314,173.818436 
	C369.050842,170.017700 366.328674,165.818085 364.090759,161.219894 
	C374.043213,173.880325 384.305328,185.953186 400.230347,192.029327 
z"/>
<path fill="#ECCF90" opacity="1.000000" stroke="none" 
	d="
M434.870789,156.257156 
	C434.612091,164.111862 434.889771,171.624100 433.784302,178.926971 
	C432.915802,184.664597 429.684570,189.681839 423.315125,193.585663 
	C423.528625,191.608475 423.235687,190.154190 423.813416,189.587357 
	C435.219696,178.396088 434.398560,164.640137 431.346741,150.876297 
	C429.711609,143.501785 426.203064,136.544388 423.578003,129.384796 
	C423.337006,128.727539 423.373230,127.968666 423.822418,127.094444 
	C429.771484,135.812943 432.763580,145.634537 434.870789,156.257156 
z"/>
<path fill="#EACD90" opacity="1.000000" stroke="none" 
	d="
M416.876801,118.194504 
	C409.608276,108.041313 401.432678,99.356728 390.516632,93.681465 
	C383.246399,89.901649 375.685944,87.798630 367.417603,90.158852 
	C366.386444,90.453201 365.111786,89.894569 363.972931,89.150856 
	C368.302216,85.564980 373.162750,85.567581 378.040466,86.478523 
	C390.740326,88.850258 400.563873,96.183701 409.059021,105.388199 
	C413.586273,110.293457 417.473419,115.789490 421.649475,121.018867 
	C421.131989,121.445053 420.614502,121.871239 420.096985,122.297432 
	C419.088837,121.029793 418.080658,119.762154 416.876801,118.194504 
z"/>
<path fill="#C0C8D9" opacity="1.000000" stroke="none" 
	d="
M404.141663,109.852417 
	C417.487457,123.730408 425.779419,139.585953 426.762268,158.907486 
	C422.883331,136.445938 412.480255,117.875191 393.841339,104.158783 
	C394.312622,103.666939 394.783875,103.175102 395.255127,102.683258 
	C398.132935,104.989136 401.010712,107.295013 404.141663,109.852417 
z"/>
<path fill="#C2CADB" opacity="1.000000" stroke="none" 
	d="
M357.885437,130.249359 
	C357.581116,128.072830 357.328949,126.307541 357.076782,124.542252 
	C357.485260,124.379814 357.893738,124.217377 358.302216,124.054939 
	C358.826508,125.122421 359.679932,126.146782 359.826324,127.263794 
	C362.507629,147.725204 372.235443,164.091110 388.358246,176.801819 
	C389.179504,177.449280 389.796661,178.355606 390.843567,179.510696 
	C379.693970,178.258163 361.775146,151.152496 357.885437,130.249359 
z"/>
<path fill="#C5CEDE" opacity="1.000000" stroke="none" 
	d="
M373.987518,99.737480 
	C363.399994,102.441849 360.778229,110.663727 359.448853,119.962563 
	C355.777374,116.212326 358.940460,106.264450 364.451660,100.711746 
	C369.768433,95.354935 383.448792,93.781380 390.448029,101.182404 
	C385.092133,100.674995 379.736450,100.164139 373.987518,99.737480 
z"/>
<path fill="#C5CEDE" opacity="1.000000" stroke="none" 
	d="
M417.920227,180.028641 
	C421.027802,174.551834 423.852722,169.313599 426.790955,163.865280 
	C429.366791,165.460388 427.196960,168.622177 426.631683,170.988815 
	C424.687256,179.129288 420.097870,185.189468 411.352783,186.729843 
	C405.013702,187.846436 399.270874,186.073410 394.177795,181.926559 
	C402.261200,183.447144 410.247711,186.300644 417.920227,180.028641 
z"/>
<path fill="#8DC691" opacity="1.000000" stroke="none" 
	d="
M412.766052,136.422226 
	C412.531311,135.248352 412.445099,134.408936 412.291199,132.910797 
	C420.997681,143.926270 423.406982,167.818619 412.763336,173.937531 
	C414.325165,167.539307 416.945068,161.557083 416.925354,155.583588 
	C416.904663,149.303604 414.357635,143.031952 412.766052,136.422226 
z"/>
<path fill="#8DC691" opacity="1.000000" stroke="none" 
	d="
M390.778381,172.310059 
	C384.062836,167.833145 379.001923,162.327850 374.981140,155.877197 
	C375.305298,155.542313 375.629486,155.207428 375.953644,154.872543 
	C377.028839,156.048874 378.146790,157.189224 379.172058,158.407532 
	C384.680634,164.953201 390.469238,171.158340 399.282440,173.108231 
	C401.492584,173.597214 403.856140,173.351562 406.131958,173.600861 
	C407.422119,173.742172 408.677307,174.202942 409.791931,175.161209 
	C402.800049,178.716187 396.932129,175.700531 390.778381,172.310059 
z"/>
<path fill="#8DC691" opacity="1.000000" stroke="none" 
	d="
M381.890808,109.229065 
	C379.401001,109.193687 377.310120,109.193687 375.219269,109.193687 
	C384.054535,100.114861 407.683838,118.457962 409.615723,129.812958 
	C401.984222,119.746429 394.640320,110.969482 381.890808,109.229065 
z"/>
<path fill="#8DC691" opacity="1.000000" stroke="none" 
	d="
M372.714508,110.649658 
	C371.236237,114.322937 369.106750,117.539215 368.105865,121.074966 
	C365.879517,128.939880 368.172791,136.470596 370.871887,143.849762 
	C371.526062,145.638229 372.269714,147.393997 373.030426,149.311554 
	C372.107086,149.428833 371.593170,149.584152 371.540771,149.488007 
	C365.464661,138.334915 362.225708,126.766472 367.389099,114.367905 
	C368.167664,112.498375 368.597900,108.720924 372.714508,110.649658 
z"/>
<path fill="#A1ADC4" opacity="1.000000" stroke="none" 
	d="
M388.605164,411.895721 
	C388.781860,414.341278 388.781860,416.436005 388.781860,419.582733 
	C380.023590,414.560944 372.152374,409.722961 363.970215,405.485413 
	C359.490997,403.165588 358.001617,400.227509 359.717438,394.714996 
	C369.401611,400.391724 378.915039,405.968323 388.605164,411.895721 
z"/>
<path fill="#5A6074" opacity="1.000000" stroke="none" 
	d="
M412.699707,427.020691 
	C412.904938,428.755310 412.905396,430.164703 412.905823,431.574158 
	C412.130981,431.556824 410.911041,431.843445 410.656616,431.470795 
	C409.405762,429.638855 408.411346,427.631836 407.326385,425.686676 
	C407.810425,425.269043 408.294464,424.851379 408.778503,424.433746 
	C410.017303,425.187653 411.256104,425.941559 412.699707,427.020691 
z"/>
<path fill="#555E78" opacity="1.000000" stroke="none" 
	d="
M402.153687,425.935791 
	C398.209717,424.984497 397.372192,422.563629 397.998383,419.232269 
	C402.737549,419.628265 403.650848,421.029602 402.153687,425.935791 
z"/>
<path fill="#A1ADC4" opacity="1.000000" stroke="none" 
	d="
M384.696991,443.401825 
	C377.614105,439.322784 370.867096,435.409882 364.090424,431.549103 
	C358.682404,428.468079 358.666351,428.496277 359.381165,421.197662 
	C360.633331,421.711029 361.814880,422.048920 362.849152,422.643158 
	C369.900238,426.693909 376.778320,431.075562 384.004028,434.781494 
	C388.306213,436.988037 389.880035,439.758850 388.403259,444.835510 
	C387.259064,444.414429 386.139557,444.002441 384.696991,443.401825 
z"/>
<path fill="#555E78" opacity="1.000000" stroke="none" 
	d="
M400.682068,445.314880 
	C401.893524,447.429382 402.777039,449.333954 403.924255,451.806854 
	C399.289093,452.184845 398.000702,450.022858 397.712708,447.249023 
	C397.648651,446.632385 399.425110,445.824677 400.682068,445.314880 
z"/>
<path fill="#555E78" opacity="1.000000" stroke="none" 
	d="
M408.073181,454.452637 
	C408.365662,452.982849 408.762054,451.900696 409.158508,450.818542 
	C410.134796,451.331482 411.558289,451.603851 411.991394,452.408966 
	C412.815460,453.940765 413.073486,455.777039 413.566528,457.486877 
	C413.039612,457.814606 412.512665,458.142303 411.985718,458.470001 
	C410.716187,457.260071 409.446655,456.050140 408.073181,454.452637 
z"/>
<path fill="#A1ADC4" opacity="1.000000" stroke="none" 
	d="
M109.081253,455.062988 
	C106.223579,456.725830 103.688423,458.216705 100.779602,459.927338 
	C99.594696,454.963654 99.953362,451.743652 104.737541,449.299713 
	C113.108635,445.023407 121.101952,440.007599 129.429977,435.199768 
	C131.165436,440.611633 129.811035,443.793671 125.008530,446.070984 
	C119.623650,448.624451 114.590157,451.918915 109.081253,455.062988 
z"/>
<path fill="#EF6B7D" opacity="1.000000" stroke="none" 
	d="
M138.980301,433.860077 
	C139.175201,432.700989 139.153107,431.609741 139.672211,431.193542 
	C140.937180,430.179382 142.453064,429.478210 143.867920,428.651031 
	C143.839142,430.281219 144.342316,432.203369 143.647980,433.468201 
	C142.765366,435.076050 141.137207,437.699493 138.980301,433.860077 
z"/>
<path fill="#EF6B7D" opacity="1.000000" stroke="none" 
	d="
M151.203308,423.432861 
	C152.565903,423.357849 153.667374,423.525696 154.768860,423.693542 
	C154.099411,425.444153 153.633652,427.322998 152.654175,428.878387 
	C152.293182,429.451599 150.720520,429.261780 149.700531,429.419983 
	C149.653458,428.182831 149.434387,426.918579 149.623154,425.718536 
	C149.738297,424.986572 150.481247,424.353302 151.203308,423.432861 
z"/>
<path fill="#A1ADC4" opacity="1.000000" stroke="none" 
	d="
M115.226151,417.238159 
	C120.122124,414.445892 124.710457,411.851105 129.400894,409.198578 
	C131.074951,414.373962 129.771103,417.478485 125.297661,419.827789 
	C117.232063,424.063629 109.418549,428.779449 101.127937,433.506805 
	C99.456261,428.928650 99.561920,425.766357 104.061432,423.605042 
	C107.804604,421.807068 111.308586,419.511108 115.226151,417.238159 
z"/>
<path fill="#EF6B7D" opacity="1.000000" stroke="none" 
	d="
M152.176682,403.286530 
	C148.347809,404.346161 148.547333,401.841980 149.421570,400.128448 
	C150.192596,398.617218 152.112183,397.691986 153.524597,396.507996 
	C153.708496,398.074280 154.065689,399.648682 153.993301,401.203003 
	C153.963165,401.849670 153.016861,402.453644 152.176682,403.286530 
z"/>
<path fill="#EF6B7D" opacity="1.000000" stroke="none" 
	d="
M139.431946,409.153503 
	C139.104782,408.556824 138.849060,408.121887 138.971283,407.937439 
	C140.229782,406.038696 141.549438,404.180450 142.852066,402.310944 
	C143.483383,402.940765 144.717789,403.652527 144.645233,404.186737 
	C144.261032,407.015625 143.563187,409.814362 139.431946,409.153503 
z"/>
<path fill="#946275" opacity="1.000000" stroke="none" 
	d="
M287.774780,268.485046 
	C287.693756,269.653778 287.721771,270.700897 288.107330,271.593597 
	C289.222839,274.176300 292.150238,277.877808 291.351685,279.005737 
	C289.458496,281.679749 285.947968,283.361969 282.840027,284.955109 
	C281.382324,285.702301 279.344299,285.317413 277.524170,285.448853 
	C278.937256,291.251587 277.753662,293.658997 272.308411,296.038788 
	C265.347656,299.080872 258.287811,298.992340 251.506119,295.731171 
	C247.187408,293.654419 243.390076,293.194214 239.539261,296.492615 
	C236.684952,298.937469 234.458282,297.371613 232.055969,294.927643 
	C234.392899,293.339325 236.529495,291.887177 238.780518,290.357239 
	C236.600952,286.793854 234.323502,288.405609 232.077682,289.884247 
	C228.817093,292.030975 225.603348,293.467987 222.394318,289.275421 
	C224.822678,287.767731 227.190765,286.297424 230.080811,284.503082 
	C226.881439,282.427521 224.043549,280.586456 220.836151,278.505707 
	C223.961288,276.145081 226.607025,274.341003 230.260681,276.924255 
	C231.224182,277.605499 233.102493,278.105286 233.978485,277.625427 
	C242.524521,272.944031 250.946945,268.036926 259.967438,262.871796 
	C257.939514,260.937897 256.668427,259.725739 255.330399,258.449738 
	C257.901794,254.874313 260.867645,254.721741 264.125854,257.435760 
	C268.170898,260.805176 272.196930,261.447144 276.448364,257.749115 
	C279.386780,255.193161 281.541748,257.019531 283.930573,259.441620 
	C281.609467,260.972748 279.481140,262.376740 277.194458,263.885193 
	C279.876953,267.402435 282.346313,265.599487 284.558563,263.968994 
	C287.736206,261.627045 290.545013,261.602844 293.484467,264.887817 
	C291.634705,266.046204 289.840912,267.169556 287.774780,268.485046 
M262.402161,289.343536 
	C264.783234,288.210297 266.158081,285.988373 263.940491,284.331848 
	C260.466064,281.736511 256.422150,278.858368 252.373825,278.431885 
	C249.518570,278.131104 246.256226,281.694489 243.032120,283.618317 
	C249.073166,288.724182 254.952194,290.568909 262.402161,289.343536 
M263.301727,271.739532 
	C262.280853,272.445129 261.259979,273.150726 260.239075,273.856323 
	C260.206909,274.410553 260.174744,274.964813 260.142578,275.519043 
	C264.770081,276.684937 269.353760,278.155975 274.051849,278.830963 
	C275.462585,279.033630 277.542084,277.280304 278.590088,275.880249 
	C278.969055,275.374023 277.496094,272.995789 276.405060,271.959259 
	C271.776245,267.561707 270.276672,267.563904 263.301727,271.739532 
z"/>
<path fill="#FEDA90" opacity="1.000000" stroke="none" 
	d="
M239.305756,182.903397 
	C244.806564,180.387070 249.938965,177.806076 255.043915,175.171906 
	C255.426331,174.974548 255.894531,174.360809 255.848572,174.001297 
	C254.755981,165.457306 258.921600,170.790268 261.673096,171.644363 
	C263.030090,172.065598 264.686493,171.747818 266.162842,171.499542 
	C267.842407,171.217102 269.472260,170.638962 271.123688,170.189346 
	C271.293427,170.636154 271.463165,171.082977 271.632874,171.529785 
	C270.617004,172.637009 269.601135,173.744217 267.745697,175.766510 
	C271.650024,175.000214 274.410675,174.458389 277.171356,173.916550 
	C277.431732,174.421921 277.692139,174.927277 277.952545,175.432648 
	C276.708862,176.170593 275.465179,176.908539 274.360413,177.564056 
	C278.387177,184.921021 277.340576,186.791626 268.823608,188.443939 
	C268.521149,192.839203 265.851685,195.502838 260.775299,195.881683 
	C258.516327,196.050293 256.107880,195.735947 253.927841,195.094788 
	C250.442322,194.069702 247.160370,192.220535 243.692368,195.303329 
	C243.155548,195.780533 241.497040,194.995865 239.365234,194.619690 
	C241.396347,192.993179 242.488190,192.118820 243.580048,191.244476 
	C243.491821,190.891724 243.403610,190.538986 243.315384,190.186234 
	C240.524261,190.763138 237.733124,191.340027 234.942001,191.916916 
	C234.598572,191.337662 234.255127,190.758408 233.911682,190.179138 
	C235.390778,189.538345 236.869873,188.897568 238.644897,188.128571 
	C236.225998,186.138855 234.870834,185.024109 233.515656,183.909378 
	C233.575623,183.548080 233.635590,183.186783 233.695572,182.825485 
	C235.440552,182.825485 237.185547,182.825485 239.305756,182.903397 
M253.978378,190.802887 
	C255.910477,190.282120 257.842560,189.761368 259.774658,189.240616 
	C258.709625,187.740112 257.871582,185.987411 256.537140,184.786194 
	C252.455811,181.112442 250.212784,185.274796 246.273148,187.363663 
	C249.184525,188.704895 251.201797,189.634216 253.978378,190.802887 
M264.223328,177.947586 
	C262.148743,178.709457 260.074158,179.471329 257.110962,180.559525 
	C261.616760,183.638092 264.882782,185.331421 269.598175,182.182571 
	C267.736816,180.550186 266.357880,179.340927 264.223328,177.947586 
z"/>
<path fill="#505873" opacity="1.000000" stroke="none" 
	d="
M377.212280,123.441719 
	C380.195831,119.524757 383.709534,118.691246 388.048889,119.878677 
	C400.790985,123.365486 412.487213,143.527740 409.035767,156.260498 
	C407.502472,161.916977 403.176788,164.741608 397.861511,163.557159 
	C383.053131,160.257294 371.279968,137.790375 377.212280,123.441719 
M401.802490,144.271942 
	C402.296082,144.665359 402.789673,145.058762 403.423523,145.563980 
	C403.080872,138.715820 399.068359,132.199112 394.870697,130.947952 
	C396.999390,135.034622 399.244293,139.344406 401.802490,144.271942 
M384.497131,126.932816 
	C382.102386,128.336166 380.823151,130.168259 381.302582,133.191086 
	C384.915100,131.253784 387.729828,129.744339 390.544525,128.234879 
	C390.512848,127.825340 390.481171,127.415810 390.449493,127.006279 
	C388.694061,126.893341 386.938599,126.780403 384.497131,126.932816 
M382.051270,142.407883 
	C385.194092,149.239212 386.721924,151.064194 390.281250,152.237564 
	C387.466980,147.520935 384.663605,142.822556 381.860229,138.124176 
	C381.615814,138.234909 381.371368,138.345642 381.126953,138.456375 
	C381.365234,139.534134 381.603546,140.611877 382.051270,142.407883 
M403.713623,150.746552 
	C400.543549,152.083862 397.373474,153.421173 393.918396,154.878693 
	C398.831848,158.086624 401.388245,157.057709 403.713623,150.746552 
z"/>
<path fill="#E5B3C8" opacity="1.000000" stroke="none" 
	d="
M262.036804,289.518860 
	C254.952194,290.568909 249.073166,288.724182 243.032120,283.618317 
	C246.256226,281.694489 249.518570,278.131104 252.373825,278.431885 
	C256.422150,278.858368 260.466064,281.736511 263.940491,284.331848 
	C266.158081,285.988373 264.783234,288.210297 262.036804,289.518860 
z"/>
<path fill="#E5B3C8" opacity="1.000000" stroke="none" 
	d="
M263.604004,271.542053 
	C270.276672,267.563904 271.776245,267.561707 276.405060,271.959259 
	C277.496094,272.995789 278.969055,275.374023 278.590088,275.880249 
	C277.542084,277.280304 275.462585,279.033630 274.051849,278.830963 
	C269.353760,278.155975 264.770081,276.684937 260.142578,275.519043 
	C260.174744,274.964813 260.206909,274.410553 260.239075,273.856323 
	C261.259979,273.150726 262.280853,272.445129 263.604004,271.542053 
z"/>
<path fill="#EFA245" opacity="1.000000" stroke="none" 
	d="
M253.598724,190.683228 
	C251.201797,189.634216 249.184525,188.704895 246.273148,187.363663 
	C250.212784,185.274796 252.455811,181.112442 256.537140,184.786194 
	C257.871582,185.987411 258.709625,187.740112 259.774658,189.240616 
	C257.842560,189.761368 255.910477,190.282120 253.598724,190.683228 
z"/>
<path fill="#EFA245" opacity="1.000000" stroke="none" 
	d="
M264.601135,178.039627 
	C266.357880,179.340927 267.736816,180.550186 269.598175,182.182571 
	C264.882782,185.331421 261.616760,183.638092 257.110962,180.559525 
	C260.074158,179.471329 262.148743,178.709457 264.601135,178.039627 
z"/>
<path fill="#76A7F0" opacity="1.000000" stroke="none" 
	d="
M401.645874,143.963058 
	C399.244293,139.344406 396.999390,135.034622 394.870697,130.947952 
	C399.068359,132.199112 403.080872,138.715820 403.423523,145.563980 
	C402.789673,145.058762 402.296082,144.665359 401.645874,143.963058 
z"/>
<path fill="#76A7F0" opacity="1.000000" stroke="none" 
	d="
M384.840149,126.800140 
	C386.938599,126.780403 388.694061,126.893341 390.449493,127.006279 
	C390.481171,127.415810 390.512848,127.825340 390.544525,128.234879 
	C387.729828,129.744339 384.915100,131.253784 381.302582,133.191086 
	C380.823151,130.168259 382.102386,128.336166 384.840149,126.800140 
z"/>
<path fill="#76A7F0" opacity="1.000000" stroke="none" 
	d="
M381.946564,142.048767 
	C381.603546,140.611877 381.365234,139.534134 381.126953,138.456375 
	C381.371368,138.345642 381.615814,138.234909 381.860229,138.124176 
	C384.663605,142.822556 387.466980,147.520935 390.281250,152.237564 
	C386.721924,151.064194 385.194092,149.239212 381.946564,142.048767 
z"/>
<path fill="#76A7F0" opacity="1.000000" stroke="none" 
	d="
M403.771729,151.108582 
	C401.388245,157.057709 398.831848,158.086624 393.918396,154.878693 
	C397.373474,153.421173 400.543549,152.083862 403.771729,151.108582 
z"/>
</svg>