<svg version="1.1" id="Layer_1" xmlns="http://www.w3.org/2000/svg" xmlns:xlink="http://www.w3.org/1999/xlink" x="0px" y="0px"
	 width="100%" viewBox="0 0 512 512" enable-background="new 0 0 512 512" xml:space="preserve">
<path fill="#46505D" opacity="1.000000" stroke="none" 
	d="
M1.000004,462.000000 
	C1.000000,325.643341 1.000000,189.286682 1.356241,52.546398 
	C2.092804,51.860741 2.608669,51.636635 2.833647,51.245296 
	C8.649412,41.129150 17.000923,35.895996 29.042759,35.920311 
	C98.990562,36.061558 168.938858,35.951572 238.999390,36.388618 
	C239.152130,38.181774 239.227768,39.512848 239.227814,40.843922 
	C239.233154,184.931763 239.233978,329.019623 239.218491,473.107452 
	C239.218323,474.762726 239.002228,476.417969 238.426132,478.048004 
	C167.740097,478.014526 97.514832,477.980896 27.289631,478.032349 
	C19.131277,478.038330 12.637690,474.884094 7.319241,468.894440 
	C5.249630,466.563599 3.108548,464.296234 1.000004,462.000000 
M211.493393,314.184143 
	C208.649109,312.778198 205.814590,310.172150 202.959091,310.148987 
	C168.322830,309.867767 133.683411,309.939026 99.044952,309.995392 
	C93.316956,310.004730 89.436287,313.573395 89.252998,318.542633 
	C89.066689,323.593658 93.109505,327.674591 99.033867,327.690765 
	C133.672134,327.785370 168.311066,327.811401 202.949112,327.682495 
	C210.714371,327.653595 214.188522,322.308441 211.493393,314.184143 
M169.500015,239.201324 
	C147.371170,239.201263 125.242310,239.200989 103.113457,239.201706 
	C101.782417,239.201752 100.448364,239.153198 99.120857,239.223846 
	C93.171997,239.540436 89.124825,243.289261 89.249725,248.324768 
	C89.376808,253.448227 93.380409,256.975769 99.437057,256.984680 
	C129.385818,257.028839 159.334686,257.007751 189.283508,257.005829 
	C194.274811,257.005493 199.273804,257.154999 204.255173,256.927307 
	C209.007431,256.710083 212.527420,253.156082 212.846207,248.754532 
	C213.163971,244.367020 210.116562,240.479080 205.411530,239.521225 
	C203.802307,239.193619 202.105789,239.218521 200.448822,239.214294 
	C190.465942,239.188797 180.482971,239.201645 169.500015,239.201324 
M104.550919,380.738281 
	C102.552727,380.744263 100.552139,380.689453 98.556793,380.767914 
	C93.179672,380.979309 89.409912,384.451111 89.287361,389.235138 
	C89.160156,394.200531 93.019424,397.861816 98.684853,398.128876 
	C99.681992,398.175873 100.682678,398.153137 101.681725,398.153168 
	C134.652435,398.154083 167.623138,398.155426 200.593842,398.148773 
	C202.091293,398.148468 203.605469,398.202698 205.083115,398.010529 
	C209.656052,397.415802 213.042709,393.468872 212.851700,389.093628 
	C212.663803,384.789703 209.389832,381.315155 204.943893,380.847961 
	C203.294632,380.674652 201.617401,380.742828 199.952927,380.742554 
	C168.480896,380.737244 137.008850,380.738159 104.550919,380.738281 
M183.500000,168.845779 
	C155.359756,168.848358 127.219444,168.821793 99.079300,168.877487 
	C93.264915,168.888992 89.416512,172.363220 89.283913,177.336716 
	C89.152191,182.277176 93.025826,186.188126 98.660828,186.200027 
	C133.627655,186.273895 168.594818,186.273560 203.561630,186.192734 
	C209.144150,186.179840 213.041183,182.167053 212.854721,177.248734 
	C212.674362,172.491333 208.858810,168.978500 203.481659,168.884079 
	C197.156158,168.772995 190.827347,168.850052 183.500000,168.845779 
M78.452484,103.613403 
	C81.448486,97.775795 80.884598,94.479172 76.100586,90.474648 
	C74.443993,89.087975 72.674156,87.835625 70.944138,86.537788 
	C61.361916,79.349304 51.826527,72.096886 42.169273,65.010582 
	C37.596523,61.655190 32.313988,62.353386 29.300079,66.357353 
	C26.269581,70.383354 27.156572,75.418495 31.600128,79.100327 
	C33.007961,80.266830 34.515678,81.312851 35.978752,82.412598 
	C42.719433,87.479347 49.460491,92.545601 56.637932,97.940109 
	C54.890560,99.398621 53.695648,100.484428 52.412045,101.452660 
	C45.504654,106.662949 38.522923,111.776199 31.671768,117.059013 
	C27.091761,120.590576 26.222162,125.661461 29.230375,129.738785 
	C32.196598,133.759201 37.547466,134.576309 42.083473,131.217010 
	C54.113823,122.307510 66.000626,113.204185 78.452484,103.613403 
M135.500031,415.921844 
	C130.336014,415.921906 125.171989,415.921661 120.007965,415.922302 
	C119.008484,415.922424 118.008545,415.907013 117.009598,415.931183 
	C110.850243,416.080292 107.009354,419.442535 107.005043,424.677643 
	C107.000717,429.927917 110.746902,433.448608 116.904579,433.636383 
	C122.396774,433.803894 127.897820,433.685425 133.394958,433.686127 
	C149.553314,433.688171 165.711655,433.690643 181.870010,433.680756 
	C183.533920,433.679718 185.217407,433.743317 186.858063,433.524231 
	C192.193741,432.811707 195.388092,429.040039 195.049515,424.017517 
	C194.728226,419.251770 191.320419,416.012756 185.974197,415.977081 
	C169.483414,415.867065 152.991486,415.927490 135.500031,415.921844 
M184.108475,221.798782 
	C190.786484,221.410858 194.185898,219.091614 194.967697,214.390091 
	C195.962402,208.408203 191.733994,204.057678 184.682007,204.041412 
	C164.026581,203.993729 143.370956,204.020157 122.715401,204.027573 
	C120.051384,204.028534 117.361076,203.863953 114.729263,204.171875 
	C110.303810,204.689697 107.033211,208.346695 107.033058,212.627075 
	C107.032906,217.199783 109.356560,220.219971 113.783211,221.314407 
	C115.687416,221.785217 117.739647,221.778641 119.724930,221.781464 
	C140.880173,221.811478 162.035461,221.799820 184.108475,221.798782 
M136.500061,345.146637 
	C129.674011,345.160309 122.844284,345.043427 116.023293,345.235992 
	C111.835373,345.354218 108.103584,347.386658 107.582230,351.604797 
	C107.226852,354.480011 108.416183,358.161652 110.210037,360.480988 
	C111.510017,362.161774 114.928383,362.850433 117.410698,362.869568 
	C139.886032,363.042725 162.363266,362.972992 184.839935,362.962952 
	C185.835602,362.962524 186.874557,363.014648 187.819427,362.763855 
	C192.099045,361.627747 194.921967,359.064789 195.034576,354.402344 
	C195.145355,349.815979 192.798676,346.810791 188.389893,345.654816 
	C186.652664,345.199280 184.769852,345.171936 182.952820,345.167664 
	C167.801956,345.131897 152.650970,345.147064 136.500061,345.146637 
M191.034210,276.076630 
	C188.947556,275.648743 186.862335,274.857147 184.774002,274.848846 
	C162.286499,274.759430 139.798431,274.764771 117.310654,274.811401 
	C110.642563,274.825226 106.906471,278.141144 107.015625,283.663696 
	C107.119957,288.942505 110.806831,292.165680 117.180473,292.181732 
	C139.834763,292.238739 162.489334,292.183014 185.143707,292.219757 
	C189.340942,292.226562 192.781601,290.953400 194.404205,286.847290 
	C195.976257,282.869049 195.036011,279.333069 191.034210,276.076630 
M102.026802,131.851349 
	C104.100067,132.319778 106.168533,133.166824 108.247391,133.193176 
	C119.061127,133.330261 129.877762,133.304474 140.692871,133.242035 
	C147.351807,133.203583 151.086792,129.913254 150.986191,124.399063 
	C150.890915,119.176125 147.114258,115.909637 140.831360,115.869102 
	C130.016342,115.799316 119.199982,115.914284 108.385414,115.816277 
	C104.175491,115.778114 100.849808,117.057396 98.989952,121.010292 
	C97.091850,125.044479 98.361748,128.431076 102.026802,131.851349 
M41.644447,221.801437 
	C48.625626,221.790344 55.613327,221.960403 62.585869,221.709396 
	C67.923851,221.517242 71.623543,217.650131 71.641571,212.904358 
	C71.658371,208.481186 68.283936,204.316483 63.675865,204.177353 
	C54.211216,203.891602 44.725254,203.892960 35.261189,204.191757 
	C30.848192,204.331085 27.582281,208.247086 27.581455,212.590607 
	C27.580593,217.112244 29.835876,220.231903 34.269161,221.321381 
	C36.326153,221.826874 38.547886,221.662018 41.644447,221.801437 
M33.524956,256.503632 
	C42.823456,256.670807 52.121532,256.929138 61.420612,256.972748 
	C67.511818,257.001343 71.482056,253.509613 71.645844,248.369217 
	C71.806458,243.328415 67.773216,239.385468 61.824112,239.257401 
	C53.675064,239.082001 45.518841,239.152313 37.366875,239.234680 
	C32.783585,239.280975 29.177652,241.164902 27.951546,245.859161 
	C26.748571,250.464844 28.487545,253.991226 33.524956,256.503632 
M68.742538,347.655762 
	C66.446060,346.822998 64.172585,345.356415 61.848938,345.272064 
	C53.703373,344.976410 45.538330,345.040833 37.384960,345.194885 
	C31.315022,345.309570 27.451620,349.027100 27.547638,354.217926 
	C27.644163,359.436371 31.493641,362.873413 37.635239,362.947937 
	C45.623917,363.044922 53.616600,363.081635 61.604015,362.941772 
	C70.455894,362.786774 73.984123,355.893219 68.742538,347.655762 
M52.478722,327.750732 
	C55.634327,327.746002 58.795437,327.858734 61.944351,327.711182 
	C67.844872,327.434692 71.854713,323.547577 71.636093,318.500885 
	C71.420319,313.519775 67.581139,310.065094 61.850258,309.994781 
	C53.713280,309.894928 45.573418,309.903809 37.436176,309.992767 
	C31.396645,310.058807 27.548641,313.599762 27.547779,318.837402 
	C27.546947,323.885986 31.566332,327.550323 37.536228,327.716614 
	C42.183105,327.846100 46.836334,327.747498 52.478722,327.750732 
M32.752640,416.738007 
	C28.871054,418.657074 27.038980,421.768555 27.705622,426.064026 
	C28.299261,429.889099 30.624611,432.964142 34.424480,433.107117 
	C44.530884,433.487366 54.679508,433.569550 64.774574,433.052521 
	C69.298355,432.820831 71.496185,428.968262 71.597275,424.519073 
	C71.694397,420.244568 68.286407,416.214905 63.895130,416.132751 
	C53.770432,415.943451 43.635986,416.275391 32.752640,416.738007 
M57.402050,168.843155 
	C50.245029,168.858047 43.083179,168.718094 35.932640,168.940979 
	C30.959639,169.095963 27.860809,172.463013 27.710680,177.210297 
	C27.564737,181.825272 30.317635,185.819077 34.766865,185.973724 
	C44.570885,186.314484 54.400978,186.296356 64.207375,185.996933 
	C68.513191,185.865448 71.706909,181.609604 71.614670,177.365921 
	C71.526321,173.300934 68.446693,169.641251 64.345505,169.036163 
	C62.385338,168.746964 60.360855,168.893677 57.402050,168.843155 
M69.964348,394.430878 
	C73.507820,386.534637 70.026199,380.864136 61.452858,380.761871 
	C53.488029,380.666870 45.520592,380.681885 37.555405,380.760437 
	C31.201063,380.823090 27.678946,383.996063 27.700201,389.408508 
	C27.721565,394.848389 31.236509,398.053680 37.551826,398.125854 
	C45.516747,398.216858 53.496655,398.409302 61.442173,398.006836 
	C64.167389,397.868805 66.808563,396.071320 69.964348,394.430878 
M63.924847,274.891296 
	C55.097492,274.858856 46.269531,274.749573 37.442993,274.819824 
	C31.116827,274.870178 27.609640,278.166626 27.703472,283.648193 
	C27.793495,288.907288 31.219721,292.084198 37.278675,292.169617 
	C45.439014,292.284698 53.603107,292.274261 61.763813,292.173523 
	C67.333107,292.104797 70.877480,289.410278 71.410034,284.721954 
	C71.977303,279.727966 69.600815,276.462006 63.924847,274.891296 
z"/>
<path fill="#BCC1C5" opacity="1.000000" stroke="none" 
	d="
M238.886932,478.073242 
	C239.002228,476.417969 239.218323,474.762726 239.218491,473.107452 
	C239.233978,329.019623 239.233154,184.931763 239.227814,40.843922 
	C239.227768,39.512848 239.152130,38.181774 239.048065,35.926880 
	C238.988449,29.865191 238.980591,24.727278 238.999680,19.589464 
	C239.024384,12.937571 240.686554,7.112846 246.906067,3.442407 
	C247.532883,3.072504 247.647629,1.834913 248.000000,1.000001 
	C253.354935,1.000000 258.709869,1.000000 264.203461,1.263928 
	C273.698883,6.542284 275.479340,14.822042 275.122620,24.615868 
	C274.681549,36.725849 275.118652,48.867821 275.116455,61.459991 
	C274.974792,100.622200 274.893036,139.320389 274.626892,178.378693 
	C274.463104,187.161163 274.483673,195.583557 274.439972,204.359421 
	C274.417664,205.188232 274.459625,205.663559 274.468201,206.356628 
	C274.474762,206.883652 274.614990,207.137634 274.793335,207.780548 
	C274.725677,225.037521 274.704498,241.850266 274.717804,258.662994 
	C274.749786,299.111969 274.797943,339.560944 274.654572,380.371277 
	C274.481171,393.153564 274.492767,405.574524 274.419678,418.422791 
	C274.612335,425.567902 274.889618,432.285675 275.094360,439.466858 
	C275.015594,458.231995 275.063019,476.533936 274.974243,494.835175 
	C274.942963,501.286774 273.296661,507.056488 267.103638,510.551178 
	C266.475250,510.905823 266.355682,512.162109 266.000000,513.000000 
	C260.311951,513.000000 254.623917,513.000000 248.796051,512.750366 
	C240.681976,507.055878 238.128586,499.349304 238.933578,490.028259 
	C239.275085,486.074097 238.923508,482.060059 238.886932,478.073242 
z"/>
<path fill="#000000" opacity="1.000000" stroke="none" 
	d="
M513.000000,71.000000 
	C513.000000,194.689316 513.000000,318.378632 512.738281,442.862122 
	C509.972931,441.032623 507.469299,438.408936 504.977173,435.333862 
	C504.992401,432.226471 505.059540,429.568756 504.989349,426.914673 
	C504.562317,410.765045 495.117950,397.343781 475.993713,397.932037 
	C464.384827,398.289093 452.755524,397.982880 441.077606,397.532349 
	C439.803558,390.104858 438.587311,383.119659 437.368561,376.120056 
	C449.482391,373.837738 460.812469,368.559937 469.008850,357.539215 
	C479.683868,343.185822 481.329407,322.101685 471.970306,306.615356 
	C468.255066,302.187714 464.687103,298.078949 461.171875,293.638367 
	C469.787628,284.187927 475.242432,273.691589 477.160187,261.120209 
	C479.931061,242.956268 476.015442,226.839325 464.208191,212.751373 
	C460.557587,208.395660 456.832855,204.264297 458.966553,197.877625 
	C459.577484,196.049088 460.004028,194.036926 459.944427,192.126755 
	C459.621460,181.780380 457.635468,171.887878 452.016235,162.915924 
	C441.600830,146.286163 427.158051,136.505722 407.217316,135.595398 
	C409.144287,129.494736 410.986511,123.735565 412.895752,117.649765 
	C413.028046,116.884483 413.093323,116.445824 413.616943,116.004272 
	C435.998047,116.001106 457.924438,116.231133 479.841522,115.878372 
	C487.744751,115.751167 494.366547,112.356369 499.298981,105.502365 
	C505.352509,97.090561 505.177124,87.736572 505.284851,78.050385 
	C508.072357,75.593040 510.536163,73.296516 513.000000,71.000000 
z"/>
<path fill="#000000" opacity="1.000000" stroke="none" 
	d="
M247.531342,1.000001 
	C247.647629,1.834913 247.532883,3.072504 246.906067,3.442407 
	C240.686554,7.112846 239.024384,12.937571 238.999680,19.589464 
	C238.980591,24.727278 238.988449,29.865191 238.935669,35.464798 
	C168.938858,35.951572 98.990562,36.061558 29.042759,35.920311 
	C17.000923,35.895996 8.649412,41.129150 2.833647,51.245296 
	C2.608669,51.636635 2.092804,51.860741 1.356241,52.081383 
	C1.000000,35.024986 1.000000,18.049973 1.000000,1.000000 
	C83.020882,1.000000 165.041779,1.000000 247.531342,1.000001 
z"/>
<path fill="#000000" opacity="1.000000" stroke="none" 
	d="
M238.426132,478.048004 
	C238.923508,482.060059 239.275085,486.074097 238.933578,490.028259 
	C238.128586,499.349304 240.681976,507.055878 248.328110,512.750366 
	C165.787689,513.000000 83.575386,513.000000 1.000000,513.000000 
	C1.000000,496.314209 1.000000,479.625763 1.000004,462.468658 
	C3.108548,464.296234 5.249630,466.563599 7.319241,468.894440 
	C12.637690,474.884094 19.131277,478.038330 27.289631,478.032349 
	C97.514832,477.980896 167.740097,478.014526 238.426132,478.048004 
z"/>
<path fill="#000000" opacity="1.000000" stroke="none" 
	d="
M275.176331,60.995968 
	C275.118652,48.867821 274.681549,36.725849 275.122620,24.615868 
	C275.479340,14.822042 273.698883,6.542284 264.671082,1.263928 
	C324.020905,1.000000 383.041779,1.000000 442.859680,1.262949 
	C442.761475,2.196721 441.892395,2.906165 440.967072,3.532521 
	C428.320007,12.093235 431.969269,30.060747 442.013550,34.653648 
	C442.003754,40.584854 442.014221,46.060459 441.995361,51.535961 
	C441.970123,58.855328 438.886475,61.983833 431.739868,62.000607 
	C411.167999,62.048878 390.596161,62.103024 369.707550,62.010292 
	C367.299469,60.567268 365.208130,59.268810 362.953796,57.651962 
	C359.218750,55.403790 355.607422,53.542969 352.081512,51.532375 
	C335.980469,42.351093 319.355621,35.012405 300.156433,37.027782 
	C293.274445,37.750198 287.199432,40.767155 283.121613,46.224686 
	C279.811829,50.654293 277.776733,56.036331 275.176331,60.995968 
z"/>
<path fill="#000000" opacity="1.000000" stroke="none" 
	d="
M266.468658,513.000000 
	C266.355682,512.162109 266.475250,510.905823 267.103638,510.551178 
	C273.296661,507.056488 274.942963,501.286774 274.974243,494.835175 
	C275.063019,476.533936 275.015594,458.231995 275.418549,439.667114 
	C277.386230,449.663666 282.014221,458.697205 288.851654,466.123383 
	C303.302002,481.818054 321.152832,489.049866 342.838806,486.078918 
	C364.711853,483.082336 379.884705,471.389069 389.962280,451.914459 
	C404.380585,451.983673 418.294464,451.987885 432.208313,452.003387 
	C438.667816,452.010559 441.938568,455.302521 441.990021,461.906067 
	C442.036499,467.868805 442.016174,473.832092 441.705597,479.952789 
	C432.669586,484.162781 429.889313,499.544189 436.928833,506.468811 
	C439.045715,508.551178 440.981323,510.817810 443.000000,513.000000 
	C384.312439,513.000000 325.624878,513.000000 266.468658,513.000000 
z"/>
<path fill="#000000" opacity="1.000000" stroke="none" 
	d="
M460.000000,1.000000 
	C477.593445,1.000000 495.186890,1.000000 513.000000,1.000000 
	C513.000000,18.353611 513.000000,35.708145 512.750183,53.858177 
	C511.752228,54.003010 510.688904,53.500130 510.303925,52.679161 
	C505.627960,42.707508 487.784210,42.284195 480.970856,51.428665 
	C473.750610,61.119293 477.659637,74.355270 486.033295,78.692169 
	C486.009918,81.806122 486.005432,84.471565 485.999176,87.137009 
	C485.982697,94.161530 482.462280,97.958900 475.556213,97.973862 
	C454.066559,98.020424 432.576630,97.954552 410.940796,97.607727 
	C407.196289,91.909866 403.597748,86.536575 400.463684,81.094849 
	C412.069641,81.017860 423.211182,81.022530 434.352631,80.996941 
	C445.133270,80.972176 456.612885,73.299934 458.838989,62.607338 
	C460.760162,53.379471 460.348969,43.666016 461.286804,34.027962 
	C462.067841,33.421383 462.528778,32.951836 462.994476,32.487110 
	C472.269012,23.232605 471.481049,11.714686 461.084106,3.453870 
	C460.464172,2.961325 460.349701,1.832659 460.000000,1.000000 
z"/>
<path fill="#000000" opacity="1.000000" stroke="none" 
	d="
M513.000000,460.000000 
	C513.000000,477.593445 513.000000,495.186890 513.000000,513.000000 
	C495.646393,513.000000 478.291840,513.000000 460.141815,512.750366 
	C461.402252,510.651093 463.732391,509.025818 465.463470,506.910339 
	C470.956329,500.197723 471.219543,486.121613 460.969849,479.375275 
	C460.970093,473.599731 461.107788,468.277527 460.939331,462.965057 
	C460.650848,453.866394 458.315094,445.676605 450.993805,439.383972 
	C444.541534,433.838287 436.986603,432.802032 429.136108,432.521790 
	C432.233948,426.810608 435.194092,421.410187 438.612854,416.005737 
	C450.878845,416.001343 462.686279,415.986542 474.493652,416.005615 
	C482.500153,416.018585 485.986694,419.458130 486.001465,427.266632 
	C486.006805,430.093445 486.038422,432.920166 485.706726,435.853577 
	C478.641174,439.412415 475.978088,449.510071 477.130341,453.992340 
	C479.007233,461.293152 482.981842,467.506989 490.957764,468.769806 
	C498.391296,469.946716 505.779724,469.259918 510.198517,461.465332 
	C510.635193,460.695038 512.042969,460.475281 513.000000,460.000000 
z"/>
<path fill="#F0C419" opacity="1.000000" stroke="none" 
	d="
M459.532410,1.000000 
	C460.349701,1.832659 460.464172,2.961325 461.084106,3.453870 
	C471.481049,11.714686 472.269012,23.232605 462.994476,32.487110 
	C462.528778,32.951836 462.067841,33.421383 460.898376,33.993477 
	C454.150909,37.036137 448.091644,36.671387 442.020782,34.198006 
	C431.969269,30.060747 428.320007,12.093235 440.967072,3.532521 
	C441.892395,2.906165 442.761475,2.196721 443.328369,1.262949 
	C448.354919,1.000000 453.709869,1.000000 459.532410,1.000000 
z"/>
<path fill="#F0C419" opacity="1.000000" stroke="none" 
	d="
M460.969543,479.833008 
	C471.219543,486.121613 470.956329,500.197723 465.463470,506.910339 
	C463.732391,509.025818 461.402252,510.651093 459.673157,512.750366 
	C454.645081,513.000000 449.290131,513.000000 443.467590,513.000000 
	C440.981323,510.817810 439.045715,508.551178 436.928833,506.468811 
	C429.889313,499.544189 432.669586,484.162781 442.087341,479.940002 
	C448.860596,476.475128 454.915802,477.945892 460.969543,479.833008 
z"/>
<path fill="#F0C419" opacity="1.000000" stroke="none" 
	d="
M513.000000,459.532410 
	C512.042969,460.475281 510.635193,460.695038 510.198517,461.465332 
	C505.779724,469.259918 498.391296,469.946716 490.957764,468.769806 
	C482.981842,467.506989 479.007233,461.293152 477.130341,453.992340 
	C475.978088,449.510071 478.641174,439.412415 486.082489,435.815308 
	C492.881805,432.507324 498.927704,433.520599 504.965668,435.785248 
	C507.469299,438.408936 509.972931,441.032623 512.738281,443.328156 
	C513.000000,448.354919 513.000000,453.709869 513.000000,459.532410 
z"/>
<path fill="#F0C419" opacity="1.000000" stroke="none" 
	d="
M486.051392,78.243668 
	C477.659637,74.355270 473.750610,61.119293 480.970856,51.428665 
	C487.784210,42.284195 505.627960,42.707508 510.303925,52.679161 
	C510.688904,53.500130 511.752228,54.003010 512.750183,54.326836 
	C513.000000,59.354931 513.000000,64.709862 513.000000,70.532394 
	C510.536163,73.296516 508.072357,75.593040 504.901855,78.048782 
	C498.153259,81.286346 492.104218,80.734451 486.051392,78.243668 
z"/>
<path fill="#64DAB7" opacity="1.000000" stroke="none" 
	d="
M211.682846,314.519226 
	C214.188522,322.308441 210.714371,327.653595 202.949112,327.682495 
	C168.311066,327.811401 133.672134,327.785370 99.033867,327.690765 
	C93.109505,327.674591 89.066689,323.593658 89.252998,318.542633 
	C89.436287,313.573395 93.316956,310.004730 99.044952,309.995392 
	C133.683411,309.939026 168.322830,309.867767 202.959091,310.148987 
	C205.814590,310.172150 208.649109,312.778198 211.682846,314.519226 
z"/>
<path fill="#64DAB7" opacity="1.000000" stroke="none" 
	d="
M170.000031,239.201492 
	C180.482971,239.201645 190.465942,239.188797 200.448822,239.214294 
	C202.105789,239.218521 203.802307,239.193619 205.411530,239.521225 
	C210.116562,240.479080 213.163971,244.367020 212.846207,248.754532 
	C212.527420,253.156082 209.007431,256.710083 204.255173,256.927307 
	C199.273804,257.154999 194.274811,257.005493 189.283508,257.005829 
	C159.334686,257.007751 129.385818,257.028839 99.437057,256.984680 
	C93.380409,256.975769 89.376808,253.448227 89.249725,248.324768 
	C89.124825,243.289261 93.171997,239.540436 99.120857,239.223846 
	C100.448364,239.153198 101.782417,239.201752 103.113457,239.201706 
	C125.242310,239.200989 147.371170,239.201263 170.000031,239.201492 
z"/>
<path fill="#65DDB9" opacity="1.000000" stroke="none" 
	d="
M105.043869,380.738037 
	C137.008850,380.738159 168.480896,380.737244 199.952927,380.742554 
	C201.617401,380.742828 203.294632,380.674652 204.943893,380.847961 
	C209.389832,381.315155 212.663803,384.789703 212.851700,389.093628 
	C213.042709,393.468872 209.656052,397.415802 205.083115,398.010529 
	C203.605469,398.202698 202.091293,398.148468 200.593842,398.148773 
	C167.623138,398.155426 134.652435,398.154083 101.681725,398.153168 
	C100.682678,398.153137 99.681992,398.175873 98.684853,398.128876 
	C93.019424,397.861816 89.160156,394.200531 89.287361,389.235138 
	C89.409912,384.451111 93.179672,380.979309 98.556793,380.767914 
	C100.552139,380.689453 102.552727,380.744263 105.043869,380.738037 
z"/>
<path fill="#65DDB9" opacity="1.000000" stroke="none" 
	d="
M183.999985,168.845657 
	C190.827347,168.850052 197.156158,168.772995 203.481659,168.884079 
	C208.858810,168.978500 212.674362,172.491333 212.854721,177.248734 
	C213.041183,182.167053 209.144150,186.179840 203.561630,186.192734 
	C168.594818,186.273560 133.627655,186.273895 98.660828,186.200027 
	C93.025826,186.188126 89.152191,182.277176 89.283913,177.336716 
	C89.416512,172.363220 93.264915,168.888992 99.079300,168.877487 
	C127.219444,168.821793 155.359756,168.848358 183.999985,168.845657 
z"/>
<path fill="#65DBB8" opacity="1.000000" stroke="none" 
	d="
M78.198517,103.895691 
	C66.000626,113.204185 54.113823,122.307510 42.083473,131.217010 
	C37.547466,134.576309 32.196598,133.759201 29.230375,129.738785 
	C26.222162,125.661461 27.091761,120.590576 31.671768,117.059013 
	C38.522923,111.776199 45.504654,106.662949 52.412045,101.452660 
	C53.695648,100.484428 54.890560,99.398621 56.637932,97.940109 
	C49.460491,92.545601 42.719433,87.479347 35.978752,82.412598 
	C34.515678,81.312851 33.007961,80.266830 31.600128,79.100327 
	C27.156572,75.418495 26.269581,70.383354 29.300079,66.357353 
	C32.313988,62.353386 37.596523,61.655190 42.169273,65.010582 
	C51.826527,72.096886 61.361916,79.349304 70.944138,86.537788 
	C72.674156,87.835625 74.443993,89.087975 76.100586,90.474648 
	C80.884598,94.479172 81.448486,97.775795 78.198517,103.895691 
z"/>
<path fill="#64D9B7" opacity="1.000000" stroke="none" 
	d="
M136.000015,415.921753 
	C152.991486,415.927490 169.483414,415.867065 185.974197,415.977081 
	C191.320419,416.012756 194.728226,419.251770 195.049515,424.017517 
	C195.388092,429.040039 192.193741,432.811707 186.858063,433.524231 
	C185.217407,433.743317 183.533920,433.679718 181.870010,433.680756 
	C165.711655,433.690643 149.553314,433.688171 133.394958,433.686127 
	C127.897820,433.685425 122.396774,433.803894 116.904579,433.636383 
	C110.746902,433.448608 107.000717,429.927917 107.005043,424.677643 
	C107.009354,419.442535 110.850243,416.080292 117.009598,415.931183 
	C118.008545,415.907013 119.008484,415.922424 120.007965,415.922302 
	C125.171989,415.921661 130.336014,415.921906 136.000015,415.921753 
z"/>
<path fill="#64DAB7" opacity="1.000000" stroke="none" 
	d="
M183.649612,221.799194 
	C162.035461,221.799820 140.880173,221.811478 119.724930,221.781464 
	C117.739647,221.778641 115.687416,221.785217 113.783211,221.314407 
	C109.356560,220.219971 107.032906,217.199783 107.033058,212.627075 
	C107.033211,208.346695 110.303810,204.689697 114.729263,204.171875 
	C117.361076,203.863953 120.051384,204.028534 122.715401,204.027573 
	C143.370956,204.020157 164.026581,203.993729 184.682007,204.041412 
	C191.733994,204.057678 195.962402,208.408203 194.967697,214.390091 
	C194.185898,219.091614 190.786484,221.410858 183.649612,221.799194 
z"/>
<path fill="#64DAB7" opacity="1.000000" stroke="none" 
	d="
M137.000046,345.146759 
	C152.650970,345.147064 167.801956,345.131897 182.952820,345.167664 
	C184.769852,345.171936 186.652664,345.199280 188.389893,345.654816 
	C192.798676,346.810791 195.145355,349.815979 195.034576,354.402344 
	C194.921967,359.064789 192.099045,361.627747 187.819427,362.763855 
	C186.874557,363.014648 185.835602,362.962524 184.839935,362.962952 
	C162.363266,362.972992 139.886032,363.042725 117.410698,362.869568 
	C114.928383,362.850433 111.510017,362.161774 110.210037,360.480988 
	C108.416183,358.161652 107.226852,354.480011 107.582230,351.604797 
	C108.103584,347.386658 111.835373,345.354218 116.023293,345.235992 
	C122.844284,345.043427 129.674011,345.160309 137.000046,345.146759 
z"/>
<path fill="#65DCB9" opacity="1.000000" stroke="none" 
	d="
M191.372406,276.301147 
	C195.036011,279.333069 195.976257,282.869049 194.404205,286.847290 
	C192.781601,290.953400 189.340942,292.226562 185.143707,292.219757 
	C162.489334,292.183014 139.834763,292.238739 117.180473,292.181732 
	C110.806831,292.165680 107.119957,288.942505 107.015625,283.663696 
	C106.906471,278.141144 110.642563,274.825226 117.310654,274.811401 
	C139.798431,274.764771 162.286499,274.759430 184.774002,274.848846 
	C186.862335,274.857147 188.947556,275.648743 191.372406,276.301147 
z"/>
<path fill="#65DCB8" opacity="1.000000" stroke="none" 
	d="
M101.704399,131.612061 
	C98.361748,128.431076 97.091850,125.044479 98.989952,121.010292 
	C100.849808,117.057396 104.175491,115.778114 108.385414,115.816277 
	C119.199982,115.914284 130.016342,115.799316 140.831360,115.869102 
	C147.114258,115.909637 150.890915,119.176125 150.986191,124.399063 
	C151.086792,129.913254 147.351807,133.203583 140.692871,133.242035 
	C129.877762,133.304474 119.061127,133.330261 108.247391,133.193176 
	C106.168533,133.166824 104.100067,132.319778 101.704399,131.612061 
z"/>
<path fill="#64D9B7" opacity="1.000000" stroke="none" 
	d="
M41.169693,221.801239 
	C38.547886,221.662018 36.326153,221.826874 34.269161,221.321381 
	C29.835876,220.231903 27.580593,217.112244 27.581455,212.590607 
	C27.582281,208.247086 30.848192,204.331085 35.261189,204.191757 
	C44.725254,203.892960 54.211216,203.891602 63.675865,204.177353 
	C68.283936,204.316483 71.658371,208.481186 71.641571,212.904358 
	C71.623543,217.650131 67.923851,221.517242 62.585869,221.709396 
	C55.613327,221.960403 48.625626,221.790344 41.169693,221.801239 
z"/>
<path fill="#64DAB7" opacity="1.000000" stroke="none" 
	d="
M33.148216,256.343689 
	C28.487545,253.991226 26.748571,250.464844 27.951546,245.859161 
	C29.177652,241.164902 32.783585,239.280975 37.366875,239.234680 
	C45.518841,239.152313 53.675064,239.082001 61.824112,239.257401 
	C67.773216,239.385468 71.806458,243.328415 71.645844,248.369217 
	C71.482056,253.509613 67.511818,257.001343 61.420612,256.972748 
	C52.121532,256.929138 42.823456,256.670807 33.148216,256.343689 
z"/>
<path fill="#64DAB7" opacity="1.000000" stroke="none" 
	d="
M69.012192,347.925293 
	C73.984123,355.893219 70.455894,362.786774 61.604015,362.941772 
	C53.616600,363.081635 45.623917,363.044922 37.635239,362.947937 
	C31.493641,362.873413 27.644163,359.436371 27.547638,354.217926 
	C27.451620,349.027100 31.315022,345.309570 37.384960,345.194885 
	C45.538330,345.040833 53.703373,344.976410 61.848938,345.272064 
	C64.172585,345.356415 66.446060,346.822998 69.012192,347.925293 
z"/>
<path fill="#64DAB7" opacity="1.000000" stroke="none" 
	d="
M51.982731,327.750488 
	C46.836334,327.747498 42.183105,327.846100 37.536228,327.716614 
	C31.566332,327.550323 27.546947,323.885986 27.547779,318.837402 
	C27.548641,313.599762 31.396645,310.058807 37.436176,309.992767 
	C45.573418,309.903809 53.713280,309.894928 61.850258,309.994781 
	C67.581139,310.065094 71.420319,313.519775 71.636093,318.500885 
	C71.854713,323.547577 67.844872,327.434692 61.944351,327.711182 
	C58.795437,327.858734 55.634327,327.746002 51.982731,327.750488 
z"/>
<path fill="#64D9B7" opacity="1.000000" stroke="none" 
	d="
M33.129066,416.566895 
	C43.635986,416.275391 53.770432,415.943451 63.895130,416.132751 
	C68.286407,416.214905 71.694397,420.244568 71.597275,424.519073 
	C71.496185,428.968262 69.298355,432.820831 64.774574,433.052521 
	C54.679508,433.569550 44.530884,433.487366 34.424480,433.107117 
	C30.624611,432.964142 28.299261,429.889099 27.705622,426.064026 
	C27.038980,421.768555 28.871054,418.657074 33.129066,416.566895 
z"/>
<path fill="#65DCB8" opacity="1.000000" stroke="none" 
	d="
M57.883774,168.843048 
	C60.360855,168.893677 62.385338,168.746964 64.345505,169.036163 
	C68.446693,169.641251 71.526321,173.300934 71.614670,177.365921 
	C71.706909,181.609604 68.513191,185.865448 64.207375,185.996933 
	C54.400978,186.296356 44.570885,186.314484 34.766865,185.973724 
	C30.317635,185.819077 27.564737,181.825272 27.710680,177.210297 
	C27.860809,172.463013 30.959639,169.095963 35.932640,168.940979 
	C43.083179,168.718094 50.245029,168.858047 57.883774,168.843048 
z"/>
<path fill="#65DCB8" opacity="1.000000" stroke="none" 
	d="
M69.726242,394.731445 
	C66.808563,396.071320 64.167389,397.868805 61.442173,398.006836 
	C53.496655,398.409302 45.516747,398.216858 37.551826,398.125854 
	C31.236509,398.053680 27.721565,394.848389 27.700201,389.408508 
	C27.678946,383.996063 31.201063,380.823090 37.555405,380.760437 
	C45.520592,380.681885 53.488029,380.666870 61.452858,380.761871 
	C70.026199,380.864136 73.507820,386.534637 69.726242,394.731445 
z"/>
<path fill="#65DCB8" opacity="1.000000" stroke="none" 
	d="
M64.354515,274.943512 
	C69.600815,276.462006 71.977303,279.727966 71.410034,284.721954 
	C70.877480,289.410278 67.333107,292.104797 61.763813,292.173523 
	C53.603107,292.274261 45.439014,292.284698 37.278675,292.169617 
	C31.219721,292.084198 27.793495,288.907288 27.703472,283.648193 
	C27.609640,278.166626 31.116827,274.870178 37.442993,274.819824 
	C46.269531,274.749573 55.097492,274.858856 64.354515,274.943512 
z"/>
<path fill="#FF5364" opacity="1.000000" stroke="none" 
	d="
M438.154266,416.009735 
	C435.194092,421.410187 432.233948,426.810608 428.800842,432.620056 
	C428.026520,433.158508 427.651154,433.213318 427.434387,433.428131 
	C417.774567,443.001709 406.377075,448.744232 392.625488,449.553741 
	C391.528259,449.618317 390.511810,451.055023 389.457794,451.854095 
	C379.884705,471.389069 364.711853,483.082336 342.838806,486.078918 
	C321.152832,489.049866 303.302002,481.818054 288.851654,466.123383 
	C282.014221,458.697205 277.386230,449.663666 275.491089,439.203674 
	C274.889618,432.285675 274.612335,425.567902 274.704987,418.250671 
	C275.333679,417.235901 275.737274,416.850616 275.830261,416.401031 
	C279.316864,399.547943 288.950287,387.278625 304.553223,380.463837 
	C311.391357,377.477173 319.200195,376.645264 326.620819,375.084930 
	C331.118591,374.139191 335.046936,370.352142 334.845154,366.549774 
	C334.592285,361.785980 330.717651,358.244507 325.481232,358.003906 
	C313.293549,357.443878 301.967224,360.586578 291.753357,366.983063 
	C285.750397,370.742493 280.453857,375.629883 274.839569,380.009918 
	C274.797943,339.560944 274.749786,299.111969 274.717804,258.662994 
	C274.704498,241.850266 274.725677,225.037521 274.774536,207.568146 
	C274.763092,206.633224 274.657654,206.375687 274.501587,206.138885 
	C274.459625,205.663559 274.417664,205.188232 274.719452,204.228760 
	C279.306213,195.728073 285.338348,190.860138 294.992981,190.568726 
	C299.681915,190.427200 302.709137,184.914917 301.944733,180.194382 
	C301.151062,175.293121 295.561981,171.881561 289.446442,173.268372 
	C284.465149,174.397995 279.682159,176.402206 274.811249,178.018585 
	C274.893036,139.320389 274.974792,100.622200 275.116455,61.459988 
	C277.776733,56.036331 279.811829,50.654293 283.121613,46.224686 
	C287.199432,40.767155 293.274445,37.750198 300.156433,37.027782 
	C319.355621,35.012405 335.980469,42.351093 352.081512,51.532375 
	C355.607422,53.542969 359.218750,55.403790 362.577087,57.715977 
	C339.238129,64.396820 323.473389,84.739037 321.065155,109.531021 
	C320.406708,116.309280 323.542816,120.680397 329.100220,121.003075 
	C335.607056,121.380882 338.039154,118.084602 339.195618,110.863235 
	C340.248047,104.291725 341.678040,97.143242 345.210541,91.729576 
	C354.641449,77.276253 368.524292,71.157127 386.253418,74.096039 
	C391.067444,76.508011 395.533356,78.835648 399.999237,81.163277 
	C403.597748,86.536575 407.196289,91.909866 410.828186,98.011139 
	C411.627258,104.495132 412.392914,110.251152 413.158569,116.007164 
	C413.093323,116.445824 413.028046,116.884483 412.445312,117.650711 
	C406.177124,118.669357 400.277466,118.762085 394.700256,120.150261 
	C362.545227,128.153656 339.514587,157.861237 339.987732,190.269165 
	C340.080719,196.637817 342.776337,199.833801 348.180573,199.982727 
	C353.721924,200.135437 356.467102,197.145721 357.063141,190.908066 
	C357.488617,186.455933 358.050903,181.966461 359.123047,177.634964 
	C364.802826,154.688614 385.796906,136.551315 407.132568,135.936874 
	C427.158051,136.505722 441.600830,146.286163 452.016235,162.915924 
	C457.635468,171.887878 459.621460,181.780380 459.944427,192.126755 
	C460.004028,194.036926 459.577484,196.049088 458.966553,197.877625 
	C456.832855,204.264297 460.557587,208.395660 464.208191,212.751373 
	C476.015442,226.839325 479.931061,242.956268 477.160187,261.120209 
	C475.242432,273.691589 469.787628,284.187927 460.819611,293.703064 
	C447.263885,302.717743 433.189575,308.312988 417.125702,308.161896 
	C412.659668,308.119904 409.126038,312.484863 409.029388,316.799957 
	C408.928131,321.319366 412.528900,325.385620 417.235992,325.905579 
	C418.876617,326.086792 420.565399,326.084930 422.210632,325.933228 
	C440.605988,324.237305 457.512543,318.600403 472.117615,306.934204 
	C481.329407,322.101685 479.683868,343.185822 469.008850,357.539215 
	C460.812469,368.559937 449.482391,373.837738 437.368561,376.120056 
	C438.587311,383.119659 439.803558,390.104858 440.971924,397.953674 
	C440.000763,404.548096 439.077515,410.278900 438.154266,416.009735 
M390.618958,289.030945 
	C394.815277,290.014160 399.047760,291.860626 403.195587,291.686798 
	C406.117523,291.564362 409.585571,289.267120 411.616241,286.911896 
	C414.183167,283.934601 413.057129,279.858673 410.321808,277.435638 
	C408.247559,275.598206 405.095154,274.614960 402.264008,274.059662 
	C391.645508,271.977112 379.906189,262.549927 378.778625,253.443924 
	C393.097595,249.626495 405.159119,242.127029 414.802338,230.733749 
	C425.557983,218.026260 430.953796,203.372833 430.953583,186.779968 
	C430.953491,180.125809 425.547546,176.365387 419.415283,178.404175 
	C414.670715,179.981583 413.325317,183.971329 413.138519,188.245010 
	C412.451904,203.952576 406.213989,216.820160 393.887970,226.575256 
	C383.135803,235.084763 370.871643,238.732407 357.158264,237.280167 
	C345.341156,236.028763 335.194885,231.327789 326.494751,223.169434 
	C322.240417,219.180023 316.918304,219.388641 313.573975,222.984406 
	C309.850403,226.987900 310.113190,231.764481 314.736267,236.181488 
	C326.304474,247.234055 340.049561,253.571732 356.053680,255.150726 
	C357.825348,255.325516 360.307098,257.160339 360.923065,258.801849 
	C366.268158,273.045776 376.112274,282.769836 390.618958,289.030945 
M346.472595,412.022736 
	C342.188995,420.816467 339.484436,429.960205 339.970276,439.886749 
	C340.258759,445.779755 342.979645,448.886261 348.279205,448.985840 
	C353.637024,449.086487 356.537933,446.309723 356.997223,440.324341 
	C357.885559,428.748322 361.091919,418.059021 369.170044,409.392548 
	C378.186279,399.719543 389.315826,394.385559 402.660248,393.983032 
	C406.987885,393.852509 410.221954,392.254089 412.093201,387.964203 
	C413.729828,384.212280 412.510773,380.592316 409.946777,379.019348 
	C406.850952,377.120148 402.499725,376.153961 398.872040,376.528625 
	C394.724182,376.957001 394.032318,375.808411 393.953278,372.197235 
	C393.253510,340.230591 363.556641,310.911621 331.453247,311.962219 
	C325.682526,312.151093 321.163086,315.663788 321.071838,320.366577 
	C320.983490,324.919708 325.196075,328.749817 330.827484,328.991364 
	C356.594330,330.096588 378.667603,352.180939 375.892517,378.411774 
	C375.674744,380.470215 374.184662,383.092224 372.475861,384.181152 
	C361.601959,391.110504 352.361969,399.454193 346.472595,412.022736 
z"/>
<path fill="#DF4F61" opacity="1.000000" stroke="none" 
	d="
M274.654572,380.371277 
	C280.453857,375.629883 285.750397,370.742493 291.753357,366.983063 
	C301.967224,360.586578 313.293549,357.443878 325.481232,358.003906 
	C330.717651,358.244507 334.592285,361.785980 334.845154,366.549774 
	C335.046936,370.352142 331.118591,374.139191 326.620819,375.084930 
	C319.200195,376.645264 311.391357,377.477173 304.553223,380.463837 
	C288.950287,387.278625 279.316864,399.547943 275.830261,416.401031 
	C275.737274,416.850616 275.333679,417.235901 274.789612,417.823303 
	C274.492767,405.574524 274.481171,393.153564 274.654572,380.371277 
z"/>
<path fill="#DF5062" opacity="1.000000" stroke="none" 
	d="
M274.626892,178.378693 
	C279.682159,176.402206 284.465149,174.397995 289.446442,173.268372 
	C295.561981,171.881561 301.151062,175.293121 301.944733,180.194382 
	C302.709137,184.914917 299.681915,190.427200 294.992981,190.568726 
	C285.338348,190.860138 279.306213,195.728073 274.783722,203.875275 
	C274.483673,195.583557 274.463104,187.161163 274.626892,178.378693 
z"/>
<path fill="#DF5062" opacity="1.000000" stroke="none" 
	d="
M274.468201,206.356628 
	C274.657654,206.375687 274.763092,206.633224 274.836700,207.123917 
	C274.614990,207.137634 274.474762,206.883652 274.468201,206.356628 
z"/>
<path fill="#3C97D3" opacity="1.000000" stroke="none" 
	d="
M413.616943,116.004272 
	C412.392914,110.251152 411.627258,104.495132 410.974213,98.335709 
	C432.576630,97.954552 454.066559,98.020424 475.556213,97.973862 
	C482.462280,97.958900 485.982697,94.161530 485.999176,87.137009 
	C486.005432,84.471565 486.009918,81.806122 486.033295,78.692169 
	C492.104218,80.734451 498.153259,81.286346 504.578125,78.209610 
	C505.177124,87.736572 505.352509,97.090561 499.298981,105.502365 
	C494.366547,112.356369 487.744751,115.751167 479.841522,115.878372 
	C457.924438,116.231133 435.998047,116.001106 413.616943,116.004272 
z"/>
<path fill="#DF4D60" opacity="1.000000" stroke="none" 
	d="
M407.217316,135.595398 
	C385.796906,136.551315 364.802826,154.688614 359.123047,177.634964 
	C358.050903,181.966461 357.488617,186.455933 357.063141,190.908066 
	C356.467102,197.145721 353.721924,200.135437 348.180573,199.982727 
	C342.776337,199.833801 340.080719,196.637817 339.987732,190.269165 
	C339.514587,157.861237 362.545227,128.153656 394.700256,120.150261 
	C400.277466,118.762085 406.177124,118.669357 412.378296,117.977341 
	C410.986511,123.735565 409.144287,129.494736 407.217316,135.595398 
z"/>
<path fill="#3C97D2" opacity="1.000000" stroke="none" 
	d="
M438.612854,416.005737 
	C439.077515,410.278900 440.000763,404.548096 441.029724,398.395935 
	C452.755524,397.982880 464.384827,398.289093 475.993713,397.932037 
	C495.117950,397.343781 504.562317,410.765045 504.989349,426.914673 
	C505.059540,429.568756 504.992401,432.226471 504.977173,435.333862 
	C498.927704,433.520599 492.881805,432.507324 486.433777,435.708710 
	C486.038422,432.920166 486.006805,430.093445 486.001465,427.266632 
	C485.986694,419.458130 482.500153,416.018585 474.493652,416.005615 
	C462.686279,415.986542 450.878845,416.001343 438.612854,416.005737 
z"/>
<path fill="#E04D60" opacity="1.000000" stroke="none" 
	d="
M471.970306,306.615356 
	C457.512543,318.600403 440.605988,324.237305 422.210632,325.933228 
	C420.565399,326.084930 418.876617,326.086792 417.235992,325.905579 
	C412.528900,325.385620 408.928131,321.319366 409.029388,316.799957 
	C409.126038,312.484863 412.659668,308.119904 417.125702,308.161896 
	C433.189575,308.312988 447.263885,302.717743 460.766907,294.034912 
	C464.687103,298.078949 468.255066,302.187714 471.970306,306.615356 
z"/>
<path fill="#3C97D2" opacity="1.000000" stroke="none" 
	d="
M400.463684,81.094849 
	C395.533356,78.835648 391.067444,76.508011 386.062744,73.827530 
	C380.357391,69.701401 375.190826,65.928131 370.024292,62.154861 
	C390.596161,62.103024 411.167999,62.048878 431.739868,62.000607 
	C438.886475,61.983833 441.970123,58.855328 441.995361,51.535961 
	C442.014221,46.060459 442.003754,40.584854 442.013550,34.653648 
	C448.091644,36.671387 454.150909,37.036137 460.580505,34.132751 
	C460.348969,43.666016 460.760162,53.379471 458.838989,62.607338 
	C456.612885,73.299934 445.133270,80.972176 434.352631,80.996941 
	C423.211182,81.022530 412.069641,81.017860 400.463684,81.094849 
z"/>
<path fill="#DF4D60" opacity="1.000000" stroke="none" 
	d="
M369.707550,62.010292 
	C375.190826,65.928131 380.357391,69.701401 385.714600,73.743187 
	C368.524292,71.157127 354.641449,77.276253 345.210541,91.729576 
	C341.678040,97.143242 340.248047,104.291725 339.195618,110.863235 
	C338.039154,118.084602 335.607056,121.380882 329.100220,121.003075 
	C323.542816,120.680397 320.406708,116.309280 321.065155,109.531021 
	C323.473389,84.739037 339.238129,64.396820 362.740112,58.034363 
	C365.208130,59.268810 367.299469,60.567268 369.707550,62.010292 
z"/>
<path fill="#3C97D2" opacity="1.000000" stroke="none" 
	d="
M389.962280,451.914459 
	C390.511810,451.055023 391.528259,449.618317 392.625488,449.553741 
	C406.377075,448.744232 417.774567,443.001709 427.434387,433.428131 
	C427.651154,433.213318 428.026520,433.158508 428.663177,432.930786 
	C436.986603,432.802032 444.541534,433.838287 450.993805,439.383972 
	C458.315094,445.676605 460.650848,453.866394 460.939331,462.965057 
	C461.107788,468.277527 460.970093,473.599731 460.969849,479.375275 
	C454.915802,477.945892 448.860596,476.475128 442.407013,479.782349 
	C442.016174,473.832092 442.036499,467.868805 441.990021,461.906067 
	C441.938568,455.302521 438.667816,452.010559 432.208313,452.003387 
	C418.294464,451.987885 404.380585,451.983673 389.962280,451.914459 
z"/>
<path fill="#DF4D60" opacity="1.000000" stroke="none" 
	d="
M390.248962,288.911987 
	C376.112274,282.769836 366.268158,273.045776 360.923065,258.801849 
	C360.307098,257.160339 357.825348,255.325516 356.053680,255.150726 
	C340.049561,253.571732 326.304474,247.234055 314.736267,236.181488 
	C310.113190,231.764481 309.850403,226.987900 313.573975,222.984406 
	C316.918304,219.388641 322.240417,219.180023 326.494751,223.169434 
	C335.194885,231.327789 345.341156,236.028763 357.158264,237.280167 
	C370.871643,238.732407 383.135803,235.084763 393.887970,226.575256 
	C406.213989,216.820160 412.451904,203.952576 413.138519,188.245010 
	C413.325317,183.971329 414.670715,179.981583 419.415283,178.404175 
	C425.547546,176.365387 430.953491,180.125809 430.953583,186.779968 
	C430.953796,203.372833 425.557983,218.026260 414.802338,230.733749 
	C405.159119,242.127029 393.097595,249.626495 378.778625,253.443924 
	C379.906189,262.549927 391.645508,271.977112 402.264008,274.059662 
	C405.095154,274.614960 408.247559,275.598206 410.321808,277.435638 
	C413.057129,279.858673 414.183167,283.934601 411.616241,286.911896 
	C409.585571,289.267120 406.117523,291.564362 403.195587,291.686798 
	C399.047760,291.860626 394.815277,290.014160 390.248962,288.911987 
z"/>
<path fill="#DF4D60" opacity="1.000000" stroke="none" 
	d="
M346.641876,411.688721 
	C352.361969,399.454193 361.601959,391.110504 372.475861,384.181152 
	C374.184662,383.092224 375.674744,380.470215 375.892517,378.411774 
	C378.667603,352.180939 356.594330,330.096588 330.827484,328.991364 
	C325.196075,328.749817 320.983490,324.919708 321.071838,320.366577 
	C321.163086,315.663788 325.682526,312.151093 331.453247,311.962219 
	C363.556641,310.911621 393.253510,340.230591 393.953278,372.197235 
	C394.032318,375.808411 394.724182,376.957001 398.872040,376.528625 
	C402.499725,376.153961 406.850952,377.120148 409.946777,379.019348 
	C412.510773,380.592316 413.729828,384.212280 412.093201,387.964203 
	C410.221954,392.254089 406.987885,393.852509 402.660248,393.983032 
	C389.315826,394.385559 378.186279,399.719543 369.170044,409.392548 
	C361.091919,418.059021 357.885559,428.748322 356.997223,440.324341 
	C356.537933,446.309723 353.637024,449.086487 348.279205,448.985840 
	C342.979645,448.886261 340.258759,445.779755 339.970276,439.886749 
	C339.484436,429.960205 342.188995,420.816467 346.641876,411.688721 
z"/>
</svg>