<svg version="1.1" id="Layer_1" xmlns="http://www.w3.org/2000/svg" xmlns:xlink="http://www.w3.org/1999/xlink" x="0px" y="0px"
	 width="100%" viewBox="0 0 512 512" enable-background="new 0 0 512 512" xml:space="preserve">
<path fill="#000000" opacity="1.000000" stroke="none" 
	d="
M361.000000,1.000001 
	C411.639496,1.000000 462.279022,1.000000 512.959229,1.000000 
	C512.959229,171.547989 512.959229,342.095978 512.959229,513.000000 
	C462.646332,513.000000 412.291809,513.000000 361.149048,512.741211 
	C363.231262,508.847748 368.139526,505.430847 368.555817,501.534088 
	C369.473572,492.942993 368.947083,483.974091 367.529022,475.404419 
	C364.733765,458.511993 358.466858,442.578430 347.474945,429.448517 
	C337.721130,417.797363 326.618469,407.164490 315.327454,396.948303 
	C307.161774,389.559906 297.712769,383.589752 288.995483,376.673828 
	C300.805420,367.702057 313.059387,359.733063 323.946808,350.202881 
	C336.309998,339.380829 347.534180,327.364105 355.385651,312.450531 
	C363.926575,296.227386 369.368683,279.438232 368.886597,260.498474 
	C370.225647,238.276718 365.065643,218.145721 354.086914,199.339630 
	C344.169403,182.351318 330.713257,168.664001 315.301971,156.755707 
	C306.588348,150.022659 297.657745,143.570450 288.988190,136.680542 
	C289.659424,135.948517 290.130493,135.470673 290.680634,135.115097 
	C310.238617,122.473640 328.487152,108.311615 343.355774,90.163574 
	C360.015656,69.829201 368.942780,46.756157 369.123108,20.273952 
	C369.175232,12.623334 368.009583,6.202246 360.866913,2.125950 
	C360.738800,2.052839 360.948120,1.388482 361.000000,1.000001 
z"/>
<path fill="#000000" opacity="1.000000" stroke="none" 
	d="
M153.000000,513.000000 
	C102.360504,513.000000 51.721016,513.000000 1.040761,513.000000 
	C1.040761,342.452057 1.040761,171.904083 1.040761,1.000000 
	C51.353668,1.000000 101.708176,1.000000 152.855972,1.256247 
	C149.548981,4.764099 145.347794,7.960660 145.004303,13.831392 
	C143.762085,35.061836 148.656799,54.853550 159.046753,73.336807 
	C170.036789,92.887596 185.957642,107.868767 203.623047,121.195892 
	C210.727875,126.555916 217.974121,131.728500 224.997406,137.300385 
	C213.308563,146.162720 201.186935,154.030914 190.388016,163.420364 
	C174.564880,177.178253 160.779282,192.875427 153.062256,212.887650 
	C148.095306,225.768173 144.147461,238.906250 145.104645,253.457489 
	C143.771515,275.060303 148.691681,294.700714 158.992020,313.151031 
	C170.039917,332.940369 186.131638,347.969269 203.921570,361.428375 
	C210.916321,366.720337 218.081421,371.787140 225.016327,377.276794 
	C224.362991,378.024963 223.904022,378.517487 223.355499,378.871185 
	C203.824356,391.466187 185.601715,405.586029 170.777405,423.707031 
	C153.723907,444.553009 144.644073,468.186829 144.880081,495.354034 
	C144.941147,502.383453 146.540787,507.943726 152.877975,511.562531 
	C153.114990,511.697845 152.968033,512.505615 153.000000,513.000000 
z"/>
<path fill="#5AD7FF" opacity="1.000000" stroke="none" 
	d="
M225.156006,136.986389 
	C217.974121,131.728500 210.727875,126.555916 203.623047,121.195892 
	C185.957642,107.868767 170.036789,92.887596 159.046753,73.336807 
	C148.656799,54.853550 143.762085,35.061836 145.004303,13.831392 
	C145.347794,7.960660 149.548981,4.764099 153.324631,1.256247 
	C158.022095,1.000000 163.044189,1.000000 168.208557,1.256147 
	C171.227005,5.091671 174.979050,8.295816 176.720749,12.361229 
	C178.304260,16.057425 177.702423,20.689850 177.973755,25.353020 
	C178.947296,30.876871 180.011002,35.957264 181.046570,41.415924 
	C181.678513,43.245392 182.450378,44.656921 182.981628,46.153847 
	C189.330078,64.042252 202.232056,76.842369 216.188568,89.226395 
	C220.050125,92.517509 223.680450,95.686333 227.628799,98.390923 
	C231.252716,100.873306 235.219452,102.855225 239.124969,105.391495 
	C245.142990,109.538986 251.071213,113.352631 257.092712,117.488693 
	C266.780609,124.005432 276.362457,130.219803 285.994141,136.355942 
	C286.761353,136.844711 287.873199,136.792526 288.824890,136.991730 
	C297.657745,143.570450 306.588348,150.022659 315.301971,156.755707 
	C330.713257,168.664001 344.169403,182.351318 354.086914,199.339630 
	C365.065643,218.145721 370.225647,238.276718 368.681671,260.768829 
	C364.855530,269.972595 358.055176,274.215363 350.307281,272.805847 
	C342.139862,271.320038 337.177948,264.657990 336.946960,255.136108 
	C336.896912,253.072891 336.275146,251.023560 335.953674,248.542877 
	C335.982391,247.119598 336.117340,246.095795 335.944641,245.126801 
	C332.984070,228.517212 325.789917,213.922379 314.809082,200.777191 
	C312.554138,198.165131 310.564575,195.667816 308.178772,193.635712 
	C304.582916,190.572998 300.710266,187.835312 296.876923,184.626541 
	C283.532684,175.140335 270.266785,165.987045 256.917053,156.506744 
	C247.230743,149.976318 237.641327,143.752487 228.001053,137.608459 
	C227.232666,137.118744 226.112625,137.180771 225.156006,136.986389 
z"/>
<path fill="#F05A4B" opacity="1.000000" stroke="none" 
	d="
M225.168961,376.956482 
	C218.081421,371.787140 210.916321,366.720337 203.921570,361.428375 
	C186.131638,347.969269 170.039917,332.940369 158.992020,313.151031 
	C148.691681,294.700714 143.771515,275.060303 145.307922,253.189850 
	C149.071548,244.001724 155.893265,239.761368 163.717438,241.178009 
	C171.854309,242.651260 176.858154,249.216537 177.047943,258.375122 
	C177.094116,260.603485 177.729355,262.819641 178.054657,265.464722 
	C179.788986,283.907074 187.667145,299.190643 199.202698,313.201050 
	C205.243378,318.689819 211.158905,323.868988 217.156342,329.377563 
	C230.491806,338.860168 243.745361,348.013306 257.101288,357.485474 
	C266.794281,364.001129 276.372040,370.217926 286.000061,376.355896 
	C286.767578,376.845215 287.882568,376.789551 288.836060,376.987152 
	C297.712769,383.589752 307.161774,389.559906 315.327454,396.948303 
	C326.618469,407.164490 337.721130,417.797363 347.474945,429.448517 
	C358.466858,442.578430 364.733765,458.511993 367.529022,475.404419 
	C368.947083,483.974091 369.473572,492.942993 368.555817,501.534088 
	C368.139526,505.430847 363.231262,508.847748 360.680359,512.741211 
	C355.977905,513.000000 350.955811,513.000000 345.786438,512.741089 
	C342.771118,508.888062 339.038147,505.664856 337.290649,501.590210 
	C335.703949,497.890442 336.277985,493.264038 336.114319,488.775146 
	C335.190338,483.319824 334.051483,478.135529 332.939941,472.577271 
	C332.316498,470.726776 331.581299,469.281189 331.027863,467.769043 
	C324.540222,450.042480 311.814301,437.166107 297.828857,424.843323 
	C295.582642,422.671875 293.645386,420.549469 291.318512,419.019592 
	C285.961761,415.497620 280.415649,412.263702 274.843536,408.588287 
	C268.826874,404.453552 262.913086,400.643463 256.906555,396.509460 
	C247.076157,389.903656 237.348465,383.606049 227.577866,377.375732 
	C226.943634,376.971344 225.979584,377.084229 225.168961,376.956482 
z"/>
<path fill="#D73728" opacity="1.000000" stroke="none" 
	d="
M288.988190,136.680542 
	C287.873199,136.792526 286.761353,136.844711 285.994141,136.355942 
	C276.362457,130.219803 266.780609,124.005432 257.411041,117.332397 
	C263.294159,113.237267 268.952209,109.620842 274.610291,106.004417 
	C274.481262,105.613724 274.352264,105.223022 274.223236,104.832329 
	C268.482056,104.832329 262.740906,104.832329 256.999756,104.376389 
	C256.999756,99.002869 256.999725,94.085274 257.464111,89.100609 
	C265.913635,89.022354 273.984741,88.265678 281.863922,89.173805 
	C293.843658,90.554535 302.418091,86.445618 310.444275,77.490250 
	C320.114838,66.700119 328.044495,55.252586 333.139709,40.832939 
	C307.432892,40.832939 282.216370,40.832939 256.999786,40.377594 
	C256.999756,35.003853 256.999786,30.085457 257.464233,25.100233 
	C283.820343,25.033405 309.712006,25.033405 335.394562,25.033405 
	C335.715485,24.118343 335.906342,23.820324 335.913513,23.517950 
	C336.116486,14.959366 337.049652,6.727596 345.419891,1.722035 
	C345.422821,1.720289 345.146088,1.250920 345.000000,1.000000 
	C350.022095,1.000000 355.044189,1.000000 360.533142,1.000001 
	C360.948120,1.388482 360.738800,2.052839 360.866913,2.125950 
	C368.009583,6.202246 369.175232,12.623334 369.123108,20.273952 
	C368.942780,46.756157 360.015656,69.829201 343.355774,90.163574 
	C328.487152,108.311615 310.238617,122.473640 290.680634,135.115097 
	C290.130493,135.470673 289.659424,135.948517 288.988190,136.680542 
z"/>
<path fill="#2387C3" opacity="1.000000" stroke="none" 
	d="
M225.016327,377.276794 
	C225.979584,377.084229 226.943634,376.971344 227.577866,377.375732 
	C237.348465,383.606049 247.076157,389.903656 256.587860,396.666199 
	C250.696869,400.765106 245.031860,404.383392 239.366837,408.001678 
	C239.492523,408.390076 239.618210,408.778473 239.743881,409.166870 
	C245.495972,409.166870 251.248062,409.166870 257.000122,409.622864 
	C257.000092,414.996948 257.000092,419.915039 256.535858,424.901184 
	C246.083069,424.979523 236.066498,425.452850 226.115128,424.849823 
	C218.496994,424.388153 213.262512,427.044189 207.845520,432.332947 
	C196.022476,443.875977 186.386002,456.569122 180.991821,473.166870 
	C206.546921,473.166870 231.773529,473.166870 257.000122,473.622253 
	C257.000092,478.996124 257.000122,483.914612 256.535858,488.901184 
	C230.158981,488.969269 204.246353,488.969269 178.169342,488.969269 
	C177.848450,498.385712 177.311813,507.142365 168.491531,512.305237 
	C168.661026,512.536804 168.830521,512.768433 169.000000,513.000000 
	C163.977905,513.000000 158.955811,513.000000 153.466858,513.000000 
	C152.968033,512.505615 153.114990,511.697845 152.877975,511.562531 
	C146.540787,507.943726 144.941147,502.383453 144.880081,495.354034 
	C144.644073,468.186829 153.723907,444.553009 170.777405,423.707031 
	C185.601715,405.586029 203.824356,391.466187 223.355499,378.871185 
	C223.904022,378.517487 224.362991,378.024963 225.016327,377.276794 
z"/>
<path fill="#000000" opacity="1.000000" stroke="none" 
	d="
M169.468658,513.000000 
	C168.830521,512.768433 168.661026,512.536804 168.491531,512.305237 
	C177.311813,507.142365 177.848450,498.385712 178.169342,488.969269 
	C204.246353,488.969269 230.158981,488.969269 257.000305,488.967926 
	C283.919159,488.993103 309.909302,489.019623 335.899445,489.046143 
	C336.277985,493.264038 335.703949,497.890442 337.290649,501.590210 
	C339.038147,505.664856 342.771118,508.888062 345.319580,512.741089 
	C286.645782,513.000000 228.291550,513.000000 169.468658,513.000000 
z"/>
<path fill="#000000" opacity="1.000000" stroke="none" 
	d="
M344.531342,1.000000 
	C345.146088,1.250920 345.422821,1.720289 345.419891,1.722035 
	C337.049652,6.727596 336.116486,14.959366 335.913513,23.517950 
	C335.906342,23.820324 335.715485,24.118343 335.394562,25.033405 
	C309.712006,25.033405 283.820343,25.033405 256.999817,25.032248 
	C230.068619,24.990580 204.066284,24.950069 178.063934,24.909561 
	C177.702423,20.689850 178.304260,16.057425 176.720749,12.361229 
	C174.979050,8.295816 171.227005,5.091671 168.675415,1.256147 
	C227.354233,1.000000 285.708466,1.000000 344.531342,1.000000 
z"/>
<path fill="#2387C3" opacity="1.000000" stroke="none" 
	d="
M288.995483,376.673828 
	C287.882568,376.789551 286.767578,376.845215 286.000061,376.355896 
	C276.372040,370.217926 266.794281,364.001129 257.418091,357.322815 
	C270.758423,348.054169 283.884369,339.267212 297.010315,330.480255 
	C296.747437,329.931183 296.484589,329.382111 296.221710,328.833038 
	C283.147766,328.833038 270.073822,328.833038 256.999908,328.377686 
	C256.999939,323.003845 256.999908,318.085419 257.464142,313.098907 
	C275.586334,313.020538 293.244843,313.075287 310.901245,312.905792 
	C312.800659,312.887543 315.512695,312.125610 316.441650,310.755371 
	C321.199066,303.738098 325.945465,296.640533 329.825012,289.121765 
	C333.606689,281.792633 335.414673,273.711243 335.970215,264.833099 
	C309.253815,264.833099 283.126892,264.833099 257.000000,264.377319 
	C257.000000,259.003326 256.999969,254.085114 257.464417,249.098846 
	C283.924774,249.009796 309.920746,248.988815 335.916687,248.967834 
	C336.275146,251.023560 336.896912,253.072891 336.946960,255.136108 
	C337.177948,264.657990 342.139862,271.320038 350.307281,272.805847 
	C358.055176,274.215363 364.855530,269.972595 368.629089,261.232361 
	C369.368683,279.438232 363.926575,296.227386 355.385651,312.450531 
	C347.534180,327.364105 336.309998,339.380829 323.946808,350.202881 
	C313.059387,359.733063 300.805420,367.702057 288.995483,376.673828 
z"/>
<path fill="#D73728" opacity="1.000000" stroke="none" 
	d="
M256.999969,249.166916 
	C256.999969,254.085114 257.000000,259.003326 256.535522,264.444092 
	C230.078629,264.991608 204.086197,265.016510 178.093750,265.041412 
	C177.729355,262.819641 177.094116,260.603485 177.047943,258.375122 
	C176.858154,249.216537 171.854309,242.651260 163.717438,241.178009 
	C155.893265,239.761368 149.071548,244.001724 145.369263,252.724442 
	C144.147461,238.906250 148.095306,225.768173 153.062256,212.887650 
	C160.779282,192.875427 174.564880,177.178253 190.388016,163.420364 
	C201.186935,154.030914 213.308563,146.162720 224.997406,137.300385 
	C226.112625,137.180771 227.232666,137.118744 228.001053,137.608459 
	C237.641327,143.752487 247.230743,149.976318 256.600403,156.667786 
	C242.980331,165.581329 229.574219,173.980469 217.821609,185.167099 
	C230.881149,185.167099 243.940704,185.167099 257.000275,185.622437 
	C257.000275,190.996155 257.000244,195.914536 256.535828,200.899750 
	C238.421677,200.977768 220.770248,200.874603 203.124420,201.141846 
	C200.865555,201.176056 197.647018,202.533951 196.560516,204.310577 
	C191.298599,212.914734 186.093704,221.634583 181.919327,230.792389 
	C179.449448,236.210831 178.930817,242.518692 177.359833,249.166916 
	C204.769135,249.166916 230.884552,249.166916 256.999969,249.166916 
z"/>
<path fill="#000000" opacity="1.000000" stroke="none" 
	d="
M257.464417,249.098846 
	C230.884552,249.166916 204.769135,249.166916 177.359833,249.166916 
	C178.930817,242.518692 179.449448,236.210831 181.919327,230.792389 
	C186.093704,221.634583 191.298599,212.914734 196.560516,204.310577 
	C197.647018,202.533951 200.865555,201.176056 203.124420,201.141846 
	C220.770248,200.874603 238.421677,200.977768 257.000244,200.967743 
	C276.918427,201.012680 295.907776,201.056442 314.897095,201.100189 
	C325.789917,213.922379 332.984070,228.517212 335.944641,245.126801 
	C336.117340,246.095795 335.982391,247.119598 335.953644,248.542877 
	C309.920746,248.988815 283.924774,249.009796 257.464417,249.098846 
z"/>
<path fill="#000000" opacity="1.000000" stroke="none" 
	d="
M256.999817,40.832939 
	C282.216370,40.832939 307.432892,40.832939 333.139709,40.832939 
	C328.044495,55.252586 320.114838,66.700119 310.444275,77.490250 
	C302.418091,86.445618 293.843658,90.554535 281.863922,89.173805 
	C273.984741,88.265678 265.913635,89.022354 256.999664,89.032654 
	C242.745880,88.988426 229.420914,88.945084 216.095963,88.901733 
	C202.232056,76.842369 189.330078,64.042252 182.981628,46.153847 
	C182.450378,44.656921 181.678513,43.245392 181.510788,41.400208 
	C207.002029,40.948463 232.000931,40.890701 256.999817,40.832939 
z"/>
<path fill="#2387C3" opacity="1.000000" stroke="none" 
	d="
M256.999786,40.377594 
	C232.000931,40.890701 207.002029,40.948463 181.538910,41.021942 
	C180.011002,35.957264 178.947296,30.876871 177.973770,25.353020 
	C204.066284,24.950069 230.068619,24.990580 256.535400,25.099075 
	C256.999786,30.085457 256.999756,35.003853 256.999786,40.377594 
z"/>
<path fill="#000000" opacity="1.000000" stroke="none" 
	d="
M257.000244,185.167099 
	C243.940704,185.167099 230.881149,185.167099 217.821609,185.167099 
	C229.574219,173.980469 242.980331,165.581329 256.684265,156.994812 
	C270.266785,165.987045 283.532684,175.140335 296.410706,184.643585 
	C283.015289,185.051422 270.007751,185.109268 257.000244,185.167099 
z"/>
<path fill="#2387C3" opacity="1.000000" stroke="none" 
	d="
M257.000275,185.622437 
	C270.007751,185.109268 283.015289,185.051422 296.489014,184.976532 
	C300.710266,187.835312 304.582916,190.572998 308.178772,193.635712 
	C310.564575,195.667816 312.554138,198.165131 314.809082,200.777191 
	C295.907776,201.056442 276.918427,201.012680 257.464661,200.900909 
	C257.000244,195.914536 257.000275,190.996155 257.000275,185.622437 
z"/>
<path fill="#2387C3" opacity="1.000000" stroke="none" 
	d="
M216.188568,89.226402 
	C229.420914,88.945084 242.745880,88.988426 256.535278,89.099731 
	C256.999725,94.085274 256.999756,99.002869 256.536072,104.444321 
	C250.393311,104.998001 244.714233,105.027817 239.035156,105.057632 
	C235.219452,102.855225 231.252716,100.873306 227.628799,98.390923 
	C223.680450,95.686333 220.050125,92.517509 216.188568,89.226402 
z"/>
<path fill="#000000" opacity="1.000000" stroke="none" 
	d="
M239.124969,105.391479 
	C244.714233,105.027817 250.393311,104.998001 256.536072,104.900253 
	C262.740906,104.832329 268.482056,104.832329 274.223236,104.832329 
	C274.352264,105.223022 274.481262,105.613724 274.610291,106.004417 
	C268.952209,109.620842 263.294159,113.237267 257.317749,117.009987 
	C251.071213,113.352631 245.142990,109.538986 239.124969,105.391479 
z"/>
<path fill="#000000" opacity="1.000000" stroke="none" 
	d="
M178.054657,265.464722 
	C204.086197,265.016510 230.078629,264.991608 256.535522,264.899902 
	C283.126892,264.833099 309.253815,264.833099 335.970215,264.833099 
	C335.414673,273.711243 333.606689,281.792633 329.825012,289.121765 
	C325.945465,296.640533 321.199066,303.738098 316.441650,310.755371 
	C315.512695,312.125610 312.800659,312.887543 310.901245,312.905792 
	C293.244843,313.075287 275.586334,313.020538 256.999695,313.032135 
	C237.073196,312.986084 218.075378,312.938751 199.077560,312.891418 
	C187.667145,299.190643 179.788986,283.907074 178.054657,265.464722 
z"/>
<path fill="#000000" opacity="1.000000" stroke="none" 
	d="
M257.000122,473.166870 
	C231.773529,473.166870 206.546921,473.166870 180.991821,473.166870 
	C186.386002,456.569122 196.022476,443.875977 207.845520,432.332947 
	C213.262512,427.044189 218.496994,424.388153 226.115128,424.849823 
	C236.066498,425.452850 246.083069,424.979523 257.000305,424.967926 
	C271.272949,425.031525 284.616882,425.096497 297.960815,425.161438 
	C311.814301,437.166107 324.540222,450.042480 331.027863,467.769043 
	C331.581299,469.281189 332.316498,470.726776 332.476746,472.596985 
	C306.990845,473.049408 281.995483,473.108124 257.000122,473.166870 
z"/>
<path fill="#D73728" opacity="1.000000" stroke="none" 
	d="
M257.000122,473.622223 
	C281.995483,473.108124 306.990845,473.049408 332.449402,472.970947 
	C334.051483,478.135529 335.190338,483.319824 336.114319,488.775146 
	C309.909302,489.019623 283.919159,488.993103 257.464569,488.899841 
	C257.000122,483.914612 257.000092,478.996124 257.000122,473.622223 
z"/>
<path fill="#000000" opacity="1.000000" stroke="none" 
	d="
M256.999878,328.833038 
	C270.073822,328.833038 283.147766,328.833038 296.221710,328.833038 
	C296.484589,329.382111 296.747437,329.931183 297.010315,330.480255 
	C283.884369,339.267212 270.758423,348.054169 257.315735,357.003784 
	C243.745361,348.013306 230.491806,338.860168 217.620667,329.357941 
	C231.002029,328.950256 244.000961,328.891663 256.999878,328.833038 
z"/>
<path fill="#D73728" opacity="1.000000" stroke="none" 
	d="
M256.999908,328.377686 
	C244.000961,328.891663 231.002029,328.950256 217.538773,329.028503 
	C211.158905,323.868988 205.243378,318.689819 199.202698,313.201050 
	C218.075378,312.938751 237.073196,312.986084 256.535461,313.100189 
	C256.999908,318.085419 256.999939,323.003845 256.999908,328.377686 
z"/>
<path fill="#D73728" opacity="1.000000" stroke="none" 
	d="
M297.828857,424.843323 
	C284.616882,425.096497 271.272949,425.031525 257.464569,424.899841 
	C257.000092,419.915039 257.000092,414.996948 257.463745,409.556152 
	C263.600403,408.993286 269.273407,408.953094 274.946381,408.912903 
	C280.415649,412.263702 285.961761,415.497620 291.318512,419.019592 
	C293.645386,420.549469 295.582642,422.671875 297.828857,424.843323 
z"/>
<path fill="#000000" opacity="1.000000" stroke="none" 
	d="
M274.843536,408.588287 
	C269.273407,408.953094 263.600403,408.993286 257.463806,409.100159 
	C251.248062,409.166870 245.495972,409.166870 239.743881,409.166870 
	C239.618210,408.778473 239.492523,408.390076 239.366837,408.001678 
	C245.031860,404.383392 250.696869,400.765106 256.680573,396.990082 
	C262.913086,400.643463 268.826874,404.453552 274.843536,408.588287 
z"/>
</svg>