<svg version="1.1" id="Layer_1" xmlns="http://www.w3.org/2000/svg" xmlns:xlink="http://www.w3.org/1999/xlink" x="0px" y="0px"
	 width="100%" viewBox="0 0 512 512" enable-background="new 0 0 512 512" xml:space="preserve">
<path fill="#000000" opacity="1.000000" stroke="none" 
	d="
M152.000000,1.000000 
	C272.268524,1.000000 392.537018,1.000000 513.000000,1.000000 
	C513.000000,146.689941 513.000000,292.379944 512.650635,438.539337 
	C510.128876,436.769836 507.985352,434.502106 505.779877,432.296326 
	C436.034485,362.541321 366.298584,292.776794 296.476074,223.099060 
	C293.670380,220.299179 292.818146,218.364212 295.397095,214.796692 
	C301.574646,206.251053 299.984039,189.681030 291.438293,181.762314 
	C280.934998,172.029694 271.149506,161.526184 260.911133,151.501602 
	C258.071045,148.720810 256.955597,145.711990 256.916138,141.759766 
	C256.805908,130.721008 257.432678,119.514771 255.767029,108.682404 
	C251.210724,79.050735 237.798203,53.940002 215.318390,33.667538 
	C197.720490,17.797606 177.498169,7.611283 154.365555,2.921072 
	C153.483459,2.742227 152.784363,1.660824 152.000000,1.000000 
z"/>
<path fill="#383838" opacity="1.000000" stroke="none" 
	d="
M151.531342,1.000000 
	C152.784363,1.660824 153.483459,2.742227 154.365555,2.921072 
	C177.498169,7.611283 197.720490,17.797606 215.318390,33.667538 
	C237.798203,53.940002 251.210724,79.050735 255.767029,108.682404 
	C257.432678,119.514771 256.805908,130.721008 256.916138,141.759766 
	C256.955597,145.711990 258.071045,148.720810 260.911133,151.501602 
	C271.149506,161.526184 280.934998,172.029694 291.438293,181.762314 
	C299.984039,189.681030 301.574646,206.251053 295.397095,214.796692 
	C292.818146,218.364212 293.670380,220.299179 296.476074,223.099060 
	C366.298584,292.776794 436.034485,362.541321 505.779877,432.296326 
	C507.985352,434.502106 510.128876,436.769836 512.650635,439.004333 
	C513.000000,448.020905 513.000000,457.041779 512.604980,466.594116 
	C511.824432,467.804260 511.168304,468.455048 511.094910,469.165985 
	C510.333954,476.540222 509.590668,483.917969 508.992554,491.306885 
	C508.207123,501.009460 501.720428,507.881134 492.011932,508.927551 
	C484.807098,509.704132 477.576111,510.243591 470.378845,511.078918 
	C469.194214,511.216400 468.123413,512.334900 467.000000,513.000000 
	C457.979095,513.000000 448.958221,513.000000 439.473022,512.650635 
	C432.411102,505.782959 426.063660,498.983551 419.145233,492.825653 
	C412.278381,486.713684 409.118713,479.635376 409.899292,470.394684 
	C410.435822,464.043213 409.986237,464.088470 403.324402,463.968567 
	C397.004211,463.854858 390.676941,465.165100 385.373383,459.212372 
	C381.054199,454.364563 378.967896,449.440643 378.968781,443.161041 
	C378.970245,432.816589 380.254242,433.571320 370.098480,434.165710 
	C362.104309,434.633575 356.839111,431.095337 352.091858,425.551270 
	C347.937836,420.700043 348.916382,414.882782 349.095032,409.326630 
	C349.226929,405.223785 347.945709,403.853241 343.747009,403.897156 
	C334.673706,403.992096 326.802704,401.435394 320.368774,394.138153 
	C312.677277,385.414642 304.037750,377.525970 295.783936,369.300720 
	C294.840759,368.360840 293.737549,367.581482 292.423218,366.490997 
	C291.868774,369.852234 291.081085,372.454163 291.066132,375.060486 
	C290.942627,396.613953 284.423798,416.455566 275.163177,435.592407 
	C271.852173,442.434540 268.670044,443.923157 261.068665,441.744385 
	C256.389160,437.004364 256.644897,432.484375 259.496216,426.995819 
	C272.750366,401.482635 276.937378,374.466278 272.097168,346.065125 
	C260.585846,278.519531 196.369049,231.544250 128.683395,241.205521 
	C57.516792,251.363678 8.802151,316.980499 19.831453,387.825012 
	C34.597683,482.672943 145.524765,528.051025 222.363785,470.521393 
	C228.034515,466.275696 232.911942,464.744568 239.079239,469.255768 
	C241.279388,475.337036 239.869476,479.837891 234.914322,483.485535 
	C217.215393,496.514313 198.006897,506.122406 176.230804,510.209717 
	C174.055923,510.617950 172.072357,512.045532 170.000000,513.000000 
	C154.312439,513.000000 138.624878,513.000000 122.418434,512.621338 
	C121.228600,511.841858 120.598732,511.196899 119.880646,511.075989 
	C104.190300,508.434631 89.590820,502.809814 75.614830,495.312866 
	C55.658234,484.607758 39.529312,469.599030 26.624056,451.206482 
	C14.794120,434.346588 6.824027,415.696991 3.017265,395.351624 
	C2.792543,394.150635 1.692637,393.113434 1.000000,392.000000 
	C1.000000,376.312439 1.000000,360.624878 1.378638,344.418427 
	C2.158488,343.227020 2.802968,342.595764 2.925113,341.875885 
	C5.563648,326.325714 10.903985,311.725800 18.547371,297.980743 
	C27.428150,282.010529 38.613392,267.887268 52.969818,256.450165 
	C58.565662,251.992203 64.356384,247.778870 69.540474,243.846909 
	C61.301357,238.024139 52.681755,232.902039 45.197559,226.460693 
	C23.108658,207.449661 9.119014,183.432159 2.962579,154.886703 
	C2.735200,153.832428 1.673098,152.958160 0.999998,152.000000 
	C1.000000,136.979111 1.000000,121.958214 1.375919,106.415909 
	C2.185735,104.892807 2.798890,103.930206 3.027105,102.883667 
	C7.748163,81.233994 17.111582,61.762665 31.594698,45.067928 
	C50.528767,23.242567 74.217636,9.039192 102.647072,3.019688 
	C103.853188,2.764311 104.886299,1.691829 106.000000,1.000000 
	C121.020897,1.000000 136.041794,1.000000 151.531342,1.000000 
M241.029190,258.127045 
	C263.946930,278.513580 279.307007,303.493591 286.914062,333.253967 
	C287.408722,335.189117 288.827881,337.087708 290.276062,338.548065 
	C303.180695,351.561127 316.509003,364.171936 329.023590,377.545929 
	C334.803680,383.722900 340.628357,386.735413 349.261536,386.175262 
	C359.342407,385.521179 366.492676,393.139618 366.925079,403.199219 
	C367.101562,407.304535 365.859985,412.939301 368.027283,415.079742 
	C370.217834,417.243134 375.829834,415.929352 379.941681,416.162598 
	C390.096588,416.738678 396.839355,423.779236 397.004456,433.992218 
	C397.047516,436.657318 397.216583,439.342560 396.968536,441.984802 
	C396.625916,445.633728 398.271271,446.607788 401.623352,446.470459 
	C405.272736,446.320953 408.977844,446.319580 412.592346,446.777222 
	C420.669556,447.799835 427.662323,454.327698 426.806152,462.156647 
	C425.596222,473.220734 430.444305,480.392059 438.328094,486.701080 
	C440.267914,488.253357 442.112762,490.030060 443.617096,491.997345 
	C446.269531,495.466156 449.360046,496.308167 453.619446,495.358490 
	C457.815369,494.423035 462.212860,494.412048 466.513458,493.921417 
	C474.317627,493.031067 482.115540,492.085785 490.820374,491.056488 
	C488.781555,488.905426 487.575317,487.571777 486.305420,486.301819 
	C418.212952,418.204712 350.114685,350.113403 282.021271,282.017242 
	C280.844330,280.840271 279.591949,279.707642 278.594818,278.388062 
	C275.992523,274.944183 276.239868,270.405518 279.055267,267.404022 
	C282.007050,264.257111 286.782654,263.802521 290.394867,266.508850 
	C291.982422,267.698303 293.338928,269.205750 294.751495,270.617737 
	C359.441711,335.283875 424.126038,399.955933 488.815582,464.622711 
	C490.160004,465.966705 491.558197,467.256775 493.593536,469.206268 
	C494.196960,463.396454 494.270477,458.555420 495.300476,453.927277 
	C496.344330,449.236603 494.725677,446.349945 491.478088,443.107483 
	C422.032410,373.771881 352.706696,304.316162 283.352997,234.888412 
	C282.091827,233.625900 280.773956,232.420059 278.729767,230.469482 
	C276.981262,232.595779 275.531708,234.660934 273.781860,236.428864 
	C268.836853,241.424896 266.326843,241.734879 259.774994,237.813278 
	C256.616974,232.401367 256.931519,229.324051 261.270477,224.925690 
	C266.652405,219.470062 272.132996,214.111710 277.513336,208.654541 
	C283.284760,202.800659 283.265259,198.759888 277.435791,192.910538 
	C267.321838,182.762085 257.178040,172.643311 247.025131,162.533798 
	C240.964340,156.498901 238.722977,149.258957 239.151932,140.747528 
	C239.560745,132.636017 239.890732,124.411789 239.048950,116.363297 
	C232.507828,53.822495 173.856537,9.153424 111.482521,19.263508 
	C61.271236,27.402161 23.123550,67.592293 18.387714,118.951637 
	C13.927239,167.324768 41.460499,212.639053 86.176918,231.282440 
	C89.974274,232.865662 93.229164,233.005310 97.133247,231.587616 
	C122.285583,222.454025 148.041000,220.544128 174.330933,225.661804 
	C199.259262,230.514435 221.113571,241.678009 241.029190,258.127045 
z"/>
<path fill="#000000" opacity="1.000000" stroke="none" 
	d="
M261.192047,442.085693 
	C268.670044,443.923157 271.852173,442.434540 275.163177,435.592407 
	C284.423798,416.455566 290.942627,396.613953 291.066132,375.060486 
	C291.081085,372.454163 291.868774,369.852234 292.423218,366.490997 
	C293.737549,367.581482 294.840759,368.360840 295.783936,369.300720 
	C304.037750,377.525970 312.677277,385.414642 320.368774,394.138153 
	C326.802704,401.435394 334.673706,403.992096 343.747009,403.897156 
	C347.945709,403.853241 349.226929,405.223785 349.095032,409.326630 
	C348.916382,414.882782 347.937836,420.700043 352.091858,425.551270 
	C356.839111,431.095337 362.104309,434.633575 370.098480,434.165710 
	C380.254242,433.571320 378.970245,432.816589 378.968781,443.161041 
	C378.967896,449.440643 381.054199,454.364563 385.373383,459.212372 
	C390.676941,465.165100 397.004211,463.854858 403.324402,463.968567 
	C409.986237,464.088470 410.435822,464.043213 409.899292,470.394684 
	C409.118713,479.635376 412.278381,486.713684 419.145233,492.825653 
	C426.063660,498.983551 432.411102,505.782959 439.004364,512.650635 
	C349.645782,513.000000 260.291534,513.000000 170.468658,513.000000 
	C172.072357,512.045532 174.055923,510.617950 176.230804,510.209717 
	C198.006897,506.122406 217.215393,496.514313 234.914322,483.485535 
	C239.869476,479.837891 241.279388,475.337036 239.237823,468.954956 
	C247.616165,460.449371 255.427322,452.125977 261.192047,442.085693 
z"/>
<path fill="#000000" opacity="1.000000" stroke="none" 
	d="
M0.999998,152.468658 
	C1.673098,152.958160 2.735200,153.832428 2.962579,154.886703 
	C9.119014,183.432159 23.108658,207.449661 45.197559,226.460693 
	C52.681755,232.902039 61.301357,238.024139 69.540474,243.846909 
	C64.356384,247.778870 58.565662,251.992203 52.969818,256.450165 
	C38.613392,267.887268 27.428150,282.010529 18.547371,297.980743 
	C10.903985,311.725800 5.563648,326.325714 2.925113,341.875885 
	C2.802968,342.595764 2.158488,343.227020 1.378638,343.949768 
	C1.000000,280.312439 1.000000,216.624878 0.999998,152.468658 
z"/>
<path fill="#000000" opacity="1.000000" stroke="none" 
	d="
M1.000000,392.468658 
	C1.692637,393.113434 2.792543,394.150635 3.017265,395.351624 
	C6.824027,415.696991 14.794120,434.346588 26.624056,451.206482 
	C39.529312,469.599030 55.658234,484.607758 75.614830,495.312866 
	C89.590820,502.809814 104.190300,508.434631 119.880646,511.075989 
	C120.598732,511.196899 121.228600,511.841858 121.949776,512.621338 
	C81.739700,513.000000 41.479404,513.000000 1.000000,513.000000 
	C1.000000,472.979370 1.000000,432.958344 1.000000,392.468658 
z"/>
<path fill="#000000" opacity="1.000000" stroke="none" 
	d="
M105.531342,1.000000 
	C104.886299,1.691829 103.853188,2.764311 102.647072,3.019688 
	C74.217636,9.039192 50.528767,23.242567 31.594698,45.067928 
	C17.111582,61.762665 7.748163,81.233994 3.027105,102.883667 
	C2.798890,103.930206 2.185735,104.892807 1.375919,105.947250 
	C1.000000,71.073059 1.000000,36.146111 1.000000,1.000000 
	C35.687252,1.000000 70.374969,1.000000 105.531342,1.000000 
z"/>
<path fill="#000000" opacity="1.000000" stroke="none" 
	d="
M467.468658,513.000000 
	C468.123413,512.334900 469.194214,511.216400 470.378845,511.078918 
	C477.576111,510.243591 484.807098,509.704132 492.011932,508.927551 
	C501.720428,507.881134 508.207123,501.009460 508.992554,491.306885 
	C509.590668,483.917969 510.333954,476.540222 511.094910,469.165985 
	C511.168304,468.455048 511.824432,467.804260 512.604980,467.062775 
	C513.000000,482.260040 513.000000,497.520111 513.000000,513.000000 
	C497.979828,513.000000 482.958557,513.000000 467.468658,513.000000 
z"/>
<path fill="#25B99B" opacity="1.000000" stroke="none" 
	d="
M240.653152,257.667389 
	C221.113571,241.678009 199.259262,230.514435 174.330933,225.661804 
	C148.041000,220.544128 122.285583,222.454025 97.133247,231.587616 
	C93.229164,233.005310 89.974274,232.865662 86.176918,231.282440 
	C41.460499,212.639053 13.927239,167.324768 18.387714,118.951637 
	C23.123550,67.592293 61.271236,27.402161 111.482521,19.263508 
	C173.856537,9.153424 232.507828,53.822495 239.048950,116.363297 
	C239.890732,124.411789 239.560745,132.636017 239.151932,140.747528 
	C238.722977,149.258957 240.964340,156.498901 247.025131,162.533798 
	C257.178040,172.643311 267.321838,182.762085 277.435791,192.910538 
	C283.265259,198.759888 283.284760,202.800659 277.513336,208.654541 
	C272.132996,214.111710 266.652405,219.470062 261.270477,224.925690 
	C256.931519,229.324051 256.616974,232.401367 259.640808,238.355698 
	C253.222153,245.154541 246.937653,251.410965 240.653152,257.667389 
M78.334778,136.285507 
	C86.974426,140.915741 96.080788,142.444260 105.832985,141.039703 
	C128.278992,137.806931 143.846054,116.508255 141.021454,92.603241 
	C138.494934,71.221115 117.164459,54.103252 95.714867,56.244385 
	C76.742378,58.138248 61.573853,71.068542 57.308018,88.983994 
	C52.903904,107.480194 60.732712,125.526360 78.334778,136.285507 
z"/>
<path fill="#8F95A1" opacity="1.000000" stroke="none" 
	d="
M261.068665,441.744385 
	C255.427322,452.125977 247.616165,460.449371 239.057953,468.579834 
	C232.911942,464.744568 228.034515,466.275696 222.363785,470.521393 
	C145.524765,528.051025 34.597683,482.672943 19.831453,387.825012 
	C8.802151,316.980499 57.516792,251.363678 128.683395,241.205521 
	C196.369049,231.544250 260.585846,278.519531 272.097168,346.065125 
	C276.937378,374.466278 272.750366,401.482635 259.496216,426.995819 
	C256.644897,432.484375 256.389160,437.004364 261.068665,441.744385 
M137.532440,409.828918 
	C137.286285,407.678162 137.142578,405.509674 136.774979,403.379883 
	C135.618652,396.680481 136.811432,394.782440 143.646164,394.186646 
	C146.539703,393.934418 149.579819,394.574188 152.463776,395.212799 
	C155.673935,395.923645 156.766113,397.697968 155.904434,401.378265 
	C148.926208,431.182922 175.549927,458.607117 205.374161,452.527435 
	C223.640976,448.803741 236.949707,434.953949 239.771072,416.732056 
	C242.454254,399.402557 233.563400,381.705566 217.844299,373.087463 
	C201.962677,364.380188 182.511230,366.696411 168.664398,379.285187 
	C166.127609,381.591522 164.493973,381.873352 161.428253,380.281738 
	C151.498917,375.126801 141.149399,374.867584 131.226608,380.081177 
	C127.445168,382.067963 125.603729,381.236755 122.793007,378.649536 
	C108.575645,365.562653 87.478951,363.452667 70.834030,373.128448 
	C54.455437,382.649506 45.708588,401.907532 49.528938,420.036194 
	C54.315300,442.748962 74.717995,458.040192 97.308647,455.845673 
	C120.369675,453.605469 137.015411,434.946289 137.532440,409.828918 
M46.777271,348.818420 
	C49.620342,349.521790 52.460056,350.820099 55.307011,350.836212 
	C82.638947,350.990662 109.972107,350.928986 137.304916,350.928864 
	C170.637604,350.928711 203.970306,350.939880 237.302994,350.918671 
	C244.545013,350.914062 248.288147,347.881165 248.242386,342.221069 
	C248.198059,336.740173 244.620865,333.924805 237.556763,333.896637 
	C229.723694,333.865387 221.882553,333.681061 214.060684,333.978363 
	C210.347092,334.119476 208.874329,332.727081 207.823105,329.317352 
	C202.623169,312.450806 197.248611,295.636719 191.777954,278.855530 
	C187.771301,266.565094 177.024826,262.371948 165.552414,268.423584 
	C160.248260,271.221527 155.069305,274.297333 149.600128,276.720123 
	C147.661377,277.578979 144.721588,277.589203 142.774597,276.747467 
	C137.438416,274.440491 132.404144,271.441620 127.219147,268.777344 
	C114.427185,262.204285 104.327087,266.351776 99.942139,280.018890 
	C94.651543,296.508728 89.346809,312.995056 84.243439,329.543091 
	C83.254021,332.751343 81.891586,334.089600 78.363510,333.974823 
	C70.039230,333.704041 61.699696,333.937042 53.367016,333.874481 
	C49.559513,333.845886 46.386703,334.951843 44.706844,338.562958 
	C43.088772,342.041199 43.548714,345.372498 46.777271,348.818420 
z"/>
<path fill="#BEC3CD" opacity="1.000000" stroke="none" 
	d="
M240.841171,257.897217 
	C246.937653,251.410965 253.222153,245.154541 259.791229,238.674988 
	C266.326843,241.734879 268.836853,241.424896 273.781860,236.428864 
	C275.531708,234.660934 276.981262,232.595779 278.729767,230.469482 
	C280.773956,232.420059 282.091827,233.625900 283.352997,234.888412 
	C352.706696,304.316162 422.032410,373.771881 491.478088,443.107483 
	C494.725677,446.349945 496.344330,449.236603 495.300476,453.927277 
	C494.270477,458.555420 494.196960,463.396454 493.593536,469.206268 
	C491.558197,467.256775 490.160004,465.966705 488.815582,464.622711 
	C424.126038,399.955933 359.441711,335.283875 294.751495,270.617737 
	C293.338928,269.205750 291.982422,267.698303 290.394867,266.508850 
	C286.782654,263.802521 282.007050,264.257111 279.055267,267.404022 
	C276.239868,270.405518 275.992523,274.944183 278.594818,278.388062 
	C279.591949,279.707642 280.844330,280.840271 282.021271,282.017242 
	C350.114685,350.113403 418.212952,418.204712 486.305420,486.301819 
	C487.575317,487.571777 488.781555,488.905426 490.820374,491.056488 
	C482.115540,492.085785 474.317627,493.031067 466.513458,493.921417 
	C462.212860,494.412048 457.815369,494.423035 453.619446,495.358490 
	C449.360046,496.308167 446.269531,495.466156 443.617096,491.997345 
	C442.112762,490.030060 440.267914,488.253357 438.328094,486.701080 
	C430.444305,480.392059 425.596222,473.220734 426.806152,462.156647 
	C427.662323,454.327698 420.669556,447.799835 412.592346,446.777222 
	C408.977844,446.319580 405.272736,446.320953 401.623352,446.470459 
	C398.271271,446.607788 396.625916,445.633728 396.968536,441.984802 
	C397.216583,439.342560 397.047516,436.657318 397.004456,433.992218 
	C396.839355,423.779236 390.096588,416.738678 379.941681,416.162598 
	C375.829834,415.929352 370.217834,417.243134 368.027283,415.079742 
	C365.859985,412.939301 367.101562,407.304535 366.925079,403.199219 
	C366.492676,393.139618 359.342407,385.521179 349.261536,386.175262 
	C340.628357,386.735413 334.803680,383.722900 329.023590,377.545929 
	C316.509003,364.171936 303.180695,351.561127 290.276062,338.548065 
	C288.827881,337.087708 287.408722,335.189117 286.914062,333.253967 
	C279.307007,303.493591 263.946930,278.513580 240.841171,257.897217 
z"/>
<path fill="#373838" opacity="1.000000" stroke="none" 
	d="
M78.006332,136.112000 
	C60.732712,125.526360 52.903904,107.480194 57.308018,88.983994 
	C61.573853,71.068542 76.742378,58.138248 95.714867,56.244385 
	C117.164459,54.103252 138.494934,71.221115 141.021454,92.603241 
	C143.846054,116.508255 128.278992,137.806931 105.832985,141.039703 
	C96.080788,142.444260 86.974426,140.915741 78.006332,136.112000 
M77.959366,112.432587 
	C84.270081,121.925598 94.870010,126.094772 105.598083,122.858070 
	C115.645729,119.826653 122.194206,112.985298 123.738083,102.589844 
	C125.144478,93.120010 121.895493,84.786888 113.949165,79.042305 
	C103.826332,71.724289 91.318825,72.240395 82.373344,80.221024 
	C74.180313,87.530365 70.471191,100.329285 77.959366,112.432587 
z"/>
<path fill="#393939" opacity="1.000000" stroke="none" 
	d="
M137.561066,410.260590 
	C137.015411,434.946289 120.369675,453.605469 97.308647,455.845673 
	C74.717995,458.040192 54.315300,442.748962 49.528938,420.036194 
	C45.708588,401.907532 54.455437,382.649506 70.834030,373.128448 
	C87.478951,363.452667 108.575645,365.562653 122.793007,378.649536 
	C125.603729,381.236755 127.445168,382.067963 131.226608,380.081177 
	C141.149399,374.867584 151.498917,375.126801 161.428253,380.281738 
	C164.493973,381.873352 166.127609,381.591522 168.664398,379.285187 
	C182.511230,366.696411 201.962677,364.380188 217.844299,373.087463 
	C233.563400,381.705566 242.454254,399.402557 239.771072,416.732056 
	C236.949707,434.953949 223.640976,448.803741 205.374161,452.527435 
	C175.549927,458.607117 148.926208,431.182922 155.904434,401.378265 
	C156.766113,397.697968 155.673935,395.923645 152.463776,395.212799 
	C149.579819,394.574188 146.539703,393.934418 143.646164,394.186646 
	C136.811432,394.782440 135.618652,396.680481 136.774979,403.379883 
	C137.142578,405.509674 137.286285,407.678162 137.561066,410.260590 
M185.441376,433.225555 
	C196.451675,438.261749 207.418045,436.596375 215.342834,428.684692 
	C223.015839,421.024353 225.017868,409.487640 220.374603,399.688843 
	C215.735138,389.898102 205.516403,384.071106 194.770126,385.088409 
	C183.995193,386.108490 174.786545,394.202393 172.303238,404.835724 
	C169.745010,415.789917 174.345795,426.155365 185.441376,433.225555 
M92.803154,385.062897 
	C91.338203,385.340973 89.851906,385.536652 88.411598,385.909851 
	C74.271698,389.573303 66.086594,404.250946 70.403290,418.156860 
	C74.762718,432.200409 90.269699,439.746155 103.974991,434.492950 
	C115.604996,430.035156 122.171463,418.163666 119.955544,405.601807 
	C117.819321,393.491730 107.209045,385.185181 92.803154,385.062897 
z"/>
<path fill="#383838" opacity="1.000000" stroke="none" 
	d="
M46.481102,348.553589 
	C43.548714,345.372498 43.088772,342.041199 44.706844,338.562958 
	C46.386703,334.951843 49.559513,333.845886 53.367016,333.874481 
	C61.699696,333.937042 70.039230,333.704041 78.363510,333.974823 
	C81.891586,334.089600 83.254021,332.751343 84.243439,329.543091 
	C89.346809,312.995056 94.651543,296.508728 99.942139,280.018890 
	C104.327087,266.351776 114.427185,262.204285 127.219147,268.777344 
	C132.404144,271.441620 137.438416,274.440491 142.774597,276.747467 
	C144.721588,277.589203 147.661377,277.578979 149.600128,276.720123 
	C155.069305,274.297333 160.248260,271.221527 165.552414,268.423584 
	C177.024826,262.371948 187.771301,266.565094 191.777954,278.855530 
	C197.248611,295.636719 202.623169,312.450806 207.823105,329.317352 
	C208.874329,332.727081 210.347092,334.119476 214.060684,333.978363 
	C221.882553,333.681061 229.723694,333.865387 237.556763,333.896637 
	C244.620865,333.924805 248.198059,336.740173 248.242386,342.221069 
	C248.288147,347.881165 244.545013,350.914062 237.302994,350.918671 
	C203.970306,350.939880 170.637604,350.928711 137.304916,350.928864 
	C109.972107,350.928986 82.638947,350.990662 55.307011,350.836212 
	C52.460056,350.820099 49.620342,349.521790 46.481102,348.553589 
M190.256516,333.287506 
	C190.121185,331.857605 190.231644,330.350922 189.812546,329.009674 
	C185.590622,315.498047 181.291565,302.010437 176.985336,288.525299 
	C176.448059,286.842743 175.743546,285.213593 174.908005,283.009674 
	C168.478607,286.278107 162.408875,289.005188 156.704742,292.354889 
	C149.716949,296.458466 143.101059,296.798828 135.989273,292.660217 
	C130.008118,289.179596 123.686638,286.283813 116.781128,282.753540 
	C111.375412,299.952271 106.176262,316.493805 100.777901,333.669189 
	C103.514595,333.792542 105.307137,333.947449 107.099281,333.943024 
	C134.586807,333.875000 162.074280,333.786194 190.256516,333.287506 
z"/>
<path fill="#000000" opacity="1.000000" stroke="none" 
	d="
M77.728561,112.144844 
	C70.471191,100.329285 74.180313,87.530365 82.373344,80.221024 
	C91.318825,72.240395 103.826332,71.724289 113.949165,79.042305 
	C121.895493,84.786888 125.144478,93.120010 123.738083,102.589844 
	C122.194206,112.985298 115.645729,119.826653 105.598083,122.858070 
	C94.870010,126.094772 84.270081,121.925598 77.728561,112.144844 
z"/>
<path fill="#F1F3F5" opacity="1.000000" stroke="none" 
	d="
M185.102142,433.066345 
	C174.345795,426.155365 169.745010,415.789917 172.303238,404.835724 
	C174.786545,394.202393 183.995193,386.108490 194.770126,385.088409 
	C205.516403,384.071106 215.735138,389.898102 220.374603,399.688843 
	C225.017868,409.487640 223.015839,421.024353 215.342834,428.684692 
	C207.418045,436.596375 196.451675,438.261749 185.102142,433.066345 
z"/>
<path fill="#F1F3F5" opacity="1.000000" stroke="none" 
	d="
M93.240280,385.046082 
	C107.209045,385.185181 117.819321,393.491730 119.955544,405.601807 
	C122.171463,418.163666 115.604996,430.035156 103.974991,434.492950 
	C90.269699,439.746155 74.762718,432.200409 70.403290,418.156860 
	C66.086594,404.250946 74.271698,389.573303 88.411598,385.909851 
	C89.851906,385.536652 91.338203,385.340973 93.240280,385.046082 
z"/>
<path fill="#5C616A" opacity="1.000000" stroke="none" 
	d="
M189.909149,333.494873 
	C162.074280,333.786194 134.586807,333.875000 107.099281,333.943024 
	C105.307137,333.947449 103.514595,333.792542 100.777901,333.669189 
	C106.176262,316.493805 111.375412,299.952271 116.781128,282.753540 
	C123.686638,286.283813 130.008118,289.179596 135.989273,292.660217 
	C143.101059,296.798828 149.716949,296.458466 156.704742,292.354889 
	C162.408875,289.005188 168.478607,286.278107 174.908005,283.009674 
	C175.743546,285.213593 176.448059,286.842743 176.985336,288.525299 
	C181.291565,302.010437 185.590622,315.498047 189.812546,329.009674 
	C190.231644,330.350922 190.121185,331.857605 189.909149,333.494873 
z"/>
</svg>