<svg version="1.1" id="Layer_1" xmlns="http://www.w3.org/2000/svg" xmlns:xlink="http://www.w3.org/1999/xlink" x="0px" y="0px"
	 width="100%" viewBox="0 0 512 512" enable-background="new 0 0 512 512" xml:space="preserve">
<path fill="#2B62B2" opacity="1.000000" stroke="none" 
	d="
M225.000000,1.000002 
	C246.020889,1.000000 267.041779,1.000000 288.414886,1.413837 
	C294.156647,2.879571 299.541779,3.954706 304.936493,4.979547 
	C336.706726,11.015005 366.237427,22.585009 393.670197,39.825684 
	C418.985474,55.735588 440.651367,75.646332 459.149139,98.896469 
	C473.911896,117.451973 485.768494,137.878220 494.583588,160.025696 
	C502.625031,180.229462 508.571838,200.924149 511.082550,222.566406 
	C511.183929,223.440002 512.336975,224.191574 513.000000,225.000000 
	C513.000000,228.030594 513.000000,231.061188 512.615479,234.543106 
	C510.026031,234.264099 507.760010,233.679092 505.625336,232.781662 
	C472.464722,218.840942 439.313538,204.877747 406.176880,190.880203 
	C390.074127,184.078079 374.005859,177.194229 358.391235,170.265594 
	C373.066315,170.183792 387.272156,170.183792 401.430634,170.183792 
	C401.430634,154.639191 401.430634,140.102280 401.430634,125.114304 
	C392.738281,125.114304 384.450348,125.105400 376.162445,125.115807 
	C336.416840,125.165710 296.671204,125.220833 256.464325,125.211075 
	C227.194443,125.139946 198.385391,125.029327 169.577316,125.148384 
	C129.068573,125.315788 97.101799,143.992905 69.201370,172.037018 
	C78.787804,183.231018 88.416695,194.474594 98.174828,205.987305 
	C99.157921,207.270142 99.942535,208.352951 100.875778,209.287354 
	C122.073486,230.511154 143.282974,251.723160 164.510330,272.917328 
	C165.682281,274.087433 167.027496,275.083984 168.287140,276.562073 
	C161.542236,307.514740 144.215393,330.501160 117.624245,346.946960 
	C124.895050,359.571838 131.928329,371.814117 139.024872,384.019653 
	C139.385254,384.639496 140.290421,384.942596 141.047958,385.698303 
	C142.551422,387.635010 143.847351,389.367981 145.361160,390.883331 
	C184.203979,429.764343 223.078079,468.614075 261.900482,507.515411 
	C263.496429,509.114624 264.643677,511.161621 266.000000,513.000000 
	C252.645767,513.000000 239.291550,513.000000 225.585129,512.586304 
	C224.557938,511.792175 223.925049,511.215851 223.201706,511.060333 
	C209.292343,508.070831 195.155121,505.895996 181.499985,502.020264 
	C153.449280,494.058655 128.031891,480.613586 104.511337,463.322693 
	C87.459381,450.787109 72.318703,436.266937 58.881802,420.120453 
	C43.810196,402.009674 31.359945,382.083130 22.050762,360.301208 
	C12.600396,338.188965 5.627306,315.418396 2.917028,291.437805 
	C2.818284,290.564117 1.662931,289.809906 0.999999,289.000000 
	C1.000000,267.645782 1.000000,246.291550 1.409190,224.590668 
	C2.581892,220.128983 3.284038,216.001450 4.118698,211.900879 
	C10.374652,181.166290 20.585314,151.987061 36.909424,124.978912 
	C53.427471,97.649902 74.304138,74.223579 99.242210,54.552959 
	C118.131531,39.653458 138.860428,27.617359 161.406525,18.833094 
	C181.189468,11.125394 201.427765,5.378514 222.558655,2.916866 
	C223.434982,2.814778 224.189011,1.662835 225.000000,1.000002 
z"/>
<path fill="#254B89" opacity="1.000000" stroke="none" 
	d="
M357.921997,170.347397 
	C374.005859,177.194229 390.074127,184.078079 406.176880,190.880203 
	C439.313538,204.877747 472.464722,218.840942 505.625336,232.781662 
	C507.760010,233.679092 510.026031,234.264099 512.615479,234.997223 
	C513.000000,252.687561 513.000000,270.375122 512.585815,288.502869 
	C511.434662,293.227692 510.797882,297.532410 509.944458,301.793732 
	C504.262695,330.164062 495.188538,357.262665 480.909027,382.608459 
	C465.132904,410.610565 444.716400,434.703644 420.171417,455.169586 
	C399.718445,472.223480 377.015900,485.896667 352.051361,495.493011 
	C332.370544,503.058380 312.260132,509.040833 291.151062,511.123718 
	C290.379822,511.199860 289.714630,512.350281 289.000000,513.000000 
	C281.645752,513.000000 274.291504,513.000000 266.468628,513.000000 
	C264.643677,511.161621 263.496429,509.114624 261.900482,507.515411 
	C223.078079,468.614075 184.203979,429.764343 145.361160,390.883331 
	C143.847351,389.367981 142.551422,387.635010 141.342621,385.480194 
	C190.805557,353.772644 215.463638,308.922546 215.852173,250.711746 
	C216.018982,225.718292 215.880157,200.722778 215.880173,175.728210 
	C215.880173,173.970612 215.880173,172.212997 215.880173,169.942108 
	C230.048523,169.942108 243.513977,169.942108 257.443604,170.021225 
	C266.825439,170.100342 275.743134,170.100342 284.943176,170.100342 
	C284.943176,172.960999 284.943054,174.947556 284.943207,176.934097 
	C284.946960,224.581039 284.668915,272.230286 285.063263,319.874023 
	C285.289337,347.187988 298.055176,367.941467 322.052032,380.674103 
	C345.946259,393.352325 370.030426,391.698700 392.658600,376.938538 
	C412.249695,364.159454 421.519043,345.068420 424.052643,321.753998 
	C409.372681,318.824371 394.971832,315.950439 380.387299,313.039825 
	C379.500366,317.264069 378.773346,320.836487 377.997284,324.398254 
	C376.706329,330.323303 373.735596,335.258820 368.827026,338.823212 
	C361.041077,344.476959 352.563171,345.581909 343.850311,341.369812 
	C335.004974,337.093597 330.056396,329.785675 330.030640,319.908295 
	C329.902893,270.928986 329.964142,221.949173 329.974945,172.969543 
	C329.975128,172.182877 330.179321,171.396225 330.324615,170.347397 
	C339.691772,170.347397 348.806885,170.347397 357.921997,170.347397 
z"/>
<path fill="#000000" opacity="1.000000" stroke="none" 
	d="
M513.000000,224.531342 
	C512.336975,224.191574 511.183929,223.440002 511.082550,222.566406 
	C508.571838,200.924149 502.625031,180.229462 494.583588,160.025696 
	C485.768494,137.878220 473.911896,117.451973 459.149139,98.896469 
	C440.651367,75.646332 418.985474,55.735588 393.670197,39.825684 
	C366.237427,22.585009 336.706726,11.015005 304.936493,4.979547 
	C299.541779,3.954706 294.156647,2.879571 288.883545,1.413837 
	C363.593719,1.000000 438.187408,1.000000 513.000000,1.000000 
	C513.000000,75.354088 513.000000,149.708389 513.000000,224.531342 
z"/>
<path fill="#000000" opacity="1.000000" stroke="none" 
	d="
M0.999999,289.468658 
	C1.662931,289.809906 2.818284,290.564117 2.917028,291.437805 
	C5.627306,315.418396 12.600396,338.188965 22.050762,360.301208 
	C31.359945,382.083130 43.810196,402.009674 58.881802,420.120453 
	C72.318703,436.266937 87.459381,450.787109 104.511337,463.322693 
	C128.031891,480.613586 153.449280,494.058655 181.499985,502.020264 
	C195.155121,505.895996 209.292343,508.070831 223.201706,511.060333 
	C223.925049,511.215851 224.557938,511.792175 225.116470,512.586304 
	C150.406296,513.000000 75.812599,513.000000 1.000000,513.000000 
	C1.000000,438.645905 1.000000,364.291626 0.999999,289.468658 
z"/>
<path fill="#000000" opacity="1.000000" stroke="none" 
	d="
M289.468658,513.000000 
	C289.714630,512.350281 290.379822,511.199860 291.151062,511.123718 
	C312.260132,509.040833 332.370544,503.058380 352.051361,495.493011 
	C377.015900,485.896667 399.718445,472.223480 420.171417,455.169586 
	C444.716400,434.703644 465.132904,410.610565 480.909027,382.608459 
	C495.188538,357.262665 504.262695,330.164062 509.944458,301.793732 
	C510.797882,297.532410 511.434662,293.227692 512.585815,288.971527 
	C513.000000,363.593719 513.000000,438.187408 513.000000,513.000000 
	C438.645905,513.000000 364.291626,513.000000 289.468658,513.000000 
z"/>
<path fill="#000000" opacity="1.000000" stroke="none" 
	d="
M224.531342,1.000002 
	C224.189011,1.662835 223.434982,2.814778 222.558655,2.916866 
	C201.427765,5.378514 181.189468,11.125394 161.406525,18.833094 
	C138.860428,27.617359 118.131531,39.653458 99.242210,54.552959 
	C74.304138,74.223579 53.427471,97.649902 36.909424,124.978912 
	C20.585314,151.987061 10.374652,181.166290 4.118698,211.900879 
	C3.284038,216.001450 2.581892,220.128983 1.409190,224.122009 
	C1.000000,149.739456 1.000000,75.478920 1.000000,1.000000 
	C75.354088,1.000000 149.708389,1.000000 224.531342,1.000002 
z"/>
<path fill="#C8C9C9" opacity="1.000000" stroke="none" 
	d="
M358.391235,170.265594 
	C348.806885,170.347397 339.691772,170.347397 330.324615,170.347397 
	C330.179321,171.396225 329.975128,172.182877 329.974945,172.969543 
	C329.964142,221.949173 329.902893,270.928986 330.030640,319.908295 
	C330.056396,329.785675 335.004974,337.093597 343.850311,341.369812 
	C352.563171,345.581909 361.041077,344.476959 368.827026,338.823212 
	C373.735596,335.258820 376.706329,330.323303 377.997284,324.398254 
	C378.773346,320.836487 379.500366,317.264069 380.387299,313.039825 
	C394.971832,315.950439 409.372681,318.824371 424.052643,321.753998 
	C421.519043,345.068420 412.249695,364.159454 392.658600,376.938538 
	C370.030426,391.698700 345.946259,393.352325 322.052032,380.674103 
	C298.055176,367.941467 285.289337,347.187988 285.063263,319.874023 
	C284.668915,272.230286 284.946960,224.581039 284.943207,176.934097 
	C284.943054,174.947556 284.943176,172.960999 284.943176,170.100342 
	C275.743134,170.100342 266.825439,170.100342 257.451233,169.556427 
	C256.971680,154.433044 256.948639,139.853577 256.925598,125.274094 
	C296.671204,125.220833 336.416840,125.165710 376.162445,125.115807 
	C384.450348,125.105400 392.738281,125.114304 401.430634,125.114304 
	C401.430634,140.102280 401.430634,154.639191 401.430634,170.183792 
	C387.272156,170.183792 373.066315,170.183792 358.391235,170.265594 
z"/>
<path fill="#FEFEFF" opacity="1.000000" stroke="none" 
	d="
M256.464325,125.211075 
	C256.948639,139.853577 256.971680,154.433044 256.987061,169.477325 
	C243.513977,169.942108 230.048523,169.942108 215.880173,169.942108 
	C215.880173,172.212997 215.880173,173.970612 215.880173,175.728210 
	C215.880157,200.722778 216.018982,225.718292 215.852173,250.711746 
	C215.463638,308.922546 190.805557,353.772644 141.236603,385.175079 
	C140.290421,384.942596 139.385254,384.639496 139.024872,384.019653 
	C131.928329,371.814117 124.895050,359.571838 117.624245,346.946960 
	C144.215393,330.501160 161.542236,307.514740 168.508331,276.236572 
	C169.450119,267.906982 170.706726,260.309052 170.782944,252.699280 
	C171.041245,226.909439 170.885757,201.115402 170.872635,175.322968 
	C170.871826,173.710144 170.736069,172.097366 170.664841,170.523087 
	C169.794296,170.345169 169.321472,170.170319 168.847473,170.167114 
	C167.684174,170.159241 166.517120,170.188095 165.357208,170.276184 
	C147.243210,171.651642 131.120102,177.974945 117.167923,189.688126 
	C110.797684,195.036087 104.419930,200.375107 98.045578,205.718170 
	C88.416695,194.474594 78.787804,183.231018 69.201370,172.037018 
	C97.101799,143.992905 129.068573,125.315788 169.577316,125.148384 
	C198.385391,125.029327 227.194443,125.139946 256.464325,125.211075 
z"/>
<path fill="#274C8A" opacity="1.000000" stroke="none" 
	d="
M98.174828,205.987305 
	C104.419930,200.375107 110.797684,195.036087 117.167923,189.688126 
	C131.120102,177.974945 147.243210,171.651642 165.357208,170.276184 
	C166.517120,170.188095 167.684174,170.159241 168.847473,170.167114 
	C169.321472,170.170319 169.794296,170.345169 170.664841,170.523087 
	C170.736069,172.097366 170.871826,173.710144 170.872635,175.322968 
	C170.885757,201.115402 171.041245,226.909439 170.782944,252.699280 
	C170.706726,260.309052 169.450119,267.906982 168.513260,275.835846 
	C167.027496,275.083984 165.682281,274.087433 164.510330,272.917328 
	C143.282974,251.723160 122.073486,230.511154 100.875778,209.287354 
	C99.942535,208.352951 99.157921,207.270142 98.174828,205.987305 
z"/>
</svg>