<svg version="1.1" id="Layer_1" xmlns="http://www.w3.org/2000/svg" xmlns:xlink="http://www.w3.org/1999/xlink" x="0px" y="0px"
	 width="100%" viewBox="0 0 512 512" enable-background="new 0 0 512 512" xml:space="preserve">
<path fill="#000000" opacity="1.000000" stroke="none" 
	d="
M1.000000,152.000000 
	C1.000000,101.739662 1.000000,51.479324 1.000000,1.000000 
	C51.020679,1.000000 101.041679,1.000000 151.531342,1.468657 
	C152.001953,21.936190 152.003906,41.935066 151.537598,61.961109 
	C121.169762,61.988277 91.270210,61.988277 60.933937,61.988277 
	C60.933937,92.457657 60.933937,122.231758 60.469429,152.003174 
	C40.336613,152.000305 20.668306,152.000153 1.000000,152.000000 
z"/>
<path fill="#000000" opacity="1.000000" stroke="none" 
	d="
M362.000000,1.000000 
	C412.260345,1.000000 462.520660,1.000000 513.000000,1.000000 
	C513.000000,51.020679 513.000000,101.041679 512.531372,151.531342 
	C492.385651,152.015121 472.708618,152.030243 453.019684,151.574387 
	C453.007782,121.550957 453.007782,91.998505 453.007782,61.968376 
	C422.141937,61.968376 392.048279,61.968376 361.975281,61.502106 
	C361.997253,41.023888 361.998627,21.011944 362.000000,1.000000 
z"/>
<path fill="#000000" opacity="1.000000" stroke="none" 
	d="
M513.000000,362.000000 
	C513.000000,412.260345 513.000000,462.520660 513.000000,513.000000 
	C462.979309,513.000000 412.958313,513.000000 362.468628,512.531372 
	C361.984863,492.385651 361.969727,472.708618 362.425598,453.019684 
	C392.782227,453.007782 422.667847,453.007782 453.031586,453.007782 
	C453.031586,422.142273 453.031586,392.048431 453.497864,361.975281 
	C473.642761,361.997284 493.321381,361.998657 513.000000,362.000000 
z"/>
<path fill="#000000" opacity="1.000000" stroke="none" 
	d="
M152.000000,513.000000 
	C101.739677,513.000000 51.479347,513.000000 1.000000,513.000000 
	C1.000000,462.979309 1.000000,412.958313 1.468657,362.468658 
	C21.602858,361.998047 41.268398,361.996094 60.961109,362.462402 
	C60.988277,392.830353 60.988277,422.730042 60.988277,453.066010 
	C91.791229,453.066010 121.898544,453.066010 152.003174,453.530518 
	C152.000320,473.663361 152.000168,493.331696 152.000000,513.000000 
z"/>
<path fill="#000000" opacity="1.000000" stroke="none" 
	d="
M302.000000,1.000000 
	C311.687561,1.000000 321.375122,1.000000 331.531342,1.468657 
	C332.015106,21.947678 332.030243,41.958038 331.574402,61.980335 
	C321.387146,61.984303 311.670898,61.976341 301.975281,61.502106 
	C301.997253,41.023888 301.998627,21.011944 302.000000,1.000000 
z"/>
<path fill="#B5DBFF" opacity="1.000000" stroke="none" 
	d="
M332.045380,61.968403 
	C332.030243,41.958038 332.015106,21.947678 332.000000,1.468657 
	C341.687561,1.000000 351.375122,1.000000 361.531342,1.000000 
	C361.998627,21.011944 361.997253,41.023888 361.509216,61.515560 
	C351.363464,61.986328 341.704407,61.977364 332.045380,61.968403 
z"/>
<path fill="#B5DBFF" opacity="1.000000" stroke="none" 
	d="
M301.531342,1.000000 
	C301.998627,21.011944 301.997253,41.023888 301.509216,61.515556 
	C291.363464,61.986324 281.704407,61.977364 272.024719,61.502129 
	C272.002747,41.023907 272.001373,21.011953 272.000000,1.000000 
	C281.687561,1.000000 291.375122,1.000000 301.531342,1.000000 
z"/>
<path fill="#000000" opacity="1.000000" stroke="none" 
	d="
M271.531342,1.000000 
	C272.001373,21.011953 272.002747,41.023907 271.556030,61.514046 
	C266.379822,62.042973 261.651703,62.093708 256.465271,62.088448 
	C251.336044,61.999615 246.665085,61.966774 241.996826,61.469429 
	C241.999695,41.003277 241.999847,21.001638 242.000000,1.000000 
	C251.687561,1.000000 261.375122,1.000000 271.531342,1.000000 
z"/>
<path fill="#D5E8FE" opacity="1.000000" stroke="none" 
	d="
M241.531342,1.000000 
	C241.999847,21.001638 241.999695,41.003277 241.528946,61.496826 
	C231.374191,61.970470 221.690033,61.952206 212.003174,61.469429 
	C212.000305,41.003281 212.000153,21.001640 212.000000,1.000000 
	C221.687561,1.000000 231.375122,1.000000 241.531342,1.000000 
z"/>
<path fill="#000000" opacity="1.000000" stroke="none" 
	d="
M211.531342,1.000000 
	C212.000153,21.001640 212.000305,41.003281 211.534897,61.496597 
	C201.377594,61.970165 191.685867,61.952053 181.996826,61.469429 
	C181.999695,41.003277 181.999847,21.001638 182.000000,1.000000 
	C191.687561,1.000000 201.375122,1.000000 211.531342,1.000000 
z"/>
<path fill="#D5E8FE" opacity="1.000000" stroke="none" 
	d="
M181.531342,1.000000 
	C181.999847,21.001638 181.999695,41.003277 181.528946,61.496826 
	C171.374191,61.970467 161.690033,61.952202 152.005859,61.933941 
	C152.003906,41.935066 152.001953,21.936190 152.000000,1.468657 
	C161.687561,1.000000 171.375122,1.000000 181.531342,1.000000 
z"/>
<path fill="#B5DBFF" opacity="1.000000" stroke="none" 
	d="
M361.954590,453.031586 
	C361.969727,472.708618 361.984863,492.385651 362.000000,512.531372 
	C352.312439,513.000000 342.624878,513.000000 332.468658,512.531372 
	C332.015137,492.385651 332.030273,472.708618 332.511475,453.018127 
	C342.636566,453.013641 352.295593,453.022614 361.954590,453.031586 
z"/>
<path fill="#000000" opacity="1.000000" stroke="none" 
	d="
M1.000000,332.000000 
	C1.000000,322.312439 1.000000,312.624878 1.468657,302.468658 
	C21.602858,301.998047 41.268398,301.996094 60.961105,302.462402 
	C60.970161,312.622406 60.952045,322.314117 60.469425,332.003174 
	C40.336613,332.000305 20.668306,332.000153 1.000000,332.000000 
z"/>
<path fill="#000000" opacity="1.000000" stroke="none" 
	d="
M513.000000,302.000000 
	C513.000000,311.687561 513.000000,321.375122 512.531372,331.531342 
	C492.385651,332.015137 472.708618,332.030273 453.019684,331.574402 
	C453.015717,321.387146 453.023651,311.670868 453.497864,301.975281 
	C473.642761,301.997284 493.321381,301.998657 513.000000,302.000000 
z"/>
<path fill="#D5E8FE" opacity="1.000000" stroke="none" 
	d="
M1.000000,332.468658 
	C20.668306,332.000153 40.336613,332.000305 60.496826,332.471069 
	C60.970467,342.625824 60.952202,352.309967 60.933937,361.994141 
	C41.268398,361.996094 21.602858,361.998047 1.468657,362.000000 
	C1.000000,352.312439 1.000000,342.624878 1.000000,332.468658 
z"/>
<path fill="#B5DBFF" opacity="1.000000" stroke="none" 
	d="
M453.031586,332.045380 
	C472.708618,332.030273 492.385651,332.015137 512.531372,332.000000 
	C513.000000,341.687561 513.000000,351.375122 513.000000,361.531342 
	C493.321381,361.998657 473.642761,361.997284 453.484436,361.509186 
	C453.013641,351.363434 453.022614,341.704407 453.031586,332.045380 
z"/>
<path fill="#B5DBFF" opacity="1.000000" stroke="none" 
	d="
M513.000000,301.531342 
	C493.321381,301.998657 473.642761,301.997284 453.484436,301.509186 
	C453.013672,291.363434 453.022614,281.704407 453.497864,272.024719 
	C473.642761,272.002716 493.321381,272.001343 513.000000,272.000000 
	C513.000000,281.687561 513.000000,291.375122 513.000000,301.531342 
z"/>
<path fill="#D5E8FE" opacity="1.000000" stroke="none" 
	d="
M152.468658,513.000000 
	C152.000168,493.331696 152.000320,473.663361 152.471069,453.503174 
	C162.625809,453.029510 172.309982,453.047760 181.996826,453.530518 
	C181.999680,473.663361 181.999832,493.331696 182.000000,513.000000 
	C172.312439,513.000000 162.624878,513.000000 152.468658,513.000000 
z"/>
<path fill="#000000" opacity="1.000000" stroke="none" 
	d="
M182.468658,513.000000 
	C181.999832,493.331696 181.999680,473.663361 182.465103,453.503357 
	C192.622406,453.029785 202.314133,453.047882 212.003174,453.530518 
	C212.000320,473.663361 212.000168,493.331696 212.000000,513.000000 
	C202.312439,513.000000 192.624878,513.000000 182.468658,513.000000 
z"/>
<path fill="#D5E8FE" opacity="1.000000" stroke="none" 
	d="
M212.468658,513.000000 
	C212.000168,493.331696 212.000320,473.663361 212.471069,453.503174 
	C222.625809,453.029510 232.309982,453.047760 241.996826,453.530518 
	C241.999680,473.663361 241.999832,493.331696 242.000000,513.000000 
	C232.312439,513.000000 222.624878,513.000000 212.468658,513.000000 
z"/>
<path fill="#000000" opacity="1.000000" stroke="none" 
	d="
M242.468658,513.000000 
	C241.999832,493.331696 241.999680,473.663361 242.462234,453.503418 
	C247.591232,452.959686 252.257507,452.907593 257.393341,452.905457 
	C262.590393,452.980804 267.317871,453.006195 272.024719,453.497864 
	C272.002716,473.642761 272.001343,493.321381 272.000000,513.000000 
	C262.312439,513.000000 252.624878,513.000000 242.468658,513.000000 
z"/>
<path fill="#B5DBFF" opacity="1.000000" stroke="none" 
	d="
M272.468658,513.000000 
	C272.001343,493.321381 272.002716,473.642761 272.490814,453.484436 
	C282.636566,453.013672 292.295593,453.022644 301.975281,453.497864 
	C301.997284,473.642761 301.998657,493.321381 302.000000,513.000000 
	C292.312439,513.000000 282.624878,513.000000 272.468658,513.000000 
z"/>
<path fill="#000000" opacity="1.000000" stroke="none" 
	d="
M302.468658,513.000000 
	C301.998657,493.321381 301.997284,473.642761 302.446259,453.485962 
	C312.612854,453.015747 322.329132,453.023682 332.045380,453.031616 
	C332.030273,472.708618 332.015137,492.385651 332.000000,512.531372 
	C322.312439,513.000000 312.624878,513.000000 302.468658,513.000000 
z"/>
<path fill="#B5DBFF" opacity="1.000000" stroke="none" 
	d="
M513.000000,212.000000 
	C513.000000,221.687561 513.000000,231.375122 512.531372,241.531342 
	C492.385651,241.984879 472.708618,241.969757 453.018127,241.488556 
	C453.013672,231.363434 453.022644,221.704391 453.497864,212.024734 
	C473.642761,212.002747 493.321381,212.001373 513.000000,212.000000 
z"/>
<path fill="#D5E8FE" opacity="1.000000" stroke="none" 
	d="
M1.000000,152.468658 
	C20.668306,152.000153 40.336613,152.000305 60.496822,152.471054 
	C60.970467,162.625809 60.952202,172.309967 60.469429,181.996826 
	C40.336613,181.999695 20.668306,181.999847 1.000000,182.000000 
	C1.000000,172.312439 1.000000,162.624878 1.000000,152.468658 
z"/>
<path fill="#B5DBFF" opacity="1.000000" stroke="none" 
	d="
M453.031586,152.045364 
	C472.708618,152.030243 492.385651,152.015121 512.531372,152.000000 
	C513.000000,161.687561 513.000000,171.375122 512.531372,181.531342 
	C492.385651,181.984879 472.708618,181.969757 453.018127,181.488556 
	C453.013672,171.363434 453.022644,161.704391 453.031586,152.045364 
z"/>
<path fill="#000000" opacity="1.000000" stroke="none" 
	d="
M1.000000,182.468658 
	C20.668306,181.999847 40.336613,181.999695 60.496597,182.465103 
	C60.970161,192.622406 60.952049,202.314133 60.469425,212.003174 
	C40.336613,212.000305 20.668306,212.000153 1.000000,212.000000 
	C1.000000,202.312439 1.000000,192.624878 1.000000,182.468658 
z"/>
<path fill="#000000" opacity="1.000000" stroke="none" 
	d="
M453.031586,181.954636 
	C472.708618,181.969757 492.385651,181.984879 512.531372,182.000000 
	C513.000000,191.687561 513.000000,201.375122 513.000000,211.531342 
	C493.321381,212.001373 473.642761,212.002747 453.485962,211.553757 
	C453.015717,201.387146 453.023651,191.670898 453.031586,181.954636 
z"/>
<path fill="#D5E8FE" opacity="1.000000" stroke="none" 
	d="
M1.000000,212.468658 
	C20.668306,212.000153 40.336613,212.000305 60.496826,212.471054 
	C60.970467,222.625809 60.952202,232.309967 60.469429,241.996826 
	C40.336613,241.999695 20.668306,241.999847 1.000000,242.000000 
	C1.000000,232.312439 1.000000,222.624878 1.000000,212.468658 
z"/>
<path fill="#D5E8FE" opacity="1.000000" stroke="none" 
	d="
M60.933941,301.994141 
	C41.268398,301.996094 21.602858,301.998047 1.468657,302.000000 
	C1.000000,292.312439 1.000000,282.624878 1.468657,272.468658 
	C21.602854,272.001953 41.268394,272.003906 60.961197,272.473694 
	C60.970284,282.625763 60.952110,292.309937 60.933941,301.994141 
z"/>
<path fill="#000000" opacity="1.000000" stroke="none" 
	d="
M60.933933,272.005859 
	C41.268394,272.003906 21.602854,272.001953 1.468657,272.000000 
	C1.000000,262.312439 1.000000,252.624878 1.000000,242.468658 
	C20.668306,241.999847 40.336613,241.999695 60.496597,242.465103 
	C60.970161,252.622406 60.952045,262.314117 60.933933,272.005859 
z"/>
<path fill="#000000" opacity="1.000000" stroke="none" 
	d="
M453.031616,241.954636 
	C472.708618,241.969757 492.385651,241.984879 512.531372,242.000000 
	C513.000000,251.687561 513.000000,261.375122 513.000000,271.531342 
	C493.321381,272.001343 473.642761,272.002716 453.485962,271.553741 
	C453.015747,261.387146 453.023682,251.670883 453.031616,241.954636 
z"/>
<path fill="#415BA5" opacity="1.000000" stroke="none" 
	d="
M60.961197,272.473694 
	C60.952045,262.314117 60.970161,252.622406 60.961109,242.462402 
	C60.952202,232.309967 60.970467,222.625809 60.961334,212.473755 
	C60.952049,202.314133 60.970161,192.622406 60.961105,182.462402 
	C60.952202,172.309967 60.970467,162.625809 60.961334,152.473755 
	C60.933937,122.231758 60.933937,92.457657 60.933937,61.988277 
	C91.270210,61.988277 121.169762,61.988277 151.537598,61.961109 
	C161.690033,61.952202 171.374191,61.970467 181.526245,61.961334 
	C191.685867,61.952053 201.377594,61.970165 211.537598,61.961109 
	C221.690033,61.952206 231.374191,61.970470 241.526245,61.961334 
	C246.665085,61.966774 251.336044,61.999615 256.489960,62.545898 
	C257.003326,82.665771 257.033691,102.272202 256.636322,121.931763 
	C244.000397,122.485992 234.183853,128.222488 227.516205,137.840469 
	C221.136017,147.043808 216.034225,157.236649 211.286865,167.421677 
	C209.165283,171.973373 207.670425,173.581497 202.374893,172.493454 
	C187.924042,169.524277 173.335327,168.527527 159.064209,173.818802 
	C142.757889,179.864670 133.686203,194.739655 135.832184,211.913956 
	C137.775192,227.463730 146.361877,239.675964 155.851700,251.414780 
	C157.375748,253.300034 158.936234,255.155853 160.498245,257.047546 
	C158.486252,259.435486 156.853394,261.318939 155.279678,263.250580 
	C147.775085,272.461823 141.166763,282.193329 137.560135,293.681305 
	C130.420959,316.421478 142.001877,336.684235 165.174088,342.005829 
	C177.775452,344.899780 190.345978,343.910004 202.795547,341.317841 
	C207.451660,340.348358 209.085403,341.663422 211.089371,345.963104 
	C215.906586,356.298828 220.989761,366.686157 227.436295,376.039001 
	C234.300034,385.997101 244.492188,391.724792 257.043457,392.581879 
	C256.989868,412.980194 256.956848,432.917847 256.923798,452.855530 
	C252.257507,452.907593 247.591232,452.959686 242.459534,453.038879 
	C232.309982,453.047760 222.625809,453.029510 212.473755,453.038635 
	C202.314133,453.047882 192.622406,453.029785 182.462402,453.038849 
	C172.309982,453.047760 162.625809,453.029510 152.473755,453.038635 
	C121.898544,453.066010 91.791229,453.066010 60.988277,453.066010 
	C60.988277,422.730042 60.988277,392.830353 60.961105,362.462402 
	C60.952202,352.309967 60.970467,342.625824 60.961334,332.473755 
	C60.952045,322.314117 60.970161,312.622406 60.961105,302.462402 
	C60.952110,292.309937 60.970284,282.625763 60.961197,272.473694 
z"/>
<path fill="#29376D" opacity="1.000000" stroke="none" 
	d="
M257.393341,452.905457 
	C256.956848,432.917847 256.989868,412.980194 257.039520,392.513428 
	C257.056122,391.984344 256.948883,391.898834 257.385254,391.940491 
	C267.398682,392.117828 275.145630,387.884338 281.884827,381.581970 
	C292.622284,371.540558 298.821564,358.654602 303.605530,345.100311 
	C305.041168,341.032745 306.758911,340.723907 310.456543,341.455536 
	C323.563599,344.049042 336.731934,345.250641 349.968323,341.971588 
	C369.921661,337.028564 381.167175,320.362885 378.103119,300.229584 
	C376.536407,289.934937 371.804962,281.038055 365.999237,272.669220 
	C362.234650,267.242676 357.997528,262.143921 353.909454,256.816589 
	C356.000092,254.287964 358.044495,251.893143 360.004364,249.431000 
	C367.608368,239.878296 374.157013,229.760773 377.351685,217.768402 
	C382.677002,197.777954 372.654541,179.302750 352.941528,172.920822 
	C338.535889,168.257095 324.053925,169.795761 309.620209,172.588913 
	C306.401672,173.211761 305.256836,172.580338 303.777832,169.500809 
	C298.769867,159.073334 294.009308,148.352280 287.525330,138.855545 
	C280.481934,128.539551 270.428650,121.673386 257.002502,122.058250 
	C257.056183,122.015579 257.064087,121.878624 257.064087,121.878624 
	C257.033691,102.272202 257.003326,82.665771 256.948242,62.601894 
	C261.651703,62.093708 266.379822,62.042973 271.576660,61.980316 
	C281.704407,61.977364 291.363464,61.986324 301.488586,61.981831 
	C311.670898,61.976341 321.387146,61.984303 331.574402,61.980335 
	C341.704407,61.977364 351.363464,61.986328 361.488586,61.981834 
	C392.048279,61.968376 422.141937,61.968376 453.007782,61.968376 
	C453.007782,91.998505 453.007782,121.550957 453.019684,151.574387 
	C453.022644,161.704391 453.013672,171.363434 453.018127,181.488556 
	C453.023651,191.670898 453.015717,201.387146 453.019684,211.574387 
	C453.022644,221.704391 453.013672,231.363434 453.018158,241.488556 
	C453.023682,251.670883 453.015747,261.387146 453.019714,271.574402 
	C453.022614,281.704407 453.013672,291.363434 453.018127,301.488525 
	C453.023651,311.670868 453.015717,321.387146 453.019684,331.574402 
	C453.022614,341.704407 453.013641,351.363434 453.018127,361.488525 
	C453.031586,392.048431 453.031586,422.142273 453.031586,453.007782 
	C422.667847,453.007782 392.782227,453.007782 362.425598,453.019684 
	C352.295593,453.022614 342.636566,453.013641 332.511475,453.018158 
	C322.329132,453.023682 312.612854,453.015747 302.425598,453.019714 
	C292.295593,453.022644 282.636566,453.013672 272.511475,453.018158 
	C267.317871,453.006195 262.590393,452.980804 257.393341,452.905457 
z"/>
<path fill="#9AFBFE" opacity="1.000000" stroke="none" 
	d="
M257.060059,392.052795 
	C244.492188,391.724792 234.300034,385.997101 227.436295,376.039001 
	C220.989761,366.686157 215.906586,356.298828 211.089371,345.963104 
	C209.085403,341.663422 207.451660,340.348358 202.795547,341.317841 
	C190.345978,343.910004 177.775452,344.899780 165.174088,342.005829 
	C142.001877,336.684235 130.420959,316.421478 137.560135,293.681305 
	C141.166763,282.193329 147.775085,272.461823 155.279678,263.250580 
	C156.853394,261.318939 158.486252,259.435486 160.498245,257.047546 
	C158.936234,255.155853 157.375748,253.300034 155.851700,251.414780 
	C146.361877,239.675964 137.775192,227.463730 135.832184,211.913956 
	C133.686203,194.739655 142.757889,179.864670 159.064209,173.818802 
	C173.335327,168.527527 187.924042,169.524277 202.374893,172.493454 
	C207.670425,173.581497 209.165283,171.973373 211.286865,167.421677 
	C216.034225,157.236649 221.136017,147.043808 227.516205,137.840469 
	C234.183853,128.222488 244.000397,122.485992 256.636322,121.931763 
	C257.064087,121.878624 257.056183,122.015579 257.018707,122.519974 
	C256.997070,132.618958 257.012909,142.213562 256.689026,151.921722 
	C244.999573,158.700333 242.580505,170.797653 237.457916,182.014801 
	C244.369263,184.679855 250.669922,187.109406 256.971436,189.973862 
	C256.988342,201.437225 257.004333,212.465698 256.652588,223.606293 
	C247.625870,228.617874 238.874680,233.366364 230.388962,238.549469 
	C228.772003,239.537109 227.373474,242.208832 227.295624,244.160263 
	C226.958008,252.622635 226.931931,261.115326 227.297195,269.575195 
	C227.387665,271.670471 228.845856,274.551300 230.568268,275.589172 
	C239.224121,280.804871 248.176025,285.529266 257.010620,290.867920 
	C256.992126,302.162659 256.987000,313.015625 256.640564,323.998291 
	C250.231079,326.675812 244.162918,329.223694 237.721893,331.928101 
	C240.933655,341.476593 244.567230,350.485596 251.012741,358.019806 
	C252.546600,359.812714 254.997925,360.820740 257.019531,362.646484 
	C256.990875,372.701721 256.969879,382.300293 256.948883,391.898834 
	C256.948883,391.898834 257.056122,391.984344 257.060059,392.052795 
M179.006531,281.515533 
	C174.661362,287.949432 169.601807,294.028229 166.176270,300.919281 
	C162.891586,307.526947 166.196030,312.482910 173.539185,314.077454 
	C182.954346,316.121918 191.911499,313.507629 201.434372,311.483124 
	C200.548111,304.576599 199.741699,298.029602 198.822281,291.498535 
	C198.720764,290.777344 198.107346,289.976349 197.503799,289.501678 
	C192.582581,285.631317 187.607224,281.829803 182.172913,277.640900 
	C181.149780,278.928101 180.322006,279.969543 179.006531,281.515533 
M172.424423,200.413574 
	C165.480118,202.994095 163.549393,206.640549 165.935593,213.446640 
	C169.151520,222.619308 175.641907,229.453354 182.285355,236.286499 
	C187.489944,232.277298 192.402130,228.595734 197.167191,224.732697 
	C198.073547,223.997910 198.732254,222.601364 198.931931,221.413757 
	C199.729431,216.670303 200.140686,211.859299 201.012054,207.131760 
	C201.590988,203.990799 200.626251,202.332825 197.475693,202.077087 
	C189.402618,201.421753 181.325409,200.817184 172.424423,200.413574 
z"/>
<path fill="#76E1F7" opacity="1.000000" stroke="none" 
	d="
M257.385254,391.940491 
	C256.969879,382.300293 256.990875,372.701721 257.023743,362.529297 
	C257.035675,361.955444 256.978027,361.728149 257.317871,361.740784 
	C268.799408,354.926117 271.464142,343.006683 276.244476,331.932220 
	C269.820496,329.405670 263.978088,327.107880 258.004822,324.588806 
	C257.576630,324.201233 257.279266,324.034943 256.981903,323.868622 
	C256.987000,313.015625 256.992126,302.162659 257.019531,290.734558 
	C257.041779,290.159424 256.982391,289.898712 257.347198,289.932739 
	C266.345428,285.101379 275.031464,280.324829 283.556580,275.276520 
	C284.859222,274.505157 286.164093,272.495880 286.199677,271.028442 
	C286.428253,261.596130 286.358032,252.154480 286.224396,242.718201 
	C286.207977,241.560501 285.546417,239.861481 284.650085,239.351669 
	C275.493011,234.143219 266.225433,229.129044 257.016174,223.920059 
	C257.043579,223.779556 257.020355,223.494171 257.020355,223.494171 
	C257.004333,212.465698 256.988342,201.437225 257.072754,189.888123 
	C257.173187,189.367477 257.047607,189.133636 257.428955,189.155334 
	C263.892792,186.761841 269.975250,184.346649 276.845276,181.618744 
	C272.947815,173.922791 269.760681,166.619232 265.621277,159.902527 
	C263.691620,156.771454 259.916687,154.777588 257.006958,152.154999 
	C257.035736,152.041748 257.028778,151.808151 257.028748,151.808151 
	C257.012909,142.213562 256.997070,132.618958 256.965027,122.562637 
	C270.428650,121.673386 280.481934,128.539551 287.525330,138.855545 
	C294.009308,148.352280 298.769867,159.073334 303.777832,169.500809 
	C305.256836,172.580338 306.401672,173.211761 309.620209,172.588913 
	C324.053925,169.795761 338.535889,168.257095 352.941528,172.920822 
	C372.654541,179.302750 382.677002,197.777954 377.351685,217.768402 
	C374.157013,229.760773 367.608368,239.878296 360.004364,249.431000 
	C358.044495,251.893143 356.000092,254.287964 353.909454,256.816589 
	C357.997528,262.143921 362.234650,267.242676 365.999237,272.669220 
	C371.804962,281.038055 376.536407,289.934937 378.103119,300.229584 
	C381.167175,320.362885 369.921661,337.028564 349.968323,341.971588 
	C336.731934,345.250641 323.563599,344.049042 310.456543,341.455536 
	C306.758911,340.723907 305.041168,341.032745 303.605530,345.100311 
	C298.821564,358.654602 292.622284,371.540558 281.884827,381.581970 
	C275.145630,387.884338 267.398682,392.117828 257.385254,391.940491 
M348.906586,304.543793 
	C346.658295,293.386047 339.073029,285.786896 331.678070,277.938232 
	C326.761169,281.767365 322.117401,285.250183 317.654053,288.950562 
	C316.488586,289.916779 315.382385,291.466797 315.114105,292.909546 
	C314.209290,297.775787 313.499268,302.701141 313.161743,307.634460 
	C313.073853,308.918976 314.473083,311.368011 315.425385,311.493713 
	C323.430725,312.550446 331.485596,313.684021 339.536865,313.773102 
	C344.429962,313.827240 348.362213,311.007111 348.906586,304.543793 
M338.048523,228.536407 
	C341.329468,223.379547 345.332367,218.532135 347.708923,212.987610 
	C350.689728,206.033249 347.023132,200.622955 339.502716,200.122040 
	C334.240753,199.771576 328.825928,199.911407 323.629547,200.756058 
	C312.624237,202.544861 312.522675,202.813721 314.131134,213.642044 
	C314.692352,217.420151 315.118713,221.974182 317.417816,224.569199 
	C321.314514,228.967453 326.650024,232.091003 331.596893,235.917587 
	C333.656738,233.564728 335.621979,231.319931 338.048523,228.536407 
z"/>
<path fill="#425CA6" opacity="1.000000" stroke="none" 
	d="
M257.032867,290.292816 
	C248.176025,285.529266 239.224121,280.804871 230.568268,275.589172 
	C228.845856,274.551300 227.387665,271.670471 227.297195,269.575195 
	C226.931931,261.115326 226.958008,252.622635 227.295624,244.160263 
	C227.373474,242.208832 228.772003,239.537109 230.388962,238.549469 
	C238.874680,233.366364 247.625870,228.617874 256.652588,223.606293 
	C257.020355,223.494171 257.043579,223.779556 257.017639,224.384293 
	C256.988586,246.625595 256.985474,268.262146 256.982391,289.898712 
	C256.982391,289.898712 257.041779,290.159424 257.032867,290.292816 
z"/>
<path fill="#425EA6" opacity="1.000000" stroke="none" 
	d="
M179.250397,281.263245 
	C180.322006,279.969543 181.149780,278.928101 182.172913,277.640900 
	C187.607224,281.829803 192.582581,285.631317 197.503799,289.501678 
	C198.107346,289.976349 198.720764,290.777344 198.822281,291.498535 
	C199.741699,298.029602 200.548111,304.576599 201.434372,311.483124 
	C191.911499,313.507629 182.954346,316.121918 173.539185,314.077454 
	C166.196030,312.482910 162.891586,307.526947 166.176270,300.919281 
	C169.601807,294.028229 174.661362,287.949432 179.250397,281.263245 
z"/>
<path fill="#425DA6" opacity="1.000000" stroke="none" 
	d="
M172.837143,200.302948 
	C181.325409,200.817184 189.402618,201.421753 197.475693,202.077087 
	C200.626251,202.332825 201.590988,203.990799 201.012054,207.131760 
	C200.140686,211.859299 199.729431,216.670303 198.931931,221.413757 
	C198.732254,222.601364 198.073547,223.997910 197.167191,224.732697 
	C192.402130,228.595734 187.489944,232.277298 182.285355,236.286499 
	C175.641907,229.453354 169.151520,222.619308 165.935593,213.446640 
	C163.549393,206.640549 165.480118,202.994095 172.837143,200.302948 
z"/>
<path fill="#425EA6" opacity="1.000000" stroke="none" 
	d="
M256.640564,323.998291 
	C257.279266,324.034943 257.576630,324.201233 257.691406,324.891296 
	C257.331879,337.519379 257.154938,349.623779 256.978027,361.728149 
	C256.978027,361.728149 257.035675,361.955444 257.031464,362.072632 
	C254.997925,360.820740 252.546600,359.812714 251.012741,358.019806 
	C244.567230,350.485596 240.933655,341.476593 237.721893,331.928101 
	C244.162918,329.223694 250.231079,326.675812 256.640564,323.998291 
z"/>
<path fill="#425EA6" opacity="1.000000" stroke="none" 
	d="
M257.071899,189.453217 
	C250.669922,187.109406 244.369263,184.679855 237.457916,182.014801 
	C242.580505,170.797653 244.999573,158.700333 256.689026,151.921722 
	C257.028778,151.808151 257.035736,152.041748 257.017853,152.605423 
	C257.015839,165.157272 257.031738,177.145462 257.047607,189.133636 
	C257.047607,189.133636 257.173187,189.367477 257.071899,189.453217 
z"/>
<path fill="#2A386E" opacity="1.000000" stroke="none" 
	d="
M257.347198,289.932739 
	C256.985474,268.262146 256.988586,246.625595 256.990234,224.524796 
	C266.225433,229.129044 275.493011,234.143219 284.650085,239.351669 
	C285.546417,239.861481 286.207977,241.560501 286.224396,242.718201 
	C286.358032,252.154480 286.428253,261.596130 286.199677,271.028442 
	C286.164093,272.495880 284.859222,274.505157 283.556580,275.276520 
	C275.031464,280.324829 266.345428,285.101379 257.347198,289.932739 
z"/>
<path fill="#2A386E" opacity="1.000000" stroke="none" 
	d="
M348.914032,304.939697 
	C348.362213,311.007111 344.429962,313.827240 339.536865,313.773102 
	C331.485596,313.684021 323.430725,312.550446 315.425385,311.493713 
	C314.473083,311.368011 313.073853,308.918976 313.161743,307.634460 
	C313.499268,302.701141 314.209290,297.775787 315.114105,292.909546 
	C315.382385,291.466797 316.488586,289.916779 317.654053,288.950562 
	C322.117401,285.250183 326.761169,281.767365 331.678070,277.938232 
	C339.073029,285.786896 346.658295,293.386047 348.914032,304.939697 
z"/>
<path fill="#2A396E" opacity="1.000000" stroke="none" 
	d="
M337.817871,228.805771 
	C335.621979,231.319931 333.656738,233.564728 331.596893,235.917587 
	C326.650024,232.091003 321.314514,228.967453 317.417816,224.569199 
	C315.118713,221.974182 314.692352,217.420151 314.131134,213.642044 
	C312.522675,202.813721 312.624237,202.544861 323.629547,200.756058 
	C328.825928,199.911407 334.240753,199.771576 339.502716,200.122040 
	C347.023132,200.622955 350.689728,206.033249 347.708923,212.987610 
	C345.332367,218.532135 341.329468,223.379547 337.817871,228.805771 
z"/>
<path fill="#2A396E" opacity="1.000000" stroke="none" 
	d="
M257.317871,361.740784 
	C257.154938,349.623779 257.331879,337.519379 257.822205,325.112549 
	C263.978088,327.107880 269.820496,329.405670 276.244476,331.932220 
	C271.464142,343.006683 268.799408,354.926117 257.317871,361.740784 
z"/>
<path fill="#2A396E" opacity="1.000000" stroke="none" 
	d="
M257.428955,189.155334 
	C257.031738,177.145462 257.015839,165.157272 256.989075,152.718674 
	C259.916687,154.777588 263.691620,156.771454 265.621277,159.902527 
	C269.760681,166.619232 272.947815,173.922791 276.845276,181.618744 
	C269.975250,184.346649 263.892792,186.761841 257.428955,189.155334 
z"/>
</svg>