<svg xmlns="http://www.w3.org/2000/svg" version="1.1" xmlns:xlink="http://www.w3.org/1999/xlink"
    viewBox="0 0 700 700" style="overflow: hidden; display: block;" width="700" height="700">
    <defs>
        <linearGradient id="two-223" x1="350" y1="-350" x2="350" y2="350" spreadMethod="pad"
            gradientUnits="userSpaceOnUse">
            <stop offset="0%" stop-color="hsl(205, 69%, 60%)" stop-opacity="1"></stop>
            <stop offset="100%" stop-color="hsl(205, 69%, 80%)" stop-opacity="1"></stop>
        </linearGradient>
    </defs>
    <g id="two-0" transform="matrix(1 0 0 1 0 0)" opacity="1">
        <path transform="matrix(1 0 0 1 350 350)" id="two-227"
            d="M 222.440949 65.314555 C 211.067469 94.659292 257.660953 128.766366 245.590183 157.831227 C 235.017543 183.288782 201.28326 197.736189 173.873083 200.660234 C 140.194185 204.25301 106.540635 151.906958 76.636026 167.809491 C 38.672063 187.99779 79.964692 272.922904 42.19494 293.472254 C 17.652439 306.825067 -16.078333 284.55203 -38.519309 267.907676 C -62.100732 250.417458 -61.560285 205.385456 -88.84297 194.538966 C -119.617071 182.30443 -165.447385 240.933529 -186.933687 215.732974 C -216.239837 181.360786 -119.534734 129.752937 -137.235876 88.196141 C -146.694384 65.990497 -183.165692 70.877999 -204.775425 60.127489 C -239.953139 42.627119 -291.021276 35.649584 -307.539193 0 C -319.6354 -26.106486 -296.220031 -57.350914 -292.477546 -85.879157 C -288.31313 -117.623703 -310.074421 -163.919994 -284.021895 -182.529789 C -239.677329 -214.205921 -168.599818 -111.863321 -123.733703 -142.796305 C -96.018227 -161.904764 -138.632611 -224.192394 -111.46229 -244.06837 C -90.181342 -259.636079 -57.716567 -238.270951 -32.955325 -229.209318 C -11.254953 -221.267842 5.160493 -198.255776 28.000155 -194.74536 C 50.506854 -191.286121 76.130169 -221.083936 95.493294 -209.101148 C 117.571752 -195.437988 97.150686 -151.608528 115.179628 -132.924377 C 130.165231 -117.394165 156.824102 -119.075169 177.873342 -114.312256 C 222.690225 -104.171325 284.556733 -126.661001 315.414386 -92.614021 C 335.973618 -69.929866 334.496469 -27.388488 320.817154 -0.000001 C 303.40544 34.861433 236.523404 28.980387 222.440949 65.314555 Z "
            fill="url(#two-223)" stroke="undefined" stroke-width="1" stroke-opacity="1"
            fill-opacity="1" visibility="visible" stroke-linecap="butt" stroke-linejoin="miter"
            stroke-miterlimit="4"></path>
    </g>
</svg>