<svg xmlns="http://www.w3.org/2000/svg" version="1.1" xmlns:xlink="http://www.w3.org/1999/xlink"
    xmlns:svgjs="http://svgjs.dev/svgjs" viewBox="0 0 800 800" opacity="0.31">
    <defs>
        <linearGradient x1="50%" y1="0%" x2="50%" y2="100%" id="vvvortex-grad">
            <stop stop-color="hsl(205, 69%, 60%)" stop-opacity="1" offset="0%"></stop>
            <stop stop-color="hsl(205, 69%, 80%)" stop-opacity="1" offset="100%"></stop>
        </linearGradient>
    </defs>
    <g stroke="url(#vvvortex-grad)" fill="none" stroke-linecap="round">
        <circle r="363" cx="400" cy="400" stroke-width="11" stroke-dasharray="26 15"
            stroke-dashoffset="25" transform="rotate(160, 400, 400)" opacity="0.05"></circle>
        <circle r="346.5" cx="400" cy="400" stroke-width="11" stroke-dasharray="47 37"
            stroke-dashoffset="25" transform="rotate(104, 400, 400)" opacity="0.10"></circle>
        <circle r="330" cx="400" cy="400" stroke-width="10" stroke-dasharray="18 35"
            stroke-dashoffset="25" transform="rotate(272, 400, 400)" opacity="0.14"></circle>
        <circle r="313.5" cx="400" cy="400" stroke-width="10" stroke-dasharray="47 52"
            stroke-dashoffset="25" transform="rotate(211, 400, 400)" opacity="0.19"></circle>
        <circle r="297" cx="400" cy="400" stroke-width="10" stroke-dasharray="25 48"
            stroke-dashoffset="25" transform="rotate(156, 400, 400)" opacity="0.23"></circle>
        <circle r="280.5" cx="400" cy="400" stroke-width="10" stroke-dasharray="20 22"
            stroke-dashoffset="25" transform="rotate(248, 400, 400)" opacity="0.28"></circle>
        <circle r="264" cx="400" cy="400" stroke-width="9" stroke-dasharray="30 22"
            stroke-dashoffset="25" transform="rotate(243, 400, 400)" opacity="0.32"></circle>
        <circle r="247.5" cx="400" cy="400" stroke-width="9" stroke-dasharray="35 11"
            stroke-dashoffset="25" transform="rotate(324, 400, 400)" opacity="0.37"></circle>
        <circle r="231" cx="400" cy="400" stroke-width="9" stroke-dasharray="37 52"
            stroke-dashoffset="25" transform="rotate(66, 400, 400)" opacity="0.41"></circle>
        <circle r="214.5" cx="400" cy="400" stroke-width="8" stroke-dasharray="33 23"
            stroke-dashoffset="25" transform="rotate(316, 400, 400)" opacity="0.46"></circle>
        <circle r="198" cx="400" cy="400" stroke-width="8" stroke-dasharray="39 35"
            stroke-dashoffset="25" transform="rotate(54, 400, 400)" opacity="0.50"></circle>
        <circle r="181.5" cx="400" cy="400" stroke-width="8" stroke-dasharray="48 14"
            stroke-dashoffset="25" transform="rotate(145, 400, 400)" opacity="0.55"></circle>
        <circle r="165" cx="400" cy="400" stroke-width="8" stroke-dasharray="52 17"
            stroke-dashoffset="25" transform="rotate(326, 400, 400)" opacity="0.59"></circle>
        <circle r="148.5" cx="400" cy="400" stroke-width="7" stroke-dasharray="18 36"
            stroke-dashoffset="25" transform="rotate(77, 400, 400)" opacity="0.64"></circle>
        <circle r="132" cx="400" cy="400" stroke-width="7" stroke-dasharray="10 44"
            stroke-dashoffset="25" transform="rotate(150, 400, 400)" opacity="0.68"></circle>
        <circle r="115.5" cx="400" cy="400" stroke-width="7" stroke-dasharray="47 23"
            stroke-dashoffset="25" transform="rotate(262, 400, 400)" opacity="0.73"></circle>
        <circle r="99" cx="400" cy="400" stroke-width="6" stroke-dasharray="54 44"
            stroke-dashoffset="25" transform="rotate(71, 400, 400)" opacity="0.77"></circle>
        <circle r="82.5" cx="400" cy="400" stroke-width="6" stroke-dasharray="24 37"
            stroke-dashoffset="25" transform="rotate(358, 400, 400)" opacity="0.82"></circle>
        <circle r="66" cx="400" cy="400" stroke-width="6" stroke-dasharray="26 33"
            stroke-dashoffset="25" transform="rotate(79, 400, 400)" opacity="0.86"></circle>
        <circle r="49.5" cx="400" cy="400" stroke-width="6" stroke-dasharray="31 22"
            stroke-dashoffset="25" transform="rotate(27, 400, 400)" opacity="0.91"></circle>
        <circle r="33" cx="400" cy="400" stroke-width="5" stroke-dasharray="33 22"
            stroke-dashoffset="25" transform="rotate(133, 400, 400)" opacity="0.95"></circle>
        <circle r="16.5" cx="400" cy="400" stroke-width="5" stroke-dasharray="22 43"
            stroke-dashoffset="25" transform="rotate(262, 400, 400)" opacity="1.00"></circle>
    </g>
</svg>