<svg xmlns="http://www.w3.org/2000/svg" version="1.1" xmlns:xlink="http://www.w3.org/1999/xlink"
    xmlns:svgjs="http://svgjs.dev/svgjs" viewBox="0 0 800 800" opacity="0.58">
    <defs>
        <linearGradient x1="50%" y1="0%" x2="50%" y2="100%" id="vvvortex-grad">
            <stop stop-color="hsl(230, 55%, 50%)" stop-opacity="1" offset="0%"></stop>
            <stop stop-color="hsl(182, 55%, 70%)" stop-opacity="1" offset="100%"></stop>
        </linearGradient>
    </defs>
    <g stroke="url(#vvvortex-grad)" fill="none" stroke-linecap="round">
        <circle r="363" cx="400" cy="400" stroke-width="11" stroke-dasharray="23 28"
            stroke-dashoffset="25" transform="rotate(296, 400, 400)" opacity="0.05"></circle>
        <circle r="346.5" cx="400" cy="400" stroke-width="11" stroke-dasharray="31 16"
            stroke-dashoffset="25" transform="rotate(224, 400, 400)" opacity="0.10"></circle>
        <circle r="330" cx="400" cy="400" stroke-width="10" stroke-dasharray="40 29"
            stroke-dashoffset="25" transform="rotate(2, 400, 400)" opacity="0.14"></circle>
        <circle r="313.5" cx="400" cy="400" stroke-width="10" stroke-dasharray="41 13"
            stroke-dashoffset="25" transform="rotate(195, 400, 400)" opacity="0.19"></circle>
        <circle r="297" cx="400" cy="400" stroke-width="10" stroke-dasharray="36 31"
            stroke-dashoffset="25" transform="rotate(194, 400, 400)" opacity="0.23"></circle>
        <circle r="280.5" cx="400" cy="400" stroke-width="10" stroke-dasharray="18 49"
            stroke-dashoffset="25" transform="rotate(122, 400, 400)" opacity="0.28"></circle>
        <circle r="264" cx="400" cy="400" stroke-width="9" stroke-dasharray="14 41"
            stroke-dashoffset="25" transform="rotate(99, 400, 400)" opacity="0.32"></circle>
        <circle r="247.5" cx="400" cy="400" stroke-width="9" stroke-dasharray="22 17"
            stroke-dashoffset="25" transform="rotate(260, 400, 400)" opacity="0.37"></circle>
        <circle r="231" cx="400" cy="400" stroke-width="9" stroke-dasharray="37 20"
            stroke-dashoffset="25" transform="rotate(144, 400, 400)" opacity="0.41"></circle>
        <circle r="214.5" cx="400" cy="400" stroke-width="8" stroke-dasharray="12 44"
            stroke-dashoffset="25" transform="rotate(333, 400, 400)" opacity="0.46"></circle>
        <circle r="198" cx="400" cy="400" stroke-width="8" stroke-dasharray="12 15"
            stroke-dashoffset="25" transform="rotate(216, 400, 400)" opacity="0.50"></circle>
        <circle r="181.5" cx="400" cy="400" stroke-width="8" stroke-dasharray="49 46"
            stroke-dashoffset="25" transform="rotate(207, 400, 400)" opacity="0.55"></circle>
        <circle r="165" cx="400" cy="400" stroke-width="8" stroke-dasharray="42 29"
            stroke-dashoffset="25" transform="rotate(25, 400, 400)" opacity="0.59"></circle>
        <circle r="148.5" cx="400" cy="400" stroke-width="7" stroke-dasharray="39 31"
            stroke-dashoffset="25" transform="rotate(316, 400, 400)" opacity="0.64"></circle>
        <circle r="132" cx="400" cy="400" stroke-width="7" stroke-dasharray="28 21"
            stroke-dashoffset="25" transform="rotate(18, 400, 400)" opacity="0.68"></circle>
        <circle r="115.5" cx="400" cy="400" stroke-width="7" stroke-dasharray="50 34"
            stroke-dashoffset="25" transform="rotate(350, 400, 400)" opacity="0.73"></circle>
        <circle r="99" cx="400" cy="400" stroke-width="6" stroke-dasharray="18 17"
            stroke-dashoffset="25" transform="rotate(176, 400, 400)" opacity="0.77"></circle>
        <circle r="82.5" cx="400" cy="400" stroke-width="6" stroke-dasharray="14 10"
            stroke-dashoffset="25" transform="rotate(354, 400, 400)" opacity="0.82"></circle>
        <circle r="66" cx="400" cy="400" stroke-width="6" stroke-dasharray="53 40"
            stroke-dashoffset="25" transform="rotate(52, 400, 400)" opacity="0.86"></circle>
        <circle r="49.5" cx="400" cy="400" stroke-width="6" stroke-dasharray="11 15"
            stroke-dashoffset="25" transform="rotate(253, 400, 400)" opacity="0.91"></circle>
        <circle r="33" cx="400" cy="400" stroke-width="5" stroke-dasharray="27 19"
            stroke-dashoffset="25" transform="rotate(31, 400, 400)" opacity="0.95"></circle>
        <circle r="16.5" cx="400" cy="400" stroke-width="5" stroke-dasharray="46 41"
            stroke-dashoffset="25" transform="rotate(218, 400, 400)" opacity="1.00"></circle>
    </g>
</svg>