<svg version="1.1" id="Layer_1" xmlns="http://www.w3.org/2000/svg" xmlns:xlink="http://www.w3.org/1999/xlink" x="0px" y="0px"
	 width="100%" viewBox="0 0 512 512" enable-background="new 0 0 512 512" xml:space="preserve">
<path fill="#0C4278" opacity="1.000000" stroke="none" 
	d="
M298.000000,513.000000 
	C270.979095,513.000000 243.958206,513.000000 216.453552,512.588379 
	C215.123016,511.794922 214.304596,511.173553 213.424911,511.069397 
	C206.858643,510.291595 200.216660,509.980804 193.716431,508.846985 
	C161.831329,503.285309 130.641602,495.501038 102.268890,479.094940 
	C89.572449,471.753418 77.970123,463.129211 68.910461,451.393219 
	C58.846420,438.356171 54.750092,423.599487 57.445786,407.465942 
	C60.632290,388.394867 72.905212,374.882507 87.094940,363.010559 
	C97.092667,354.645905 108.214027,347.520966 117.589806,338.543427 
	C128.356812,328.233704 136.905869,315.969269 143.026306,302.113159 
	C152.644760,280.337830 154.228989,257.766724 150.282120,234.636475 
	C147.945587,220.943314 142.642090,208.300827 135.230927,196.556702 
	C124.934883,180.241043 112.071526,166.319763 96.090782,155.459824 
	C85.059364,147.963242 74.438393,139.982178 66.942879,128.799469 
	C50.765171,104.663666 54.067722,78.605865 73.271935,57.313641 
	C83.359322,46.129498 95.775589,37.787285 109.140091,31.013296 
	C141.409225,14.657219 176.013306,6.678712 211.762619,2.921271 
	C212.896530,2.802092 213.923294,1.663411 215.000000,1.000001 
	C242.687561,1.000000 270.375122,1.000000 298.536987,1.412357 
	C302.648712,2.534030 306.257111,3.510510 309.928253,3.908800 
	C331.843658,6.286452 353.254669,10.924099 374.077637,18.145967 
	C400.784454,27.408491 425.936890,39.262291 444.334106,61.869350 
	C455.570160,75.676605 459.882080,91.451485 455.908783,108.857071 
	C451.988953,126.028435 441.219269,138.942413 427.167084,148.723251 
	C411.269623,159.788483 396.603210,171.903793 384.926605,187.496948 
	C363.418030,216.219955 356.968201,248.333481 364.679413,282.938690 
	C371.683533,314.370911 391.106628,337.718506 416.962738,355.846466 
	C427.398987,363.163391 437.117035,371.096436 444.669586,381.292511 
	C462.874939,405.869843 461.674347,434.007996 440.476501,456.883423 
	C423.627258,475.066071 402.010345,485.855591 379.022125,494.063660 
	C353.682556,503.111176 327.561401,508.693695 300.753906,511.095825 
	C299.786804,511.182495 298.915771,512.341003 298.000000,513.000000 
M92.950012,61.436249 
	C92.566154,61.756413 92.170959,62.064018 91.800041,62.398533 
	C66.725159,85.012787 66.624634,108.901245 91.795334,131.349701 
	C107.371048,145.240875 126.101372,153.495117 145.603882,160.134430 
	C175.313553,170.248596 206.022018,175.039001 237.257996,176.470139 
	C284.094574,178.616074 330.120972,174.063080 374.495056,157.982895 
	C394.516266,150.727646 413.488678,141.426361 428.249359,125.423073 
	C445.268127,106.971542 445.242645,86.900307 428.249664,68.384407 
	C416.269653,55.330772 401.121429,46.984718 385.068115,40.194698 
	C355.649170,27.751469 324.733734,21.543697 293.052643,18.682650 
	C248.689484,14.676317 204.839066,17.522116 161.731461,29.036936 
	C137.132919,35.607658 113.590942,44.669373 92.950012,61.436249 
M196.258530,483.765808 
	C195.208771,486.272858 194.159027,488.779877 192.933731,491.706177 
	C236.033203,498.737610 278.223969,498.753021 320.793091,491.757202 
	C320.392303,490.351685 320.196014,489.397583 319.852997,488.499512 
	C312.966187,470.468079 305.936554,452.489471 299.270447,434.377014 
	C297.969147,430.841187 295.931305,430.928833 293.143066,431.212158 
	C269.034393,433.662079 244.915527,433.712677 220.818268,431.155701 
	C217.157928,430.767334 215.657349,431.890320 214.405045,435.381683 
	C208.674438,451.358063 202.571548,467.200897 196.258530,483.765808 
M321.946167,451.549866 
	C326.546844,462.603912 331.204071,473.634979 335.708588,484.728058 
	C336.840912,487.516663 338.349854,488.531403 341.404358,487.797455 
	C362.842346,482.645966 383.659241,475.849518 402.944336,464.931793 
	C405.313995,463.590240 407.532135,461.981079 409.924591,460.428375 
	C409.197845,459.576599 408.938477,459.133453 408.559875,458.848907 
	C392.383942,446.689758 377.792297,432.874878 365.152863,417.056946 
	C363.282379,414.716125 361.594818,415.012817 359.111053,415.845917 
	C349.188843,419.173920 339.213898,422.360046 329.178925,425.329956 
	C324.466888,426.724548 319.574341,427.509247 314.060242,428.725464 
	C316.723694,436.438141 319.206238,443.626892 321.946167,451.549866 
M131.164932,436.665497 
	C122.257896,444.581512 113.350845,452.497528 104.324394,460.519653 
	C105.347031,461.262115 106.239487,462.009613 107.222282,462.608917 
	C127.635925,475.057129 150.019577,482.364288 173.095016,487.894318 
	C176.094177,488.613068 177.322205,487.144836 178.270935,484.703308 
	C185.074142,467.195221 191.929794,449.707520 198.720352,432.194550 
	C199.117844,431.169434 199.094803,429.981293 199.266113,428.877533 
	C198.608109,428.541046 198.197861,428.241516 197.739426,428.109894 
	C183.219986,423.941925 168.719940,419.701111 154.137360,415.766327 
	C152.582367,415.346771 149.971329,416.179138 148.820938,417.369110 
	C142.927505,423.465515 137.352203,429.869385 131.164932,436.665497 
M265.460022,416.920410 
	C274.526276,416.428070 283.592529,415.935730 292.928101,415.428772 
	C292.728851,413.488190 292.725159,412.513580 292.518951,411.583862 
	C288.991638,395.679932 285.330597,379.804443 281.973663,363.864838 
	C281.195923,360.171997 279.139740,360.208191 276.236237,360.238068 
	C263.438324,360.369690 250.634689,360.474274 237.841446,360.200073 
	C234.117233,360.120270 232.593109,361.024658 231.891556,364.801422 
	C229.888260,375.586212 227.509048,386.303314 225.152710,397.019531 
	C223.877426,402.819244 222.347015,408.562866 220.570450,415.804260 
	C235.705200,416.192932 250.087952,416.562286 265.460022,416.920410 
M392.121643,423.379700 
	C401.453583,431.393738 410.782532,439.411316 420.119720,447.419189 
	C422.215149,449.216278 423.945160,449.806183 426.462769,447.429474 
	C443.211792,431.617615 445.764008,411.822144 432.459351,393.070496 
	C427.994171,386.777313 421.931610,381.607330 416.506439,376.013947 
	C415.432770,374.906952 413.934692,374.211670 412.337036,373.125824 
	C403.784607,387.855591 391.566803,398.198181 377.348450,407.152191 
	C382.473572,412.799072 387.047058,417.838135 392.121643,423.379700 
M101.430481,373.630096 
	C95.173615,379.483826 87.991081,384.625549 82.836212,391.326965 
	C68.291458,410.235504 70.076294,429.412628 86.714439,446.583710 
	C89.281830,449.233337 91.277229,449.835968 94.162163,447.249695 
	C104.803139,437.710449 115.645470,428.392883 126.171844,418.730255 
	C129.881760,415.324738 132.901611,411.167450 136.544220,407.001526 
	C122.161224,398.183228 110.513725,387.686676 101.430481,373.630096 
M302.371002,385.099701 
	C304.672516,394.262360 306.973999,403.425018 309.367432,412.953644 
	C324.661530,410.486755 339.048370,407.128845 351.799408,401.485901 
	C344.199677,385.821747 336.942474,370.697632 329.431946,355.700348 
	C328.834473,354.507294 326.358185,353.385864 324.968445,353.602234 
	C316.919525,354.855225 308.954437,356.638428 300.917206,357.979919 
	C298.132446,358.444763 297.216461,359.434814 297.813690,362.246094 
	C299.369629,369.570068 300.735382,376.934479 302.371002,385.099701 
M210.040115,391.547363 
	C212.051041,381.940125 213.992538,372.317566 216.111740,362.734283 
	C216.822311,359.520996 215.875076,358.389008 212.570679,357.897369 
	C205.008438,356.772217 197.451904,355.426788 190.031921,353.605133 
	C186.379120,352.708405 185.271484,353.884216 183.788055,356.969604 
	C177.739761,369.549561 171.318100,381.950623 164.974686,394.387390 
	C163.876373,396.540741 162.490906,398.547607 160.438019,401.946930 
	C175.475693,405.998474 189.634811,409.813293 204.315872,413.768738 
	C206.384048,405.824036 208.135773,399.094940 210.040115,391.547363 
M371.309479,335.710297 
	C362.336670,339.918030 353.363831,344.125763 344.048767,348.493988 
	C350.045654,364.655762 357.896790,379.662170 367.939087,393.994812 
	C380.285248,386.726349 390.749847,378.242676 397.768555,366.137878 
	C398.395630,365.056458 397.698029,362.372375 396.690521,361.309692 
	C388.587891,352.763306 380.263062,344.427582 371.309479,335.710297 
M138.954727,389.545746 
	C141.307892,390.950287 143.661041,392.354828 147.145859,394.434845 
	C155.258545,378.893951 163.046112,363.975830 170.914398,348.903076 
	C160.619019,344.088654 151.643219,339.891327 143.150024,335.919647 
	C134.099640,344.726257 125.125557,353.333649 116.390083,362.176727 
	C115.623901,362.952332 115.862053,365.603821 116.582550,366.823486 
	C122.009583,376.010254 129.707596,383.057129 138.954727,389.545746 
M267.344788,232.891769 
	C274.987549,232.639847 274.908936,232.628998 275.971893,224.928574 
	C276.654388,219.984192 277.471832,215.049011 278.479095,210.161301 
	C279.676147,204.352676 281.141602,198.599365 282.542999,192.598419 
	C265.278259,192.598419 248.581818,192.598419 231.961029,192.598419 
	C234.309204,205.282913 236.503189,217.708450 239.069412,230.056625 
	C239.310379,231.216095 241.869537,232.603745 243.401260,232.665115 
	C251.053726,232.971710 258.722504,232.870880 267.344788,232.891769 
M275.247437,314.171234 
	C275.178375,313.174713 275.098419,312.178833 275.042053,311.181610 
	C274.675568,304.698700 274.678009,304.754333 268.091034,304.842316 
	C261.432739,304.931274 254.771500,304.984283 248.113800,304.891785 
	C238.095688,304.752625 239.386536,303.877167 238.795990,313.458862 
	C238.724457,314.619568 238.498413,315.769928 238.376511,316.928497 
	C237.442627,325.803619 236.516815,334.679657 235.528534,344.128723 
	C250.127792,344.128723 264.115875,344.128723 278.528900,344.128723 
	C277.407990,333.883118 276.379364,324.480743 275.247437,314.171234 
M240.993683,263.505524 
	C240.887650,270.498505 240.870163,277.494507 240.633728,284.483093 
	C240.533707,287.439545 241.587387,288.806000 244.600021,288.788269 
	C252.758072,288.740326 260.917145,288.731384 269.074768,288.812317 
	C272.270020,288.844025 273.418335,287.531982 273.359283,284.297852 
	C273.167969,273.811188 273.134979,263.319000 273.246613,252.831116 
	C273.279816,249.714188 272.103516,248.727188 269.136536,248.842865 
	C264.313324,249.030914 259.479492,248.929916 254.651001,249.004898 
	C250.346771,249.071716 244.252869,247.554718 242.214355,249.758041 
	C239.906570,252.252365 241.236786,258.112610 240.993683,263.505524 
M298.499786,196.048416 
	C295.858246,207.442963 293.216675,218.837524 290.253113,231.621140 
	C298.632050,230.541336 305.301147,229.591965 311.993713,228.856323 
	C315.478058,228.473328 316.787018,226.709778 317.747742,223.337479 
	C320.790405,212.656982 324.394287,202.136429 327.777557,191.552887 
	C328.199280,190.233704 328.599487,188.907669 329.211395,186.934021 
	C320.556580,188.073318 312.712250,189.253143 304.830627,190.075729 
	C301.359222,190.438034 299.239777,191.753540 298.499786,196.048416 
M206.230499,229.258942 
	C211.586456,229.891602 216.942413,230.524246 223.868683,231.342392 
	C220.553299,217.715134 217.621277,205.463577 214.515152,193.256332 
	C214.251770,192.221222 212.922028,190.858582 211.923447,190.703171 
	C203.106262,189.330734 194.251907,188.197128 184.533829,186.873810 
	C185.400436,189.216217 186.003616,190.702377 186.503922,192.222397 
	C189.621704,201.695175 193.392105,211.023453 195.572281,220.708908 
	C196.938736,226.779419 199.608704,229.214355 206.230499,229.258942 
M223.074799,304.938080 
	C221.728134,304.240784 220.449081,303.171570 219.022797,302.912262 
	C213.620346,301.930054 208.130875,301.405365 202.752029,300.321960 
	C199.317398,299.630188 198.319855,300.965210 197.976929,304.061493 
	C197.574463,307.695190 196.882111,311.307983 196.120407,314.888367 
	C194.540604,322.314026 192.831909,329.712280 191.010681,337.862488 
	C199.619522,339.367950 207.795044,340.738037 215.943680,342.252808 
	C219.068039,342.833557 219.663254,341.074951 219.900406,338.640808 
	C220.965881,327.704437 222.059784,316.770844 223.074799,304.938080 
M322.301483,334.056091 
	C320.184235,323.991699 317.924286,313.954041 316.032501,303.847443 
	C315.426544,300.610107 314.280884,299.727692 311.069611,300.369659 
	C305.704834,301.442169 300.276093,302.322601 294.831940,302.822968 
	C291.524048,303.126984 290.538147,304.471619 290.877197,307.569611 
	C292.032898,318.129150 293.101044,328.698425 294.171082,339.267151 
	C294.424744,341.772430 295.596405,342.741119 298.156250,342.243195 
	C305.482605,340.818054 312.852203,339.602875 320.141541,338.014771 
	C321.125702,337.800323 321.746979,335.920135 322.301483,334.056091 
M224.622421,283.987457 
	C224.656296,273.505157 224.790863,263.021210 224.621414,252.542191 
	C224.594299,250.865433 223.425827,247.925018 222.412094,247.751862 
	C215.157028,246.512543 207.805389,245.838577 200.412140,244.976532 
	C200.412140,257.598846 200.349594,269.378052 200.525467,281.153687 
	C200.540268,282.144836 202.021591,283.774414 203.048325,283.981079 
	C208.910995,285.161285 214.826172,286.138550 220.764481,286.835266 
	C221.920883,286.970917 223.258209,285.564392 224.622421,283.987457 
M304.517242,246.020279 
	C300.877350,246.405365 297.244507,246.894775 293.595276,247.141815 
	C290.780609,247.332352 289.319550,248.524475 289.326141,251.447083 
	C289.350220,262.097137 289.363159,272.747528 289.300415,283.397308 
	C289.281372,286.629364 290.943542,287.386505 293.753784,286.928314 
	C299.006012,286.071991 304.247375,285.114105 309.526306,284.469055 
	C312.960510,284.049377 313.617493,282.430847 313.551636,279.137329 
	C313.358978,269.503204 313.661133,259.859283 313.763092,250.219131 
	C313.780029,248.615173 313.765472,247.010895 313.765472,244.924545 
	C310.612427,245.316757 308.008148,245.640701 304.517242,246.020279 
M154.852921,323.689911 
	C161.408218,326.728577 167.963516,329.767212 175.947769,333.468262 
	C178.394913,320.620972 180.614075,309.135986 182.694046,297.625885 
	C182.814514,296.959259 181.973526,295.639557 181.293945,295.383820 
	C176.069839,293.417938 170.774948,291.640137 165.896271,289.941254 
	C161.301941,300.220947 156.860535,309.996155 152.659058,319.873413 
	C152.330170,320.646606 153.676102,322.132263 154.852921,323.689911 
M335.762360,294.258148 
	C331.914764,294.907715 330.658112,296.795837 331.631989,300.845093 
	C333.219971,307.447784 334.093597,314.218781 335.488159,320.872803 
	C336.285950,324.679535 337.517578,328.395386 338.843048,333.200531 
	C347.218567,329.292328 354.749268,325.778351 361.978851,322.404877 
	C357.166046,310.942200 352.770844,300.474182 348.291382,289.805450 
	C344.297668,291.239014 340.408417,292.635101 335.762360,294.258148 
M156.114777,200.428604 
	C158.104950,205.359283 160.027496,210.319046 162.127182,215.202637 
	C162.744080,216.637451 163.580444,218.556839 164.802246,219.049973 
	C169.486816,220.940735 174.369019,222.341873 180.179276,224.255707 
	C176.577805,209.085892 171.339020,195.921051 164.166580,183.503326 
	C163.850037,182.955322 163.348434,182.299484 162.799774,182.132935 
	C156.119873,180.105255 149.414932,178.159988 142.204819,176.043106 
	C147.062912,184.506363 151.435608,192.123993 156.114777,200.428604 
M361.611084,193.143448 
	C364.949463,187.698898 368.287842,182.254333 372.122498,176.000381 
	C364.855652,178.070908 358.461578,179.748657 352.187775,181.795135 
	C350.842743,182.233887 349.469208,183.815170 348.896088,185.196732 
	C344.128326,196.690170 339.522736,208.251312 334.942688,219.821487 
	C334.507812,220.920013 334.581848,222.220016 334.341888,224.004547 
	C338.505829,222.734894 341.954651,221.517883 345.489288,220.650726 
	C349.238342,219.730972 351.123749,217.597366 352.467896,213.879395 
	C354.948120,207.018845 358.268097,200.461899 361.611084,193.143448 
M345.656860,268.547180 
	C345.656860,258.459839 345.656860,248.372482 345.656860,237.665283 
	C341.606384,238.686584 337.973907,239.778091 334.267792,240.482101 
	C331.234589,241.058273 330.144379,242.754501 330.050568,245.641357 
	C329.769470,254.289062 329.326752,262.931854 329.091949,271.580475 
	C329.027283,273.963745 329.469208,276.360779 329.755737,279.630585 
	C335.017792,277.516785 339.553711,275.951874 343.801331,273.814087 
	C344.912476,273.254852 345.127502,270.915070 345.656860,268.547180 
M173.861267,275.651886 
	C177.186737,276.859161 180.512207,278.066406 185.427002,279.850647 
	C184.804352,266.843506 184.296494,255.415329 183.640350,243.995667 
	C183.584579,243.025024 182.724014,241.519058 181.923355,241.269577 
	C177.557816,239.909424 173.093903,238.865051 168.259186,237.606750 
	C168.259186,240.378189 168.243912,242.333771 168.261871,244.289047 
	C168.332062,251.935226 168.885727,259.617218 168.309235,267.213776 
	C167.972366,271.652557 168.762589,274.264465 173.861267,275.651886 
z"/>
<path fill="#000000" opacity="1.000000" stroke="none" 
	d="
M298.468658,513.000000 
	C298.915771,512.341003 299.786804,511.182495 300.753906,511.095825 
	C327.561401,508.693695 353.682556,503.111176 379.022125,494.063660 
	C402.010345,485.855591 423.627258,475.066071 440.476501,456.883423 
	C461.674347,434.007996 462.874939,405.869843 444.669586,381.292511 
	C437.117035,371.096436 427.398987,363.163391 416.962738,355.846466 
	C391.106628,337.718506 371.683533,314.370911 364.679413,282.938690 
	C356.968201,248.333481 363.418030,216.219955 384.926605,187.496948 
	C396.603210,171.903793 411.269623,159.788483 427.167084,148.723251 
	C441.219269,138.942413 451.988953,126.028435 455.908783,108.857071 
	C459.882080,91.451485 455.570160,75.676605 444.334106,61.869350 
	C425.936890,39.262291 400.784454,27.408491 374.077637,18.145967 
	C353.254669,10.924099 331.843658,6.286452 309.928253,3.908800 
	C306.257111,3.510510 302.648712,2.534030 299.005676,1.412357 
	C370.300171,1.000000 441.600342,1.000000 512.950256,1.000000 
	C512.950256,171.554138 512.950256,342.108307 512.950256,513.000000 
	C441.646118,513.000000 370.291718,513.000000 298.468658,513.000000 
z"/>
<path fill="#000000" opacity="1.000000" stroke="none" 
	d="
M214.531342,1.000001 
	C213.923294,1.663411 212.896530,2.802092 211.762619,2.921271 
	C176.013306,6.678712 141.409225,14.657219 109.140091,31.013296 
	C95.775589,37.787285 83.359322,46.129498 73.271935,57.313641 
	C54.067722,78.605865 50.765171,104.663666 66.942879,128.799469 
	C74.438393,139.982178 85.059364,147.963242 96.090782,155.459824 
	C112.071526,166.319763 124.934883,180.241043 135.230927,196.556702 
	C142.642090,208.300827 147.945587,220.943314 150.282120,234.636475 
	C154.228989,257.766724 152.644760,280.337830 143.026306,302.113159 
	C136.905869,315.969269 128.356812,328.233704 117.589806,338.543427 
	C108.214027,347.520966 97.092667,354.645905 87.094940,363.010559 
	C72.905212,374.882507 60.632290,388.394867 57.445786,407.465942 
	C54.750092,423.599487 58.846420,438.356171 68.910461,451.393219 
	C77.970123,463.129211 89.572449,471.753418 102.268890,479.094940 
	C130.641602,495.501038 161.831329,503.285309 193.716431,508.846985 
	C200.216660,509.980804 206.858643,510.291595 213.424911,511.069397 
	C214.304596,511.173553 215.123016,511.794922 215.984894,512.588379 
	C144.366653,513.000000 72.733322,513.000000 1.049991,513.000000 
	C1.049991,342.446045 1.049991,171.892059 1.049991,1.000000 
	C72.020538,1.000000 143.041611,1.000000 214.531342,1.000001 
z"/>
<path fill="#8BC9F3" opacity="1.000000" stroke="none" 
	d="
M93.225395,61.209118 
	C113.590942,44.669373 137.132919,35.607658 161.731461,29.036936 
	C204.839066,17.522116 248.689484,14.676317 293.052643,18.682650 
	C324.733734,21.543697 355.649170,27.751469 385.068115,40.194698 
	C401.121429,46.984718 416.269653,55.330772 428.249664,68.384407 
	C445.242645,86.900307 445.268127,106.971542 428.249359,125.423073 
	C413.488678,141.426361 394.516266,150.727646 374.495056,157.982895 
	C330.120972,174.063080 284.094574,178.616074 237.257996,176.470139 
	C206.022018,175.039001 175.313553,170.248596 145.603882,160.134430 
	C126.101372,153.495117 107.371048,145.240875 91.795334,131.349701 
	C66.624634,108.901245 66.725159,85.012787 91.800041,62.398533 
	C92.170959,62.064018 92.566154,61.756413 93.225395,61.209118 
M141.526001,133.013596 
	C157.811249,137.671860 173.879837,143.388718 190.425415,146.774979 
	C228.593842,154.586609 267.180786,154.893646 305.760986,149.855377 
	C334.125397,146.151230 361.802277,139.569656 387.246826,126.038124 
	C395.523895,121.636337 403.433868,116.034279 410.350891,109.711281 
	C419.483948,101.362572 419.249634,92.853928 410.434479,84.218742 
	C405.726196,79.606560 400.266541,75.592995 394.649597,72.109795 
	C380.411499,63.280464 364.838684,57.428856 348.754181,52.918591 
	C308.175323,41.539848 266.802734,38.972870 224.997070,42.367233 
	C193.808167,44.899590 163.386520,51.064106 134.668945,64.026634 
	C123.251099,69.180412 112.208244,75.064995 103.392014,84.228539 
	C94.962883,92.989731 94.887970,100.212662 102.952736,109.176147 
	C105.057129,111.515060 107.264046,114.001610 109.928589,115.554085 
	C120.106125,121.483917 130.489594,127.060303 141.526001,133.013596 
z"/>
<path fill="#519AE4" opacity="1.000000" stroke="none" 
	d="
M196.430450,483.428772 
	C202.571548,467.200897 208.674438,451.358063 214.405045,435.381683 
	C215.657349,431.890320 217.157928,430.767334 220.818268,431.155701 
	C244.915527,433.712677 269.034393,433.662079 293.143066,431.212158 
	C295.931305,430.928833 297.969147,430.841187 299.270447,434.377014 
	C305.936554,452.489471 312.966187,470.468079 319.852997,488.499512 
	C320.196014,489.397583 320.392303,490.351685 320.793091,491.757202 
	C278.223969,498.753021 236.033203,498.737610 192.933731,491.706177 
	C194.159027,488.779877 195.208771,486.272858 196.430450,483.428772 
z"/>
<path fill="#509AE4" opacity="1.000000" stroke="none" 
	d="
M321.817474,451.182739 
	C319.206238,443.626892 316.723694,436.438141 314.060242,428.725464 
	C319.574341,427.509247 324.466888,426.724548 329.178925,425.329956 
	C339.213898,422.360046 349.188843,419.173920 359.111053,415.845917 
	C361.594818,415.012817 363.282379,414.716125 365.152863,417.056946 
	C377.792297,432.874878 392.383942,446.689758 408.559875,458.848907 
	C408.938477,459.133453 409.197845,459.576599 409.924591,460.428375 
	C407.532135,461.981079 405.313995,463.590240 402.944336,464.931793 
	C383.659241,475.849518 362.842346,482.645966 341.404358,487.797455 
	C338.349854,488.531403 336.840912,487.516663 335.708588,484.728058 
	C331.204071,473.634979 326.546844,462.603912 321.817474,451.182739 
z"/>
<path fill="#509AE4" opacity="1.000000" stroke="none" 
	d="
M131.415314,436.415649 
	C137.352203,429.869385 142.927505,423.465515 148.820938,417.369110 
	C149.971329,416.179138 152.582367,415.346771 154.137360,415.766327 
	C168.719940,419.701111 183.219986,423.941925 197.739426,428.109894 
	C198.197861,428.241516 198.608109,428.541046 199.266113,428.877533 
	C199.094803,429.981293 199.117844,431.169434 198.720352,432.194550 
	C191.929794,449.707520 185.074142,467.195221 178.270935,484.703308 
	C177.322205,487.144836 176.094177,488.613068 173.095016,487.894318 
	C150.019577,482.364288 127.635925,475.057129 107.222282,462.608917 
	C106.239487,462.009613 105.347031,461.262115 104.324394,460.519653 
	C113.350845,452.497528 122.257896,444.581512 131.415314,436.415649 
z"/>
<path fill="#509AE4" opacity="1.000000" stroke="none" 
	d="
M264.965363,416.926025 
	C250.087952,416.562286 235.705200,416.192932 220.570450,415.804260 
	C222.347015,408.562866 223.877426,402.819244 225.152710,397.019531 
	C227.509048,386.303314 229.888260,375.586212 231.891556,364.801422 
	C232.593109,361.024658 234.117233,360.120270 237.841446,360.200073 
	C250.634689,360.474274 263.438324,360.369690 276.236237,360.238068 
	C279.139740,360.208191 281.195923,360.171997 281.973663,363.864838 
	C285.330597,379.804443 288.991638,395.679932 292.518951,411.583862 
	C292.725159,412.513580 292.728851,413.488190 292.928101,415.428772 
	C283.592529,415.935730 274.526276,416.428070 264.965363,416.926025 
z"/>
<path fill="#509AE4" opacity="1.000000" stroke="none" 
	d="
M391.871094,423.128418 
	C387.047058,417.838135 382.473572,412.799072 377.348450,407.152191 
	C391.566803,398.198181 403.784607,387.855591 412.337036,373.125824 
	C413.934692,374.211670 415.432770,374.906952 416.506439,376.013947 
	C421.931610,381.607330 427.994171,386.777313 432.459351,393.070496 
	C445.764008,411.822144 443.211792,431.617615 426.462769,447.429474 
	C423.945160,449.806183 422.215149,449.216278 420.119720,447.419189 
	C410.782532,439.411316 401.453583,431.393738 391.871094,423.128418 
z"/>
<path fill="#509AE4" opacity="1.000000" stroke="none" 
	d="
M101.703575,373.816620 
	C110.513725,387.686676 122.161224,398.183228 136.544220,407.001526 
	C132.901611,411.167450 129.881760,415.324738 126.171844,418.730255 
	C115.645470,428.392883 104.803139,437.710449 94.162163,447.249695 
	C91.277229,449.835968 89.281830,449.233337 86.714439,446.583710 
	C70.076294,429.412628 68.291458,410.235504 82.836212,391.326965 
	C87.991081,384.625549 95.173615,379.483826 101.703575,373.816620 
z"/>
<path fill="#509AE4" opacity="1.000000" stroke="none" 
	d="
M302.273987,384.691223 
	C300.735382,376.934479 299.369629,369.570068 297.813690,362.246094 
	C297.216461,359.434814 298.132446,358.444763 300.917206,357.979919 
	C308.954437,356.638428 316.919525,354.855225 324.968445,353.602234 
	C326.358185,353.385864 328.834473,354.507294 329.431946,355.700348 
	C336.942474,370.697632 344.199677,385.821747 351.799408,401.485901 
	C339.048370,407.128845 324.661530,410.486755 309.367432,412.953644 
	C306.973999,403.425018 304.672516,394.262360 302.273987,384.691223 
z"/>
<path fill="#509AE4" opacity="1.000000" stroke="none" 
	d="
M209.963806,391.956604 
	C208.135773,399.094940 206.384048,405.824036 204.315872,413.768738 
	C189.634811,409.813293 175.475693,405.998474 160.438019,401.946930 
	C162.490906,398.547607 163.876373,396.540741 164.974686,394.387390 
	C171.318100,381.950623 177.739761,369.549561 183.788055,356.969604 
	C185.271484,353.884216 186.379120,352.708405 190.031921,353.605133 
	C197.451904,355.426788 205.008438,356.772217 212.570679,357.897369 
	C215.875076,358.389008 216.822311,359.520996 216.111740,362.734283 
	C213.992538,372.317566 212.051041,381.940125 209.963806,391.956604 
z"/>
<path fill="#509AE4" opacity="1.000000" stroke="none" 
	d="
M371.657837,335.868866 
	C380.263062,344.427582 388.587891,352.763306 396.690521,361.309692 
	C397.698029,362.372375 398.395630,365.056458 397.768555,366.137878 
	C390.749847,378.242676 380.285248,386.726349 367.939087,393.994812 
	C357.896790,379.662170 350.045654,364.655762 344.048767,348.493988 
	C353.363831,344.125763 362.336670,339.918030 371.657837,335.868866 
z"/>
<path fill="#509AE4" opacity="1.000000" stroke="none" 
	d="
M138.663452,389.335022 
	C129.707596,383.057129 122.009583,376.010254 116.582550,366.823486 
	C115.862053,365.603821 115.623901,362.952332 116.390083,362.176727 
	C125.125557,353.333649 134.099640,344.726257 143.150024,335.919647 
	C151.643219,339.891327 160.619019,344.088654 170.914398,348.903076 
	C163.046112,363.975830 155.258545,378.893951 147.145859,394.434845 
	C143.661041,392.354828 141.307892,390.950287 138.663452,389.335022 
z"/>
<path fill="#509AE4" opacity="1.000000" stroke="none" 
	d="
M266.865173,232.902557 
	C258.722504,232.870880 251.053726,232.971710 243.401260,232.665115 
	C241.869537,232.603745 239.310379,231.216095 239.069412,230.056625 
	C236.503189,217.708450 234.309204,205.282913 231.961029,192.598419 
	C248.581818,192.598419 265.278259,192.598419 282.542999,192.598419 
	C281.141602,198.599365 279.676147,204.352676 278.479095,210.161301 
	C277.471832,215.049011 276.654388,219.984192 275.971893,224.928574 
	C274.908936,232.628998 274.987549,232.639847 266.865173,232.902557 
z"/>
<path fill="#509AE4" opacity="1.000000" stroke="none" 
	d="
M275.299072,314.624817 
	C276.379364,324.480743 277.407990,333.883118 278.528900,344.128723 
	C264.115875,344.128723 250.127792,344.128723 235.528534,344.128723 
	C236.516815,334.679657 237.442627,325.803619 238.376511,316.928497 
	C238.498413,315.769928 238.724457,314.619568 238.795990,313.458862 
	C239.386536,303.877167 238.095688,304.752625 248.113800,304.891785 
	C254.771500,304.984283 261.432739,304.931274 268.091034,304.842316 
	C274.678009,304.754333 274.675568,304.698700 275.042053,311.181610 
	C275.098419,312.178833 275.178375,313.174713 275.299072,314.624817 
z"/>
<path fill="#519BE4" opacity="1.000000" stroke="none" 
	d="
M240.989410,263.007385 
	C241.236786,258.112610 239.906570,252.252365 242.214355,249.758041 
	C244.252869,247.554718 250.346771,249.071716 254.651001,249.004898 
	C259.479492,248.929916 264.313324,249.030914 269.136536,248.842865 
	C272.103516,248.727188 273.279816,249.714188 273.246613,252.831116 
	C273.134979,263.319000 273.167969,273.811188 273.359283,284.297852 
	C273.418335,287.531982 272.270020,288.844025 269.074768,288.812317 
	C260.917145,288.731384 252.758072,288.740326 244.600021,288.788269 
	C241.587387,288.806000 240.533707,287.439545 240.633728,284.483093 
	C240.870163,277.494507 240.887650,270.498505 240.989410,263.007385 
z"/>
<path fill="#509AE3" opacity="1.000000" stroke="none" 
	d="
M298.635315,195.674164 
	C299.239777,191.753540 301.359222,190.438034 304.830627,190.075729 
	C312.712250,189.253143 320.556580,188.073318 329.211395,186.934021 
	C328.599487,188.907669 328.199280,190.233704 327.777557,191.552887 
	C324.394287,202.136429 320.790405,212.656982 317.747742,223.337479 
	C316.787018,226.709778 315.478058,228.473328 311.993713,228.856323 
	C305.301147,229.591965 298.632050,230.541336 290.253113,231.621140 
	C293.216675,218.837524 295.858246,207.442963 298.635315,195.674164 
z"/>
<path fill="#509AE3" opacity="1.000000" stroke="none" 
	d="
M205.802460,229.195862 
	C199.608704,229.214355 196.938736,226.779419 195.572281,220.708908 
	C193.392105,211.023453 189.621704,201.695175 186.503922,192.222397 
	C186.003616,190.702377 185.400436,189.216217 184.533829,186.873810 
	C194.251907,188.197128 203.106262,189.330734 211.923447,190.703171 
	C212.922028,190.858582 214.251770,192.221222 214.515152,193.256332 
	C217.621277,205.463577 220.553299,217.715134 223.868683,231.342392 
	C216.942413,230.524246 211.586456,229.891602 205.802460,229.195862 
z"/>
<path fill="#509AE3" opacity="1.000000" stroke="none" 
	d="
M223.109100,305.387146 
	C222.059784,316.770844 220.965881,327.704437 219.900406,338.640808 
	C219.663254,341.074951 219.068039,342.833557 215.943680,342.252808 
	C207.795044,340.738037 199.619522,339.367950 191.010681,337.862488 
	C192.831909,329.712280 194.540604,322.314026 196.120407,314.888367 
	C196.882111,311.307983 197.574463,307.695190 197.976929,304.061493 
	C198.319855,300.965210 199.317398,299.630188 202.752029,300.321960 
	C208.130875,301.405365 213.620346,301.930054 219.022797,302.912262 
	C220.449081,303.171570 221.728134,304.240784 223.109100,305.387146 
z"/>
<path fill="#509AE3" opacity="1.000000" stroke="none" 
	d="
M322.418884,334.433655 
	C321.746979,335.920135 321.125702,337.800323 320.141541,338.014771 
	C312.852203,339.602875 305.482605,340.818054 298.156250,342.243195 
	C295.596405,342.741119 294.424744,341.772430 294.171082,339.267151 
	C293.101044,328.698425 292.032898,318.129150 290.877197,307.569611 
	C290.538147,304.471619 291.524048,303.126984 294.831940,302.822968 
	C300.276093,302.322601 305.704834,301.442169 311.069611,300.369659 
	C314.280884,299.727692 315.426544,300.610107 316.032501,303.847443 
	C317.924286,313.954041 320.184235,323.991699 322.418884,334.433655 
z"/>
<path fill="#5099E3" opacity="1.000000" stroke="none" 
	d="
M224.567245,284.428345 
	C223.258209,285.564392 221.920883,286.970917 220.764481,286.835266 
	C214.826172,286.138550 208.910995,285.161285 203.048325,283.981079 
	C202.021591,283.774414 200.540268,282.144836 200.525467,281.153687 
	C200.349594,269.378052 200.412140,257.598846 200.412140,244.976532 
	C207.805389,245.838577 215.157028,246.512543 222.412094,247.751862 
	C223.425827,247.925018 224.594299,250.865433 224.621414,252.542191 
	C224.790863,263.021210 224.656296,273.505157 224.567245,284.428345 
z"/>
<path fill="#509AE3" opacity="1.000000" stroke="none" 
	d="
M304.960571,245.992462 
	C308.008148,245.640701 310.612427,245.316757 313.765472,244.924545 
	C313.765472,247.010895 313.780029,248.615173 313.763092,250.219131 
	C313.661133,259.859283 313.358978,269.503204 313.551636,279.137329 
	C313.617493,282.430847 312.960510,284.049377 309.526306,284.469055 
	C304.247375,285.114105 299.006012,286.071991 293.753784,286.928314 
	C290.943542,287.386505 289.281372,286.629364 289.300415,283.397308 
	C289.363159,272.747528 289.350220,262.097137 289.326141,251.447083 
	C289.319550,248.524475 290.780609,247.332352 293.595276,247.141815 
	C297.244507,246.894775 300.877350,246.405365 304.960571,245.992462 
z"/>
<path fill="#5099E3" opacity="1.000000" stroke="none" 
	d="
M154.548279,323.488342 
	C153.676102,322.132263 152.330170,320.646606 152.659058,319.873413 
	C156.860535,309.996155 161.301941,300.220947 165.896271,289.941254 
	C170.774948,291.640137 176.069839,293.417938 181.293945,295.383820 
	C181.973526,295.639557 182.814514,296.959259 182.694046,297.625885 
	C180.614075,309.135986 178.394913,320.620972 175.947769,333.468262 
	C167.963516,329.767212 161.408218,326.728577 154.548279,323.488342 
z"/>
<path fill="#5099E3" opacity="1.000000" stroke="none" 
	d="
M336.140747,294.144653 
	C340.408417,292.635101 344.297668,291.239014 348.291382,289.805450 
	C352.770844,300.474182 357.166046,310.942200 361.978851,322.404877 
	C354.749268,325.778351 347.218567,329.292328 338.843048,333.200531 
	C337.517578,328.395386 336.285950,324.679535 335.488159,320.872803 
	C334.093597,314.218781 333.219971,307.447784 331.631989,300.845093 
	C330.658112,296.795837 331.914764,294.907715 336.140747,294.144653 
z"/>
<path fill="#4F99E2" opacity="1.000000" stroke="none" 
	d="
M155.961548,200.085114 
	C151.435608,192.123993 147.062912,184.506363 142.204819,176.043106 
	C149.414932,178.159988 156.119873,180.105255 162.799774,182.132935 
	C163.348434,182.299484 163.850037,182.955322 164.166580,183.503326 
	C171.339020,195.921051 176.577805,209.085892 180.179276,224.255707 
	C174.369019,222.341873 169.486816,220.940735 164.802246,219.049973 
	C163.580444,218.556839 162.744080,216.637451 162.127182,215.202637 
	C160.027496,210.319046 158.104950,205.359283 155.961548,200.085114 
z"/>
<path fill="#4F99E3" opacity="1.000000" stroke="none" 
	d="
M361.424652,193.460968 
	C358.268097,200.461899 354.948120,207.018845 352.467896,213.879395 
	C351.123749,217.597366 349.238342,219.730972 345.489288,220.650726 
	C341.954651,221.517883 338.505829,222.734894 334.341888,224.004547 
	C334.581848,222.220016 334.507812,220.920013 334.942688,219.821487 
	C339.522736,208.251312 344.128326,196.690170 348.896088,185.196732 
	C349.469208,183.815170 350.842743,182.233887 352.187775,181.795135 
	C358.461578,179.748657 364.855652,178.070908 372.122498,176.000381 
	C368.287842,182.254333 364.949463,187.698898 361.424652,193.460968 
z"/>
<path fill="#4F99E3" opacity="1.000000" stroke="none" 
	d="
M345.705475,268.970093 
	C345.127502,270.915070 344.912476,273.254852 343.801331,273.814087 
	C339.553711,275.951874 335.017792,277.516785 329.755737,279.630585 
	C329.469208,276.360779 329.027283,273.963745 329.091949,271.580475 
	C329.326752,262.931854 329.769470,254.289062 330.050568,245.641357 
	C330.144379,242.754501 331.234589,241.058273 334.267792,240.482101 
	C337.973907,239.778091 341.606384,238.686584 345.656860,237.665283 
	C345.656860,248.372482 345.656860,258.459839 345.705475,268.970093 
z"/>
<path fill="#4F99E3" opacity="1.000000" stroke="none" 
	d="
M173.512604,275.485596 
	C168.762589,274.264465 167.972366,271.652557 168.309235,267.213776 
	C168.885727,259.617218 168.332062,251.935226 168.261871,244.289047 
	C168.243912,242.333771 168.259186,240.378189 168.259186,237.606750 
	C173.093903,238.865051 177.557816,239.909424 181.923355,241.269577 
	C182.724014,241.519058 183.584579,243.025024 183.640350,243.995667 
	C184.296494,255.415329 184.804352,266.843506 185.427002,279.850647 
	C180.512207,278.066406 177.186737,276.859161 173.512604,275.485596 
z"/>
<path fill="#0C4379" opacity="1.000000" stroke="none" 
	d="
M141.161072,132.891144 
	C130.489594,127.060303 120.106125,121.483917 109.928589,115.554085 
	C107.264046,114.001610 105.057129,111.515060 102.952736,109.176147 
	C94.887970,100.212662 94.962883,92.989731 103.392014,84.228539 
	C112.208244,75.064995 123.251099,69.180412 134.668945,64.026634 
	C163.386520,51.064106 193.808167,44.899590 224.997070,42.367233 
	C266.802734,38.972870 308.175323,41.539848 348.754181,52.918591 
	C364.838684,57.428856 380.411499,63.280464 394.649597,72.109795 
	C400.266541,75.592995 405.726196,79.606560 410.434479,84.218742 
	C419.249634,92.853928 419.483948,101.362572 410.350891,109.711281 
	C403.433868,116.034279 395.523895,121.636337 387.246826,126.038124 
	C361.802277,139.569656 334.125397,146.151230 305.760986,149.855377 
	C267.180786,154.893646 228.593842,154.586609 190.425415,146.774979 
	C173.879837,143.388718 157.811249,137.671860 141.161072,132.891144 
M217.824402,100.788773 
	C213.508728,88.913757 209.164932,77.048828 204.896866,65.156731 
	C203.813400,62.137821 202.069931,61.098335 198.811157,61.856232 
	C192.818924,63.249844 186.701172,64.107582 180.716385,65.528419 
	C174.315018,67.048172 168.006775,68.960159 161.180389,70.831856 
	C162.097672,72.138748 162.374512,72.769493 162.846329,73.171333 
	C181.440552,89.007484 195.558197,108.060928 204.651855,130.809586 
	C205.182770,132.137695 207.105148,133.559357 208.552246,133.773483 
	C228.665359,136.749741 248.910782,137.344528 269.216095,136.949203 
	C272.687317,136.881607 273.806519,135.585144 274.140045,132.317032 
	C276.571472,108.491013 282.707336,85.622948 292.216064,63.646580 
	C292.772278,62.361061 292.969177,60.920078 293.450378,59.111240 
	C268.785156,56.570625 244.753723,56.033600 220.295303,59.294247 
	C220.903656,61.152397 221.319427,62.387291 221.712860,63.629265 
	C226.619385,79.118767 231.663437,94.566917 236.347687,110.123398 
	C237.910568,115.313736 235.247589,119.642525 230.774445,120.696999 
	C226.352310,121.739441 222.343948,118.944923 220.958908,113.713127 
	C219.894379,109.692047 218.982269,105.630623 217.824402,100.788773 
M328.031372,97.537209 
	C335.993652,88.733231 343.955933,79.929245 352.742828,70.213501 
	C340.226166,67.415100 328.093750,64.784996 316.008850,61.951920 
	C312.249512,61.070606 310.384796,62.239719 308.797455,65.782509 
	C300.303955,84.738976 294.385254,104.429985 291.207214,124.945137 
	C290.715607,128.118591 290.530212,131.339478 290.183411,134.731735 
	C292.229889,134.841354 293.392242,135.059265 294.519470,134.941254 
	C324.352997,131.817932 353.348419,125.533737 380.279358,111.733063 
	C384.560944,109.538963 388.687592,106.965111 392.629761,104.201546 
	C401.792786,97.778053 401.885895,96.186409 392.780914,89.999367 
	C387.158142,86.178581 380.989502,83.168678 375.141968,79.667717 
	C372.470612,78.068352 370.161987,78.216873 367.937134,80.332268 
	C359.994385,87.884323 351.890167,95.276962 344.189728,103.068588 
	C340.946594,106.350136 338.666290,110.563095 335.750000,114.193359 
	C332.681702,118.012863 327.676849,118.774384 324.170288,116.218307 
	C320.744720,113.721275 320.128113,109.371582 322.765930,105.077988 
	C324.244415,102.671463 325.977509,100.421349 328.031372,97.537209 
M148.897980,118.682480 
	C160.655319,123.157562 172.543076,127.150116 185.237671,129.247864 
	C185.237671,128.004150 185.399567,127.449829 185.214447,127.060547 
	C175.914337,107.504295 161.913773,91.935013 144.447662,79.376434 
	C143.500381,78.695312 141.404312,78.613464 140.380447,79.196487 
	C132.736420,83.549232 125.002235,87.810234 117.754929,92.770134 
	C112.769653,96.181953 112.684769,98.085823 117.837433,101.299500 
	C127.677345,107.436562 138.045975,112.725899 148.897980,118.682480 
z"/>
<path fill="#327DD7" opacity="1.000000" stroke="none" 
	d="
M217.913391,101.187958 
	C218.982269,105.630623 219.894379,109.692047 220.958908,113.713127 
	C222.343948,118.944923 226.352310,121.739441 230.774445,120.696999 
	C235.247589,119.642525 237.910568,115.313736 236.347687,110.123398 
	C231.663437,94.566917 226.619385,79.118767 221.712860,63.629265 
	C221.319427,62.387291 220.903656,61.152397 220.295303,59.294247 
	C244.753723,56.033600 268.785156,56.570625 293.450378,59.111240 
	C292.969177,60.920078 292.772278,62.361061 292.216064,63.646580 
	C282.707336,85.622948 276.571472,108.491013 274.140045,132.317032 
	C273.806519,135.585144 272.687317,136.881607 269.216095,136.949203 
	C248.910782,137.344528 228.665359,136.749741 208.552246,133.773483 
	C207.105148,133.559357 205.182770,132.137695 204.651855,130.809586 
	C195.558197,108.060928 181.440552,89.007484 162.846329,73.171333 
	C162.374512,72.769493 162.097672,72.138748 161.180389,70.831856 
	C168.006775,68.960159 174.315018,67.048172 180.716385,65.528419 
	C186.701172,64.107582 192.818924,63.249844 198.811157,61.856232 
	C202.069931,61.098335 203.813400,62.137821 204.896866,65.156731 
	C209.164932,77.048828 213.508728,88.913757 217.913391,101.187958 
z"/>
<path fill="#327DD7" opacity="1.000000" stroke="none" 
	d="
M327.813629,97.818985 
	C325.977509,100.421349 324.244415,102.671463 322.765930,105.077988 
	C320.128113,109.371582 320.744720,113.721275 324.170288,116.218307 
	C327.676849,118.774384 332.681702,118.012863 335.750000,114.193359 
	C338.666290,110.563095 340.946594,106.350136 344.189728,103.068588 
	C351.890167,95.276962 359.994385,87.884323 367.937134,80.332268 
	C370.161987,78.216873 372.470612,78.068352 375.141968,79.667717 
	C380.989502,83.168678 387.158142,86.178581 392.780914,89.999367 
	C401.885895,96.186409 401.792786,97.778053 392.629761,104.201546 
	C388.687592,106.965111 384.560944,109.538963 380.279358,111.733063 
	C353.348419,125.533737 324.352997,131.817932 294.519470,134.941254 
	C293.392242,135.059265 292.229889,134.841354 290.183411,134.731735 
	C290.530212,131.339478 290.715607,128.118591 291.207214,124.945137 
	C294.385254,104.429985 300.303955,84.738976 308.797455,65.782509 
	C310.384796,62.239719 312.249512,61.070606 316.008850,61.951920 
	C328.093750,64.784996 340.226166,67.415100 352.742828,70.213501 
	C343.955933,79.929245 335.993652,88.733231 327.813629,97.818985 
z"/>
<path fill="#327CD7" opacity="1.000000" stroke="none" 
	d="
M148.546570,118.524796 
	C138.045975,112.725899 127.677345,107.436562 117.837433,101.299500 
	C112.684769,98.085823 112.769653,96.181953 117.754929,92.770134 
	C125.002235,87.810234 132.736420,83.549232 140.380447,79.196487 
	C141.404312,78.613464 143.500381,78.695312 144.447662,79.376434 
	C161.913773,91.935013 175.914337,107.504295 185.214447,127.060547 
	C185.399567,127.449829 185.237671,128.004150 185.237671,129.247864 
	C172.543076,127.150116 160.655319,123.157562 148.546570,118.524796 
z"/>
</svg>